OpenSans-Medium.ufo
<glyph name="quotedbl" format="2">
  <advance width="836"/>
  <unicode hex="0022"/>
  <outline>
    <contour>
      <point x="328" y="1462" type="line"/>
      <point x="133" y="1462" type="line"/>
      <point x="174" y="934" type="line"/>
      <point x="287" y="934" type="line"/>
    </contour>
    <contour>
      <point x="702" y="1462" type="line"/>
      <point x="508" y="1462" type="line"/>
      <point x="549" y="934" type="line"/>
      <point x="662" y="934" type="line"/>
    </contour>
  </outline>
</glyph>
<glyph name="parenright" format="2">
  <advance width="614"/>
  <unicode hex="0029"/>
  <outline>
    <contour>
      <point x="532" y="561" type="curve" smooth="yes"/>
      <point x="532" y="895"/>
      <point x="438" y="1214"/>
      <point x="231" y="1462" type="curve"/>
      <point x="61" y="1462" type="line"/>
      <point x="252" y="1206"/>
      <point x="350" y="887"/>
      <point x="350" y="563" type="curve" smooth="yes"/>
      <point x="350" y="246"/>
      <point x="252" y="-68"/>
      <point x="63" y="-324" type="curve"/>
      <point x="231" y="-324" type="line"/>
      <point x="438" y="-84"/>
      <point x="532" y="231"/>
    </contour>
  </outline>
</glyph>
<glyph name="asterisk" format="2">
  <advance width="1128"/>
  <unicode hex="002A"/>
  <outline>
    <contour>
      <point x="659" y="1556" type="line"/>
      <point x="459" y="1556" type="line"/>
      <point x="502" y="1163" type="line"/>
      <point x="113" y="1274" type="line"/>
      <point x="84" y="1085" type="line"/>
      <point x="457" y="1055" type="line"/>
      <point x="217" y="731" type="line"/>
      <point x="399" y="635" type="line"/>
      <point x="557" y="993" type="line"/>
      <point x="731" y="635" type="line"/>
      <point x="907" y="731" type="line"/>
      <point x="664" y="1055" type="line"/>
      <point x="1040" y="1085" type="line"/>
      <point x="1012" y="1274" type="line"/>
      <point x="618" y="1163" type="line"/>
    </contour>
  </outline>
</glyph>
<glyph name="plus" format="2">
  <advance width="1171"/>
  <unicode hex="002B"/>
  <outline>
    <contour>
      <point x="657" y="795" type="line"/>
      <point x="657" y="1219" type="line"/>
      <point x="510" y="1219" type="line"/>
      <point x="510" y="795" type="line"/>
      <point x="102" y="795" type="line"/>
      <point x="102" y="649" type="line"/>
      <point x="510" y="649" type="line"/>
      <point x="510" y="227" type="line"/>
      <point x="657" y="227" type="line"/>
      <point x="657" y="649" type="line"/>
      <point x="1065" y="649" type="line"/>
      <point x="1065" y="795" type="line"/>
    </contour>
  </outline>
</glyph>
<glyph name="comma" format="2">
  <advance width="549"/>
  <unicode hex="002C"/>
  <outline>
    <contour>
      <point x="379" y="238" type="line"/>
      <point x="186" y="238" type="line"/>
      <point x="166" y="94"/>
      <point x="123" y="-109"/>
      <point x="84" y="-264" type="curve"/>
      <point x="217" y="-264" type="line"/>
      <point x="283" y="-117"/>
      <point x="356" y="70"/>
      <point x="393" y="215" type="curve"/>
    </contour>
  </outline>
</glyph>
<glyph name="period" format="2">
  <advance width="549"/>
  <unicode hex="002E"/>
  <outline>
    <contour>
      <point x="147" y="111" type="curve" smooth="yes"/>
      <point x="147" y="12"/>
      <point x="203" y="-29"/>
      <point x="272" y="-29" type="curve" smooth="yes"/>
      <point x="342" y="-29"/>
      <point x="401" y="12"/>
      <point x="401" y="111" type="curve" smooth="yes"/>
      <point x="401" y="211"/>
      <point x="342" y="248"/>
      <point x="272" y="248" type="curve" smooth="yes"/>
      <point x="203" y="248"/>
      <point x="147" y="211"/>
    </contour>
  </outline>
</glyph>
<glyph name="slash" format="2">
  <advance width="762"/>
  <unicode hex="002F"/>
  <outline>
    <contour>
      <point x="741" y="1462" type="line"/>
      <point x="565" y="1462" type="line"/>
      <point x="20" y="0" type="line"/>
      <point x="197" y="0" type="line"/>
    </contour>
  </outline>
</glyph>
<glyph name="one" format="2">
  <advance width="1171"/>
  <unicode hex="0031"/>
  <outline>
    <contour>
      <point x="727" y="0" type="line"/>
      <point x="727" y="1462" type="line"/>
      <point x="578" y="1462" type="line"/>
      <point x="182" y="1155" type="line"/>
      <point x="276" y="1034" type="line"/>
      <point x="432" y="1161" type="line" smooth="yes"/>
      <point x="485" y="1206"/>
      <point x="516" y="1229"/>
      <point x="559" y="1274" type="curve"/>
      <point x="553" y="1196"/>
      <point x="551" y="1139"/>
      <point x="551" y="1022" type="curve" smooth="yes"/>
      <point x="551" y="0" type="line"/>
    </contour>
  </outline>
</glyph>
<glyph name="question" format="2">
  <advance width="889"/>
  <unicode hex="003F"/>
  <outline>
    <contour>
      <point x="287" y="412" type="line"/>
      <point x="430" y="412" type="line"/>
      <point x="430" y="446" type="line" smooth="yes"/>
      <point x="430" y="563"/>
      <point x="457" y="616"/>
      <point x="594" y="733" type="curve" smooth="yes"/>
      <point x="741" y="856"/>
      <point x="836" y="940"/>
      <point x="836" y="1124" type="curve" smooth="yes"/>
      <point x="836" y="1346"/>
      <point x="688" y="1483"/>
      <point x="428" y="1483" type="curve" smooth="yes"/>
      <point x="264" y="1483"/>
      <point x="133" y="1440"/>
      <point x="25" y="1382" type="curve"/>
      <point x="88" y="1239" type="line"/>
      <point x="182" y="1284"/>
      <point x="281" y="1325"/>
      <point x="416" y="1325" type="curve" smooth="yes"/>
      <point x="575" y="1325"/>
      <point x="664" y="1251"/>
      <point x="664" y="1120" type="curve" smooth="yes"/>
      <point x="664" y="997"/>
      <point x="616" y="948"/>
      <point x="459" y="815" type="curve" smooth="yes"/>
      <point x="326" y="702"/>
      <point x="287" y="621"/>
      <point x="287" y="467" type="curve" smooth="yes"/>
    </contour>
    <contour>
      <point x="240" y="111" type="curve" smooth="yes"/>
      <point x="240" y="12"/>
      <point x="293" y="-29"/>
      <point x="367" y="-29" type="curve" smooth="yes"/>
      <point x="434" y="-29"/>
      <point x="492" y="12"/>
      <point x="492" y="111" type="curve" smooth="yes"/>
      <point x="492" y="211"/>
      <point x="434" y="248"/>
      <point x="367" y="248" type="curve" smooth="yes"/>
      <point x="293" y="248"/>
      <point x="240" y="211"/>
    </contour>
  </outline>
</glyph>
<glyph name="C" format="2">
  <advance width="1294"/>
  <unicode hex="0043"/>
  <anchor x="762" y="0" name="bottom"/>
  <anchor x="778" y="1462" name="top"/>
  <anchor x="1253" y="1462" name="topright"/>
  <outline>
    <contour>
      <point x="825" y="1321" type="curve" smooth="yes"/>
      <point x="956" y="1321"/>
      <point x="1067" y="1282"/>
      <point x="1157" y="1241" type="curve"/>
      <point x="1231" y="1397" type="line"/>
      <point x="1120" y="1452"/>
      <point x="977" y="1483"/>
      <point x="827" y="1483" type="curve" smooth="yes"/>
      <point x="375" y="1483"/>
      <point x="125" y="1176"/>
      <point x="125" y="733" type="curve" smooth="yes"/>
      <point x="125" y="272"/>
      <point x="348" y="-20"/>
      <point x="797" y="-20" type="curve" smooth="yes"/>
      <point x="958" y="-20"/>
      <point x="1065" y="-2"/>
      <point x="1174" y="39" type="curve"/>
      <point x="1174" y="199" type="line"/>
      <point x="1063" y="166"/>
      <point x="950" y="141"/>
      <point x="823" y="141" type="curve" smooth="yes"/>
      <point x="487" y="141"/>
      <point x="319" y="369"/>
      <point x="319" y="731" type="curve" smooth="yes"/>
      <point x="319" y="1098"/>
      <point x="512" y="1321"/>
    </contour>
  </outline>
</glyph>
<glyph name="E" format="2">
  <advance width="1139"/>
  <unicode hex="0045"/>
  <anchor x="614" y="0" name="bottom"/>
  <anchor x="625" y="1462" name="top"/>
  <anchor x="1098" y="1462" name="topright"/>
  <outline>
    <contour>
      <point x="1016" y="0" type="line"/>
      <point x="1016" y="162" type="line"/>
      <point x="383" y="162" type="line"/>
      <point x="383" y="684" type="line"/>
      <point x="979" y="684" type="line"/>
      <point x="979" y="844" type="line"/>
      <point x="383" y="844" type="line"/>
      <point x="383" y="1300" type="line"/>
      <point x="1016" y="1300" type="line"/>
      <point x="1016" y="1462" type="line"/>
      <point x="199" y="1462" type="line"/>
      <point x="199" y="0" type="line"/>
    </contour>
  </outline>
</glyph>
<glyph name="H" format="2">
  <advance width="1518"/>
  <unicode hex="0048"/>
  <anchor x="754" y="0" name="bottom"/>
  <anchor x="760" y="731" name="center"/>
  <anchor x="760" y="1462" name="top"/>
  <anchor x="1477" y="1462" name="topright"/>
  <outline>
    <contour>
      <point x="1317" y="0" type="line"/>
      <point x="1317" y="1462" type="line"/>
      <point x="1133" y="1462" type="line"/>
      <point x="1133" y="844" type="line"/>
      <point x="383" y="844" type="line"/>
      <point x="383" y="1462" type="line"/>
      <point x="199" y="1462" type="line"/>
      <point x="199" y="0" type="line"/>
      <point x="383" y="0" type="line"/>
      <point x="383" y="682" type="line"/>
      <point x="1133" y="682" type="line"/>
      <point x="1133" y="0" type="line"/>
    </contour>
  </outline>
</glyph>
<glyph name="I" format="2">
  <advance width="584"/>
  <unicode hex="0049"/>
  <anchor x="293" y="0" name="bottom"/>
  <anchor x="293" y="1462" name="top"/>
  <anchor x="449" y="1462" name="topright"/>
  <outline>
    <contour>
      <point x="199" y="0" type="line"/>
      <point x="383" y="0" type="line"/>
      <point x="383" y="1462" type="line"/>
      <point x="199" y="1462" type="line"/>
    </contour>
  </outline>
</glyph>
<glyph name="J" format="2">
  <advance width="559"/>
  <unicode hex="004A"/>
  <anchor x="-8" y="-348" name="bottom"/>
  <anchor x="281" y="1462" name="top"/>
  <anchor x="518" y="1462" name="topright"/>
  <outline>
    <contour>
      <point x="-8" y="-389" type="curve" smooth="yes"/>
      <point x="221" y="-389"/>
      <point x="373" y="-260"/>
      <point x="373" y="23" type="curve" smooth="yes"/>
      <point x="373" y="1462" type="line"/>
      <point x="188" y="1462" type="line"/>
      <point x="188" y="8" type="line" smooth="yes"/>
      <point x="188" y="-178"/>
      <point x="90" y="-227"/>
      <point x="-12" y="-227" type="curve" smooth="yes"/>
      <point x="-68" y="-227"/>
      <point x="-117" y="-219"/>
      <point x="-160" y="-207" type="curve"/>
      <point x="-160" y="-362" type="line"/>
      <point x="-123" y="-379"/>
      <point x="-74" y="-389"/>
    </contour>
  </outline>
</glyph>
<glyph name="K" format="2">
  <advance width="1268"/>
  <unicode hex="004B"/>
  <anchor x="676" y="0" name="bottom"/>
  <anchor x="696" y="1462" name="top"/>
  <anchor x="1227" y="1462" name="topright"/>
  <outline>
    <contour>
      <point x="1268" y="0" type="line"/>
      <point x="666" y="825" type="line"/>
      <point x="1245" y="1462" type="line"/>
      <point x="1030" y="1462" type="line"/>
      <point x="635" y="1020" type="line" smooth="yes"/>
      <point x="551" y="926"/>
      <point x="465" y="834"/>
      <point x="383" y="741" type="curve"/>
      <point x="383" y="1462" type="line"/>
      <point x="199" y="1462" type="line"/>
      <point x="199" y="0" type="line"/>
      <point x="383" y="0" type="line"/>
      <point x="383" y="567" type="line"/>
      <point x="532" y="698" type="line"/>
      <point x="1051" y="0" type="line"/>
    </contour>
  </outline>
</glyph>
<glyph name="L" format="2">
  <advance width="1073"/>
  <unicode hex="004C"/>
  <anchor x="614" y="0" name="bottom"/>
  <anchor x="537" y="731" name="center"/>
  <anchor x="287" y="1462" name="top"/>
  <anchor x="745" y="1462" name="topright"/>
  <outline>
    <contour>
      <point x="199" y="0" type="line"/>
      <point x="1022" y="0" type="line"/>
      <point x="1022" y="164" type="line"/>
      <point x="383" y="164" type="line"/>
      <point x="383" y="1462" type="line"/>
      <point x="199" y="1462" type="line"/>
    </contour>
  </outline>
</glyph>
<glyph name="M" format="2">
  <advance width="1858"/>
  <unicode hex="004D"/>
  <anchor x="918" y="0" name="bottom"/>
  <anchor x="930" y="1462" name="top"/>
  <anchor x="1817" y="1462" name="topright"/>
  <outline>
    <contour>
      <point x="844" y="0" type="line"/>
      <point x="995" y="0" type="line"/>
      <point x="1483" y="1280" type="line"/>
      <point x="1491" y="1280" type="line"/>
      <point x="1485" y="1192"/>
      <point x="1477" y="1040"/>
      <point x="1477" y="899" type="curve" smooth="yes"/>
      <point x="1477" y="0" type="line"/>
      <point x="1659" y="0" type="line"/>
      <point x="1659" y="1462" type="line"/>
      <point x="1389" y="1462" type="line"/>
      <point x="930" y="264" type="line"/>
      <point x="922" y="264" type="line"/>
      <point x="471" y="1462" type="line"/>
      <point x="199" y="1462" type="line"/>
      <point x="199" y="0" type="line"/>
      <point x="369" y="0" type="line"/>
      <point x="369" y="887" type="line" smooth="yes"/>
      <point x="369" y="1042"/>
      <point x="362" y="1198"/>
      <point x="354" y="1282" type="curve"/>
      <point x="362" y="1282" type="line"/>
    </contour>
  </outline>
</glyph>
<glyph name="N" format="2">
  <advance width="1556"/>
  <unicode hex="004E"/>
  <anchor x="778" y="0" name="bottom"/>
  <anchor x="778" y="1462" name="top"/>
  <anchor x="1516" y="1462" name="topright"/>
  <outline>
    <contour>
      <point x="1358" y="0" type="line"/>
      <point x="1358" y="1462" type="line"/>
      <point x="1186" y="1462" type="line"/>
      <point x="1186" y="637" type="line" smooth="yes"/>
      <point x="1186" y="504"/>
      <point x="1196" y="317"/>
      <point x="1200" y="252" type="curve"/>
      <point x="1192" y="252" type="line"/>
      <point x="412" y="1462" type="line"/>
      <point x="199" y="1462" type="line"/>
      <point x="199" y="0" type="line"/>
      <point x="369" y="0" type="line"/>
      <point x="369" y="817" type="line" smooth="yes"/>
      <point x="369" y="967"/>
      <point x="358" y="1118"/>
      <point x="352" y="1214" type="curve"/>
      <point x="360" y="1214" type="line"/>
      <point x="1143" y="0" type="line"/>
    </contour>
  </outline>
</glyph>
<glyph name="O" format="2">
  <advance width="1599"/>
  <unicode hex="004F"/>
  <anchor x="803" y="0" name="bottom"/>
  <anchor x="801" y="731" name="center"/>
  <anchor x="801" y="1462" name="top"/>
  <anchor x="1559" y="1462" name="topright"/>
  <outline>
    <contour>
      <point x="1475" y="733" type="curve" smooth="yes"/>
      <point x="1475" y="1188"/>
      <point x="1241" y="1485"/>
      <point x="803" y="1485" type="curve" smooth="yes"/>
      <point x="344" y="1485"/>
      <point x="125" y="1184"/>
      <point x="125" y="735" type="curve" smooth="yes"/>
      <point x="125" y="283"/>
      <point x="344" y="-20"/>
      <point x="801" y="-20" type="curve" smooth="yes"/>
      <point x="1241" y="-20"/>
      <point x="1475" y="281"/>
    </contour>
    <contour>
      <point x="319" y="733" type="curve" smooth="yes"/>
      <point x="319" y="1102"/>
      <point x="471" y="1323"/>
      <point x="803" y="1323" type="curve" smooth="yes"/>
      <point x="1133" y="1323"/>
      <point x="1280" y="1102"/>
      <point x="1280" y="733" type="curve" smooth="yes"/>
      <point x="1280" y="365"/>
      <point x="1133" y="139"/>
      <point x="801" y="139" type="curve" smooth="yes"/>
      <point x="471" y="139"/>
      <point x="319" y="365"/>
    </contour>
  </outline>
</glyph>
<glyph name="P" format="2">
  <advance width="1239"/>
  <unicode hex="0050"/>
  <anchor x="621" y="0" name="bottom"/>
  <anchor x="649" y="1462" name="top"/>
  <anchor x="1198" y="1462" name="topright"/>
  <outline>
    <contour>
      <point x="586" y="1462" type="curve" smooth="yes"/>
      <point x="199" y="1462" type="line"/>
      <point x="199" y="0" type="line"/>
      <point x="383" y="0" type="line"/>
      <point x="383" y="569" type="line"/>
      <point x="551" y="569" type="line" smooth="yes"/>
      <point x="989" y="569"/>
      <point x="1135" y="791"/>
      <point x="1135" y="1032" type="curve" smooth="yes"/>
      <point x="1135" y="1305"/>
      <point x="969" y="1462"/>
    </contour>
    <contour>
      <point x="569" y="1305" type="line" smooth="yes"/>
      <point x="827" y="1305"/>
      <point x="944" y="1212"/>
      <point x="944" y="1024" type="curve" smooth="yes"/>
      <point x="944" y="809"/>
      <point x="809" y="727"/>
      <point x="530" y="727" type="curve" smooth="yes"/>
      <point x="383" y="727" type="line"/>
      <point x="383" y="1305" type="line"/>
    </contour>
  </outline>
</glyph>
<glyph name="T" format="2">
  <advance width="1139"/>
  <unicode hex="0054"/>
  <anchor x="569" y="0" name="bottom"/>
  <anchor x="569" y="731" name="center"/>
  <anchor x="569" y="1462" name="top"/>
  <anchor x="1098" y="1462" name="topright"/>
  <outline>
    <contour>
      <point x="662" y="0" type="line"/>
      <point x="662" y="1300" type="line"/>
      <point x="1116" y="1300" type="line"/>
      <point x="1116" y="1462" type="line"/>
      <point x="20" y="1462" type="line"/>
      <point x="20" y="1300" type="line"/>
      <point x="477" y="1300" type="line"/>
      <point x="477" y="0" type="line"/>
    </contour>
  </outline>
</glyph>
<glyph name="U" format="2">
  <advance width="1497"/>
  <unicode hex="0055"/>
  <anchor x="745" y="0" name="bottom"/>
  <anchor x="750" y="1462" name="top"/>
  <anchor x="1456" y="1462" name="topright"/>
  <outline>
    <contour>
      <point x="1311" y="1462" type="line"/>
      <point x="1128" y="1462" type="line"/>
      <point x="1128" y="516" type="line" smooth="yes"/>
      <point x="1128" y="295"/>
      <point x="1016" y="139"/>
      <point x="752" y="139" type="curve" smooth="yes"/>
      <point x="496" y="139"/>
      <point x="369" y="276"/>
      <point x="369" y="514" type="curve" smooth="yes"/>
      <point x="369" y="1462" type="line"/>
      <point x="184" y="1462" type="line"/>
      <point x="184" y="520" type="line" smooth="yes"/>
      <point x="184" y="195"/>
      <point x="377" y="-20"/>
      <point x="741" y="-20" type="curve" smooth="yes"/>
      <point x="1128" y="-20"/>
      <point x="1311" y="213"/>
      <point x="1311" y="516" type="curve" smooth="yes"/>
    </contour>
  </outline>
</glyph>
<glyph name="V" format="2">
  <advance width="1229"/>
  <unicode hex="0056"/>
  <anchor x="612" y="0" name="bottom"/>
  <anchor x="621" y="1462" name="top"/>
  <anchor x="1188" y="1462" name="topright"/>
  <outline>
    <contour>
      <point x="1229" y="1462" type="line"/>
      <point x="1034" y="1462" type="line"/>
      <point x="707" y="528" type="line" smooth="yes"/>
      <point x="664" y="406"/>
      <point x="633" y="301"/>
      <point x="614" y="205" type="curve"/>
      <point x="594" y="301"/>
      <point x="565" y="403"/>
      <point x="522" y="524" type="curve" smooth="yes"/>
      <point x="193" y="1462" type="line"/>
      <point x="0" y="1462" type="line"/>
      <point x="522" y="0" type="line"/>
      <point x="707" y="0" type="line"/>
    </contour>
  </outline>
</glyph>
<glyph name="Z" format="2">
  <advance width="1171"/>
  <unicode hex="005A"/>
  <anchor x="608" y="0" name="bottom"/>
  <anchor x="594" y="1462" name="top"/>
  <anchor x="1130" y="1462" name="topright"/>
  <outline>
    <contour>
      <point x="1092" y="0" type="line"/>
      <point x="1092" y="164" type="line"/>
      <point x="301" y="164" type="line"/>
      <point x="1071" y="1323" type="line"/>
      <point x="1071" y="1462" type="line"/>
      <point x="102" y="1462" type="line"/>
      <point x="102" y="1298" type="line"/>
      <point x="848" y="1298" type="line"/>
      <point x="78" y="139" type="line"/>
      <point x="78" y="0" type="line"/>
    </contour>
  </outline>
</glyph>
<glyph name="bracketleft" format="2">
  <advance width="674"/>
  <unicode hex="005B"/>
  <outline>
    <contour>
      <point x="623" y="-324" type="line"/>
      <point x="623" y="-176" type="line"/>
      <point x="340" y="-176" type="line"/>
      <point x="340" y="1315" type="line"/>
      <point x="623" y="1315" type="line"/>
      <point x="623" y="1462" type="line"/>
      <point x="164" y="1462" type="line"/>
      <point x="164" y="-324" type="line"/>
    </contour>
  </outline>
</glyph>
<glyph name="c" format="2">
  <advance width="983"/>
  <unicode hex="0063"/>
  <anchor x="575" y="0" name="bottom"/>
  <anchor x="582" y="1098" name="top"/>
  <anchor x="942" y="1098" name="topright"/>
  <outline>
    <contour>
      <point x="614" y="-20" type="curve" smooth="yes"/>
      <point x="739" y="-20"/>
      <point x="823" y="0"/>
      <point x="897" y="39" type="curve"/>
      <point x="897" y="199" type="line"/>
      <point x="821" y="164"/>
      <point x="731" y="135"/>
      <point x="612" y="135" type="curve" smooth="yes"/>
      <point x="406" y="135"/>
      <point x="299" y="281"/>
      <point x="299" y="545" type="curve" smooth="yes"/>
      <point x="299" y="819"/>
      <point x="403" y="961"/>
      <point x="623" y="961" type="curve" smooth="yes"/>
      <point x="698" y="961"/>
      <point x="795" y="934"/>
      <point x="860" y="909" type="curve"/>
      <point x="915" y="1059" type="line"/>
      <point x="850" y="1092"/>
      <point x="737" y="1118"/>
      <point x="627" y="1118" type="curve" smooth="yes"/>
      <point x="332" y="1118"/>
      <point x="113" y="948"/>
      <point x="113" y="543" type="curve" smooth="yes"/>
      <point x="113" y="154"/>
      <point x="322" y="-20"/>
    </contour>
  </outline>
</glyph>
<glyph name="g" format="2">
  <advance width="1122"/>
  <unicode hex="0067"/>
  <anchor x="549" y="-492" name="bottom"/>
  <anchor x="533" y="1098" name="top"/>
  <anchor x="1109" y="1098" name="topright"/>
  <outline>
    <contour>
      <point x="484" y="-492" type="curve"/>
      <point x="863" y="-492"/>
      <point x="1067" y="-358"/>
      <point x="1067" y="-112" type="curve" smooth="yes"/>
      <point x="1067" y="81"/>
      <point x="935" y="184"/>
      <point x="697" y="184" type="curve" smooth="yes"/>
      <point x="503" y="184" type="line" smooth="yes"/>
      <point x="400" y="184"/>
      <point x="339" y="204"/>
      <point x="339" y="268" type="curve" smooth="yes"/>
      <point x="339" y="322"/>
      <point x="373" y="365"/>
      <point x="434" y="398" type="curve"/>
      <point x="464" y="393"/>
      <point x="497" y="390"/>
      <point x="527" y="390" type="curve" smooth="yes"/>
      <point x="790" y="390"/>
      <point x="950" y="529"/>
      <point x="950" y="748" type="curve" smooth="yes"/>
      <point x="950" y="837"/>
      <point x="919" y="911"/>
      <point x="883" y="958" type="curve"/>
      <point x="1081" y="986" type="line"/>
      <point x="1081" y="1100" type="line"/>
      <point x="700" y="1100" type="line"/>
      <point x="658" y="1112"/>
      <point x="594" y="1120"/>
      <point x="538" y="1120" type="curve" smooth="yes"/>
      <point x="268" y="1120"/>
      <point x="116" y="984"/>
      <point x="116" y="744" type="curve" smooth="yes"/>
      <point x="116" y="598"/>
      <point x="194" y="478"/>
      <point x="307" y="431" type="curve"/>
      <point x="215" y="375"/>
      <point x="172" y="320"/>
      <point x="172" y="239" type="curve" smooth="yes"/>
      <point x="172" y="169"/>
      <point x="218" y="111"/>
      <point x="275" y="86" type="curve"/>
      <point x="121" y="51"/>
      <point x="30" y="-50"/>
      <point x="30" y="-185" type="curve" smooth="yes"/>
      <point x="30" y="-380"/>
      <point x="193" y="-492"/>
    </contour>
    <contour>
      <point x="488" y="-352" type="curve"/>
      <point x="310" y="-352"/>
      <point x="209" y="-292"/>
      <point x="209" y="-179" type="curve" smooth="yes"/>
      <point x="209" y="-53"/>
      <point x="297" y="18"/>
      <point x="440" y="18" type="curve" smooth="yes"/>
      <point x="632" y="18" type="line" smooth="yes"/>
      <point x="799" y="18"/>
      <point x="887" y="-5"/>
      <point x="887" y="-132" type="curve" smooth="yes"/>
      <point x="887" y="-267"/>
      <point x="756" y="-352"/>
    </contour>
    <contour>
      <point x="534" y="520" type="curve"/>
      <point x="387" y="520"/>
      <point x="303" y="599"/>
      <point x="303" y="746" type="curve" smooth="yes"/>
      <point x="303" y="906"/>
      <point x="384" y="988"/>
      <point x="532" y="988" type="curve" smooth="yes"/>
      <point x="686" y="988"/>
      <point x="764" y="908"/>
      <point x="764" y="749" type="curve" smooth="yes"/>
      <point x="764" y="598"/>
      <point x="688" y="520"/>
    </contour>
  </outline>
</glyph>
<glyph name="k" format="2">
  <advance width="1094"/>
  <unicode hex="006B"/>
  <anchor x="547" y="0" name="bottom"/>
  <anchor x="264" y="1556" name="top"/>
  <anchor x="1083" y="1556" name="topright"/>
  <outline>
    <contour>
      <point x="352" y="1556" type="line"/>
      <point x="174" y="1556" type="line"/>
      <point x="174" y="0" type="line"/>
      <point x="352" y="0" type="line"/>
      <point x="352" y="403" type="line"/>
      <point x="477" y="512" type="line"/>
      <point x="858" y="0" type="line"/>
      <point x="1075" y="0" type="line"/>
      <point x="600" y="629" type="line"/>
      <point x="1044" y="1098" type="line"/>
      <point x="834" y="1098" type="line"/>
      <point x="483" y="727" type="line" smooth="yes"/>
      <point x="446" y="686"/>
      <point x="377" y="598"/>
      <point x="352" y="565" type="curve"/>
      <point x="344" y="565" type="line"/>
      <point x="346" y="616"/>
      <point x="352" y="700"/>
      <point x="352" y="743" type="curve" smooth="yes"/>
    </contour>
  </outline>
</glyph>
<glyph name="p" format="2">
  <advance width="1260"/>
  <unicode hex="0070"/>
  <anchor x="264" y="-492" name="bottom"/>
  <anchor x="680" y="1098" name="top"/>
  <anchor x="1198" y="1098" name="topright"/>
  <outline>
    <contour>
      <point x="696" y="1118" type="curve" smooth="yes"/>
      <point x="518" y="1118"/>
      <point x="420" y="1042"/>
      <point x="354" y="948" type="curve"/>
      <point x="346" y="948" type="line"/>
      <point x="322" y="1098" type="line"/>
      <point x="174" y="1098" type="line"/>
      <point x="174" y="-492" type="line"/>
      <point x="354" y="-492" type="line"/>
      <point x="354" y="-41" type="line" smooth="yes"/>
      <point x="354" y="10"/>
      <point x="346" y="92"/>
      <point x="342" y="139" type="curve"/>
      <point x="354" y="139" type="line"/>
      <point x="418" y="53"/>
      <point x="524" y="-20"/>
      <point x="694" y="-20" type="curve" smooth="yes"/>
      <point x="967" y="-20"/>
      <point x="1147" y="176"/>
      <point x="1147" y="551" type="curve" smooth="yes"/>
      <point x="1147" y="930"/>
      <point x="967" y="1118"/>
    </contour>
    <contour>
      <point x="664" y="967" type="curve" smooth="yes"/>
      <point x="866" y="967"/>
      <point x="961" y="803"/>
      <point x="961" y="553" type="curve" smooth="yes"/>
      <point x="961" y="307"/>
      <point x="866" y="129"/>
      <point x="668" y="129" type="curve" smooth="yes"/>
      <point x="428" y="129"/>
      <point x="354" y="281"/>
      <point x="354" y="551" type="curve" smooth="yes"/>
      <point x="354" y="586" type="line" smooth="yes"/>
      <point x="358" y="842"/>
      <point x="440" y="967"/>
    </contour>
  </outline>
</glyph>
<glyph name="r" format="2">
  <advance width="846"/>
  <unicode hex="0072"/>
  <anchor x="258" y="0" name="bottom"/>
  <anchor x="492" y="1098" name="top"/>
  <anchor x="805" y="1098" name="topright"/>
  <outline>
    <contour>
      <point x="686" y="1118" type="curve" smooth="yes"/>
      <point x="532" y="1118"/>
      <point x="420" y="1018"/>
      <point x="350" y="897" type="curve"/>
      <point x="342" y="897" type="line"/>
      <point x="322" y="1098" type="line"/>
      <point x="174" y="1098" type="line"/>
      <point x="174" y="0" type="line"/>
      <point x="354" y="0" type="line"/>
      <point x="354" y="586" type="line" smooth="yes"/>
      <point x="354" y="807"/>
      <point x="504" y="954"/>
      <point x="674" y="954" type="curve" smooth="yes"/>
      <point x="711" y="954"/>
      <point x="758" y="948"/>
      <point x="793" y="940" type="curve"/>
      <point x="815" y="1106" type="line"/>
      <point x="778" y="1114"/>
      <point x="727" y="1118"/>
    </contour>
  </outline>
</glyph>
<glyph name="t" format="2">
  <advance width="739"/>
  <unicode hex="0074"/>
  <anchor x="438" y="0" name="bottom"/>
  <anchor x="371" y="549" name="center"/>
  <anchor x="315" y="1350" name="top"/>
  <anchor x="686" y="1350" name="topright"/>
  <outline>
    <contour>
      <point x="541" y="127" type="curve" smooth="yes"/>
      <point x="440" y="127"/>
      <point x="369" y="190"/>
      <point x="369" y="324" type="curve" smooth="yes"/>
      <point x="369" y="958" type="line"/>
      <point x="686" y="958" type="line"/>
      <point x="686" y="1098" type="line"/>
      <point x="369" y="1098" type="line"/>
      <point x="369" y="1350" type="line"/>
      <point x="262" y="1350" type="line"/>
      <point x="190" y="1116" type="line"/>
      <point x="33" y="1044" type="line"/>
      <point x="33" y="958" type="line"/>
      <point x="188" y="958" type="line"/>
      <point x="188" y="319" type="line" smooth="yes"/>
      <point x="188" y="53"/>
      <point x="338" y="-20"/>
      <point x="510" y="-20" type="curve" smooth="yes"/>
      <point x="575" y="-20"/>
      <point x="655" y="-6"/>
      <point x="694" y="12" type="curve"/>
      <point x="694" y="150" type="line"/>
      <point x="659" y="137"/>
      <point x="594" y="127"/>
    </contour>
  </outline>
</glyph>
<glyph name="x" format="2">
  <advance width="1083"/>
  <unicode hex="0078"/>
  <anchor x="543" y="0" name="bottom"/>
  <anchor x="539" y="1098" name="top"/>
  <anchor x="1042" y="1098" name="topright"/>
  <outline>
    <contour>
      <point x="434" y="561" type="line"/>
      <point x="37" y="0" type="line"/>
      <point x="240" y="0" type="line"/>
      <point x="543" y="438" type="line"/>
      <point x="842" y="0" type="line"/>
      <point x="1047" y="0" type="line"/>
      <point x="647" y="561" type="line"/>
      <point x="1026" y="1098" type="line"/>
      <point x="823" y="1098" type="line"/>
      <point x="543" y="684" type="line"/>
      <point x="260" y="1098" type="line"/>
      <point x="55" y="1098" type="line"/>
    </contour>
  </outline>
</glyph>
<glyph name="z" format="2">
  <advance width="963"/>
  <unicode hex="007A"/>
  <anchor x="496" y="0" name="bottom"/>
  <anchor x="481" y="1098" name="top"/>
  <anchor x="881" y="1098" name="topright"/>
  <outline>
    <contour>
      <point x="883" y="0" type="line"/>
      <point x="883" y="139" type="line"/>
      <point x="287" y="139" type="line"/>
      <point x="868" y="963" type="line"/>
      <point x="868" y="1098" type="line"/>
      <point x="115" y="1098" type="line"/>
      <point x="115" y="958" type="line"/>
      <point x="670" y="958" type="line"/>
      <point x="80" y="119" type="line"/>
      <point x="80" y="0" type="line"/>
    </contour>
  </outline>
</glyph>
<glyph name="braceleft" format="2">
  <advance width="778"/>
  <unicode hex="007B"/>
  <outline>
    <contour>
      <point x="713" y="-324" type="curve"/>
      <point x="713" y="-176" type="line"/>
      <point x="567" y="-174"/>
      <point x="485" y="-119"/>
      <point x="485" y="14" type="curve" smooth="yes"/>
      <point x="485" y="315" type="line" smooth="yes"/>
      <point x="485" y="455"/>
      <point x="414" y="539"/>
      <point x="262" y="565" type="curve"/>
      <point x="262" y="578" type="line"/>
      <point x="412" y="604"/>
      <point x="485" y="688"/>
      <point x="485" y="827" type="curve" smooth="yes"/>
      <point x="485" y="1122" type="line" smooth="yes"/>
      <point x="485" y="1255"/>
      <point x="571" y="1311"/>
      <point x="713" y="1315" type="curve"/>
      <point x="713" y="1462" type="line"/>
      <point x="473" y="1462"/>
      <point x="307" y="1356"/>
      <point x="307" y="1139" type="curve" smooth="yes"/>
      <point x="307" y="836" type="line" smooth="yes"/>
      <point x="307" y="698"/>
      <point x="219" y="647"/>
      <point x="57" y="645" type="curve"/>
      <point x="57" y="496" type="line"/>
      <point x="219" y="496"/>
      <point x="307" y="442"/>
      <point x="307" y="303" type="curve" smooth="yes"/>
      <point x="307" y="2" type="line" smooth="yes"/>
      <point x="307" y="-217"/>
      <point x="461" y="-322"/>
    </contour>
  </outline>
</glyph>
<glyph name="asciitilde" format="2">
  <advance width="1171"/>
  <unicode hex="007E"/>
  <outline>
    <contour>
      <point x="551" y="653" type="curve" smooth="yes"/>
      <point x="674" y="600"/>
      <point x="743" y="588"/>
      <point x="821" y="588" type="curve" smooth="yes"/>
      <point x="920" y="588"/>
      <point x="1001" y="627"/>
      <point x="1067" y="698" type="curve"/>
      <point x="1067" y="856" type="line"/>
      <point x="1001" y="788"/>
      <point x="911" y="735"/>
      <point x="831" y="735" type="curve" smooth="yes"/>
      <point x="774" y="735"/>
      <point x="717" y="748"/>
      <point x="618" y="791" type="curve" smooth="yes"/>
      <point x="494" y="844"/>
      <point x="426" y="856"/>
      <point x="348" y="856" type="curve" smooth="yes"/>
      <point x="250" y="856"/>
      <point x="168" y="819"/>
      <point x="102" y="748" type="curve"/>
      <point x="102" y="588" type="line"/>
      <point x="168" y="655"/>
      <point x="260" y="709"/>
      <point x="336" y="709" type="curve" smooth="yes"/>
      <point x="395" y="709"/>
      <point x="453" y="696"/>
    </contour>
  </outline>
</glyph>
<glyph name="cent" format="2">
  <advance width="1171"/>
  <unicode hex="00A2"/>
  <outline>
    <contour>
      <point x="723" y="1483" type="line"/>
      <point x="584" y="1483" type="line"/>
      <point x="584" y="1311" type="line"/>
      <point x="344" y="1274"/>
      <point x="186" y="1114"/>
      <point x="186" y="741" type="curve" smooth="yes"/>
      <point x="186" y="375"/>
      <point x="342" y="221"/>
      <point x="584" y="184" type="curve"/>
      <point x="584" y="-20" type="line"/>
      <point x="721" y="-20" type="line"/>
      <point x="721" y="178" type="line"/>
      <point x="827" y="182"/>
      <point x="901" y="203"/>
      <point x="975" y="240" type="curve"/>
      <point x="975" y="397" type="line"/>
      <point x="891" y="362"/>
      <point x="807" y="336"/>
      <point x="688" y="336" type="curve" smooth="yes"/>
      <point x="479" y="336"/>
      <point x="371" y="459"/>
      <point x="371" y="743" type="curve" smooth="yes"/>
      <point x="371" y="1026"/>
      <point x="473" y="1163"/>
      <point x="696" y="1163" type="curve" smooth="yes"/>
      <point x="770" y="1163"/>
      <point x="868" y="1137"/>
      <point x="940" y="1110" type="curve"/>
      <point x="993" y="1260" type="line"/>
      <point x="926" y="1290"/>
      <point x="825" y="1315"/>
      <point x="723" y="1319" type="curve"/>
    </contour>
  </outline>
</glyph>
<glyph name="brokenbar" format="2">
  <advance width="1128"/>
  <unicode hex="00A6"/>
  <outline>
    <contour>
      <point x="489" y="1556" type="line"/>
      <point x="489" y="776" type="line"/>
      <point x="639" y="776" type="line"/>
      <point x="639" y="1556" type="line"/>
    </contour>
    <contour>
      <point x="489" y="287" type="line"/>
      <point x="489" y="-494" type="line"/>
      <point x="639" y="-494" type="line"/>
      <point x="639" y="287" type="line"/>
    </contour>
  </outline>
</glyph>
<glyph name="section" format="2">
  <advance width="1051"/>
  <unicode hex="00A7"/>
  <outline>
    <contour>
      <point x="137" y="809" type="curve" smooth="yes"/>
      <point x="137" y="629"/>
      <point x="262" y="553"/>
      <point x="477" y="473" type="curve" smooth="yes"/>
      <point x="700" y="389"/>
      <point x="741" y="348"/>
      <point x="741" y="272" type="curve" smooth="yes"/>
      <point x="741" y="195"/>
      <point x="678" y="127"/>
      <point x="475" y="127" type="curve" smooth="yes"/>
      <point x="346" y="127"/>
      <point x="209" y="170"/>
      <point x="121" y="211" type="curve"/>
      <point x="121" y="57" type="line"/>
      <point x="207" y="14"/>
      <point x="315" y="-10"/>
      <point x="467" y="-10" type="curve" smooth="yes"/>
      <point x="748" y="-10"/>
      <point x="913" y="98"/>
      <point x="913" y="287" type="curve" smooth="yes"/>
      <point x="913" y="391"/>
      <point x="858" y="461"/>
      <point x="762" y="512" type="curve"/>
      <point x="842" y="559"/>
      <point x="915" y="645"/>
      <point x="915" y="784" type="curve" smooth="yes"/>
      <point x="915" y="948"/>
      <point x="793" y="1034"/>
      <point x="582" y="1112" type="curve" smooth="yes"/>
      <point x="373" y="1188"/>
      <point x="311" y="1231"/>
      <point x="311" y="1307" type="curve" smooth="yes"/>
      <point x="311" y="1382"/>
      <point x="371" y="1427"/>
      <point x="535" y="1427" type="curve" smooth="yes"/>
      <point x="666" y="1427"/>
      <point x="748" y="1397"/>
      <point x="842" y="1360" type="curve"/>
      <point x="897" y="1497" type="line"/>
      <point x="795" y="1538"/>
      <point x="700" y="1567"/>
      <point x="547" y="1567" type="curve" smooth="yes"/>
      <point x="287" y="1567"/>
      <point x="143" y="1466"/>
      <point x="143" y="1303" type="curve" smooth="yes"/>
      <point x="143" y="1192"/>
      <point x="201" y="1120"/>
      <point x="299" y="1067" type="curve"/>
      <point x="215" y="1026"/>
      <point x="137" y="944"/>
    </contour>
    <contour>
      <point x="291" y="829" type="curve" smooth="yes"/>
      <point x="291" y="920"/>
      <point x="362" y="985"/>
      <point x="438" y="1006" type="curve"/>
      <point x="690" y="926"/>
      <point x="760" y="860"/>
      <point x="760" y="758" type="curve" smooth="yes"/>
      <point x="760" y="666"/>
      <point x="692" y="608"/>
      <point x="629" y="571" type="curve"/>
      <point x="584" y="588" type="line" smooth="yes"/>
      <point x="365" y="670"/>
      <point x="291" y="729"/>
    </contour>
  </outline>
</glyph>
<glyph name="dieresis" format="2">
  <advance width="1188"/>
  <unicode hex="00A8"/>
  <outline>
    <contour>
      <point x="305" y="1395" type="curve" smooth="yes"/>
      <point x="305" y="1325"/>
      <point x="348" y="1292"/>
      <point x="401" y="1292" type="curve" smooth="yes"/>
      <point x="453" y="1292"/>
      <point x="498" y="1325"/>
      <point x="498" y="1395" type="curve" smooth="yes"/>
      <point x="498" y="1466"/>
      <point x="453" y="1495"/>
      <point x="401" y="1495" type="curve" smooth="yes"/>
      <point x="348" y="1495"/>
      <point x="305" y="1466"/>
    </contour>
    <contour>
      <point x="690" y="1395" type="curve" smooth="yes"/>
      <point x="690" y="1325"/>
      <point x="733" y="1292"/>
      <point x="784" y="1292" type="curve" smooth="yes"/>
      <point x="836" y="1292"/>
      <point x="881" y="1325"/>
      <point x="881" y="1395" type="curve" smooth="yes"/>
      <point x="881" y="1466"/>
      <point x="836" y="1495"/>
      <point x="784" y="1495" type="curve" smooth="yes"/>
      <point x="733" y="1495"/>
      <point x="690" y="1466"/>
    </contour>
  </outline>
</glyph>
<glyph name="copyright" format="2">
  <advance width="1704"/>
  <unicode hex="00A9"/>
  <outline>
    <contour>
      <point x="852" y="-20" type="curve" smooth="yes"/>
      <point x="1288" y="-20"/>
      <point x="1604" y="295"/>
      <point x="1604" y="731" type="curve" smooth="yes"/>
      <point x="1604" y="1167"/>
      <point x="1268" y="1483"/>
      <point x="852" y="1483" type="curve" smooth="yes"/>
      <point x="416" y="1483"/>
      <point x="100" y="1167"/>
      <point x="100" y="731" type="curve" smooth="yes"/>
      <point x="100" y="295"/>
      <point x="416" y="-20"/>
    </contour>
    <contour>
      <point x="883" y="272" type="curve" smooth="yes"/>
      <point x="979" y="272"/>
      <point x="1040" y="293"/>
      <point x="1106" y="322" type="curve"/>
      <point x="1106" y="453" type="line"/>
      <point x="1038" y="426"/>
      <point x="954" y="406"/>
      <point x="891" y="406" type="curve" smooth="yes"/>
      <point x="711" y="406"/>
      <point x="639" y="522"/>
      <point x="639" y="731" type="curve" smooth="yes"/>
      <point x="639" y="932"/>
      <point x="731" y="1055"/>
      <point x="893" y="1055" type="curve" smooth="yes"/>
      <point x="950" y="1055"/>
      <point x="1016" y="1036"/>
      <point x="1083" y="1001" type="curve"/>
      <point x="1143" y="1126" type="line"/>
      <point x="1067" y="1165"/>
      <point x="975" y="1188"/>
      <point x="891" y="1188" type="curve" smooth="yes"/>
      <point x="625" y="1188"/>
      <point x="479" y="997"/>
      <point x="479" y="731" type="curve" smooth="yes"/>
      <point x="479" y="455"/>
      <point x="612" y="272"/>
    </contour>
    <contour>
      <point x="852" y="88" type="curve" smooth="yes"/>
      <point x="481" y="88"/>
      <point x="215" y="377"/>
      <point x="215" y="731" type="curve" smooth="yes"/>
      <point x="215" y="1106"/>
      <point x="481" y="1374"/>
      <point x="852" y="1374" type="curve" smooth="yes"/>
      <point x="1223" y="1374"/>
      <point x="1487" y="1085"/>
      <point x="1487" y="731" type="curve" smooth="yes"/>
      <point x="1487" y="356"/>
      <point x="1202" y="88"/>
    </contour>
  </outline>
</glyph>
<glyph name="ordfeminine" format="2">
  <advance width="731"/>
  <unicode hex="00AA"/>
  <anchor x="352" y="786" name="bottom"/>
  <anchor x="352" y="1485" name="top"/>
  <outline>
    <contour>
      <point x="362" y="1479" type="curve" smooth="yes"/>
      <point x="268" y="1479"/>
      <point x="176" y="1454"/>
      <point x="106" y="1419" type="curve"/>
      <point x="152" y="1319" type="line"/>
      <point x="213" y="1350"/>
      <point x="283" y="1372"/>
      <point x="358" y="1372" type="curve" smooth="yes"/>
      <point x="438" y="1372"/>
      <point x="504" y="1341"/>
      <point x="504" y="1251" type="curve" smooth="yes"/>
      <point x="504" y="1206" type="line"/>
      <point x="389" y="1202" type="line" smooth="yes"/>
      <point x="170" y="1194"/>
      <point x="66" y="1124"/>
      <point x="66" y="987" type="curve" smooth="yes"/>
      <point x="66" y="850"/>
      <point x="147" y="784"/>
      <point x="276" y="784" type="curve" smooth="yes"/>
      <point x="379" y="784"/>
      <point x="455" y="825"/>
      <point x="510" y="883" type="curve"/>
      <point x="535" y="797" type="line"/>
      <point x="631" y="797" type="line"/>
      <point x="631" y="1247" type="line" smooth="yes"/>
      <point x="631" y="1409"/>
      <point x="539" y="1479"/>
    </contour>
    <contour>
      <point x="504" y="1114" type="line"/>
      <point x="504" y="1067" type="line" smooth="yes"/>
      <point x="504" y="958"/>
      <point x="446" y="889"/>
      <point x="307" y="889" type="curve" smooth="yes"/>
      <point x="240" y="889"/>
      <point x="197" y="918"/>
      <point x="197" y="987" type="curve" smooth="yes"/>
      <point x="197" y="1061"/>
      <point x="242" y="1104"/>
      <point x="406" y="1110" type="curve" smooth="yes"/>
    </contour>
  </outline>
</glyph>
<glyph name="guillemotleft" format="2">
  <advance width="1042"/>
  <unicode hex="00AB"/>
  <outline>
    <contour>
      <point x="82" y="553" type="line"/>
      <point x="82" y="526" type="line"/>
      <point x="426" y="115" type="line"/>
      <point x="555" y="190" type="line"/>
      <point x="268" y="541" type="line"/>
      <point x="555" y="891" type="line"/>
      <point x="426" y="965" type="line"/>
    </contour>
    <contour>
      <point x="487" y="553" type="line"/>
      <point x="487" y="526" type="line"/>
      <point x="836" y="115" type="line"/>
      <point x="963" y="190" type="line"/>
      <point x="676" y="541" type="line"/>
      <point x="963" y="891" type="line"/>
      <point x="836" y="965" type="line"/>
    </contour>
  </outline>
</glyph>
<glyph name="logicalnot" format="2">
  <advance width="1171"/>
  <unicode hex="00AC"/>
  <outline>
    <contour>
      <point x="1065" y="795" type="line"/>
      <point x="102" y="795" type="line"/>
      <point x="102" y="649" type="line"/>
      <point x="920" y="649" type="line"/>
      <point x="920" y="262" type="line"/>
      <point x="1065" y="262" type="line"/>
    </contour>
  </outline>
</glyph>
<glyph name="registered" format="2">
  <advance width="1704"/>
  <unicode hex="00AE"/>
  <outline>
    <contour>
      <point x="571" y="283" type="line"/>
      <point x="727" y="283" type="line"/>
      <point x="727" y="637" type="line"/>
      <point x="854" y="637" type="line"/>
      <point x="1059" y="283" type="line"/>
      <point x="1235" y="283" type="line"/>
      <point x="997" y="680" type="line"/>
      <point x="1079" y="713"/>
      <point x="1157" y="784"/>
      <point x="1157" y="913" type="curve" smooth="yes"/>
      <point x="1157" y="1090"/>
      <point x="1057" y="1178"/>
      <point x="834" y="1178" type="curve" smooth="yes"/>
      <point x="571" y="1178" type="line"/>
    </contour>
    <contour>
      <point x="727" y="764" type="line"/>
      <point x="727" y="1047" type="line"/>
      <point x="827" y="1047" type="line" smooth="yes"/>
      <point x="946" y="1047"/>
      <point x="999" y="1006"/>
      <point x="999" y="909" type="curve" smooth="yes"/>
      <point x="999" y="823"/>
      <point x="936" y="764"/>
      <point x="829" y="764" type="curve" smooth="yes"/>
    </contour>
    <contour>
      <point x="852" y="-20" type="curve" smooth="yes"/>
      <point x="1288" y="-20"/>
      <point x="1604" y="295"/>
      <point x="1604" y="731" type="curve" smooth="yes"/>
      <point x="1604" y="1167"/>
      <point x="1268" y="1483"/>
      <point x="852" y="1483" type="curve" smooth="yes"/>
      <point x="416" y="1483"/>
      <point x="100" y="1167"/>
      <point x="100" y="731" type="curve" smooth="yes"/>
      <point x="100" y="295"/>
      <point x="416" y="-20"/>
    </contour>
    <contour>
      <point x="852" y="88" type="curve" smooth="yes"/>
      <point x="481" y="88"/>
      <point x="215" y="377"/>
      <point x="215" y="731" type="curve" smooth="yes"/>
      <point x="215" y="1106"/>
      <point x="481" y="1374"/>
      <point x="852" y="1374" type="curve" smooth="yes"/>
      <point x="1223" y="1374"/>
      <point x="1487" y="1085"/>
      <point x="1487" y="731" type="curve" smooth="yes"/>
      <point x="1487" y="356"/>
      <point x="1202" y="88"/>
    </contour>
  </outline>
</glyph>
<glyph name="twosuperior" format="2">
  <advance width="717"/>
  <unicode hex="00B2"/>
  <outline>
    <contour>
      <point x="627" y="852" type="line"/>
      <point x="627" y="979" type="line"/>
      <point x="227" y="979" type="line"/>
      <point x="393" y="1137" type="line" smooth="yes"/>
      <point x="545" y="1280"/>
      <point x="629" y="1370"/>
      <point x="629" y="1505" type="curve" smooth="yes"/>
      <point x="629" y="1655"/>
      <point x="522" y="1747"/>
      <point x="348" y="1747" type="curve" smooth="yes"/>
      <point x="231" y="1747"/>
      <point x="139" y="1702"/>
      <point x="59" y="1634" type="curve"/>
      <point x="131" y="1540" type="line"/>
      <point x="201" y="1593"/>
      <point x="264" y="1628"/>
      <point x="346" y="1628" type="curve" smooth="yes"/>
      <point x="428" y="1628"/>
      <point x="483" y="1583"/>
      <point x="483" y="1497" type="curve" smooth="yes"/>
      <point x="483" y="1405"/>
      <point x="451" y="1352"/>
      <point x="285" y="1192" type="curve" smooth="yes"/>
      <point x="49" y="963" type="line"/>
      <point x="49" y="852" type="line"/>
    </contour>
  </outline>
</glyph>
<glyph name="threesuperior" format="2">
  <advance width="717"/>
  <unicode hex="00B3"/>
  <outline>
    <contour>
      <point x="338" y="1747" type="curve" smooth="yes"/>
      <point x="211" y="1747"/>
      <point x="123" y="1708"/>
      <point x="39" y="1647" type="curve"/>
      <point x="113" y="1552" type="line"/>
      <point x="186" y="1599"/>
      <point x="256" y="1630"/>
      <point x="340" y="1630" type="curve" smooth="yes"/>
      <point x="420" y="1630"/>
      <point x="483" y="1591"/>
      <point x="483" y="1505" type="curve" smooth="yes"/>
      <point x="483" y="1419"/>
      <point x="422" y="1362"/>
      <point x="285" y="1362" type="curve" smooth="yes"/>
      <point x="168" y="1362" type="line"/>
      <point x="168" y="1249" type="line"/>
      <point x="285" y="1249" type="line" smooth="yes"/>
      <point x="426" y="1249"/>
      <point x="510" y="1206"/>
      <point x="510" y="1108" type="curve" smooth="yes"/>
      <point x="510" y="1012"/>
      <point x="446" y="952"/>
      <point x="305" y="952" type="curve" smooth="yes"/>
      <point x="223" y="952"/>
      <point x="127" y="977"/>
      <point x="35" y="1022" type="curve"/>
      <point x="35" y="893" type="line"/>
      <point x="117" y="852"/>
      <point x="203" y="836"/>
      <point x="303" y="836" type="curve" smooth="yes"/>
      <point x="545" y="836"/>
      <point x="657" y="946"/>
      <point x="657" y="1104" type="curve" smooth="yes"/>
      <point x="657" y="1214"/>
      <point x="588" y="1286"/>
      <point x="481" y="1307" type="curve"/>
      <point x="481" y="1313" type="line"/>
      <point x="563" y="1339"/>
      <point x="631" y="1411"/>
      <point x="631" y="1522" type="curve" smooth="yes"/>
      <point x="631" y="1653"/>
      <point x="532" y="1747"/>
    </contour>
  </outline>
</glyph>
<glyph name="ordmasculine" format="2">
  <advance width="770"/>
  <unicode hex="00BA"/>
  <anchor x="377" y="778" name="bottom"/>
  <anchor x="389" y="1485" name="top"/>
  <outline>
    <contour>
      <point x="707" y="1133" type="curve" smooth="yes"/>
      <point x="707" y="1358"/>
      <point x="580" y="1479"/>
      <point x="387" y="1479" type="curve" smooth="yes"/>
      <point x="188" y="1479"/>
      <point x="66" y="1356"/>
      <point x="66" y="1133" type="curve" smooth="yes"/>
      <point x="66" y="905"/>
      <point x="199" y="784"/>
      <point x="383" y="784" type="curve" smooth="yes"/>
      <point x="580" y="784"/>
      <point x="707" y="911"/>
    </contour>
    <contour>
      <point x="195" y="1133" type="curve" smooth="yes"/>
      <point x="195" y="1294"/>
      <point x="252" y="1370"/>
      <point x="385" y="1370" type="curve" smooth="yes"/>
      <point x="518" y="1370"/>
      <point x="575" y="1294"/>
      <point x="575" y="1133" type="curve" smooth="yes"/>
      <point x="575" y="973"/>
      <point x="518" y="893"/>
      <point x="385" y="893" type="curve" smooth="yes"/>
      <point x="250" y="893"/>
      <point x="195" y="973"/>
    </contour>
  </outline>
</glyph>
<glyph name="onequarter" format="2">
  <advance width="1526"/>
  <unicode hex="00BC"/>
  <outline>
    <contour>
      <point x="258" y="0" type="line"/>
      <point x="412" y="0" type="line"/>
      <point x="1305" y="1462" type="line"/>
      <point x="1151" y="1462" type="line"/>
    </contour>
    <contour>
      <point x="340" y="586" type="line"/>
      <point x="485" y="586" type="line"/>
      <point x="485" y="1462" type="line"/>
      <point x="336" y="1462" type="line"/>
      <point x="70" y="1274" type="line"/>
      <point x="141" y="1174" type="line"/>
      <point x="252" y="1253" type="line" smooth="yes"/>
      <point x="287" y="1278"/>
      <point x="322" y="1309"/>
      <point x="348" y="1333" type="curve"/>
      <point x="344" y="1276"/>
      <point x="340" y="1221"/>
      <point x="340" y="1151" type="curve" smooth="yes"/>
    </contour>
    <contour>
      <point x="1229" y="0" type="line"/>
      <point x="1382" y="0" type="line"/>
      <point x="1382" y="197" type="line"/>
      <point x="1507" y="197" type="line"/>
      <point x="1507" y="319" type="line"/>
      <point x="1382" y="319" type="line"/>
      <point x="1382" y="883" type="line"/>
      <point x="1233" y="883" type="line"/>
      <point x="829" y="303" type="line"/>
      <point x="829" y="197" type="line"/>
      <point x="1229" y="197" type="line"/>
    </contour>
    <contour>
      <point x="973" y="319" type="line"/>
      <point x="1137" y="559" type="line" smooth="yes"/>
      <point x="1167" y="604"/>
      <point x="1221" y="686"/>
      <point x="1235" y="717" type="curve"/>
      <point x="1231" y="651"/>
      <point x="1229" y="567"/>
      <point x="1229" y="510" type="curve" smooth="yes"/>
      <point x="1229" y="319" type="line"/>
    </contour>
  </outline>
</glyph>
<glyph name="onehalf" format="2">
  <advance width="1579"/>
  <unicode hex="00BD"/>
  <outline>
    <contour>
      <point x="197" y="0" type="line"/>
      <point x="350" y="0" type="line"/>
      <point x="1243" y="1462" type="line"/>
      <point x="1090" y="1462" type="line"/>
    </contour>
    <contour>
      <point x="315" y="586" type="line"/>
      <point x="461" y="586" type="line"/>
      <point x="461" y="1462" type="line"/>
      <point x="311" y="1462" type="line"/>
      <point x="45" y="1274" type="line"/>
      <point x="117" y="1174" type="line"/>
      <point x="227" y="1253" type="line" smooth="yes"/>
      <point x="262" y="1278"/>
      <point x="297" y="1309"/>
      <point x="324" y="1333" type="curve"/>
      <point x="319" y="1276"/>
      <point x="315" y="1221"/>
      <point x="315" y="1151" type="curve" smooth="yes"/>
    </contour>
    <contour>
      <point x="911" y="0" type="line"/>
      <point x="1489" y="0" type="line"/>
      <point x="1489" y="127" type="line"/>
      <point x="1090" y="127" type="line"/>
      <point x="1255" y="285" type="line" smooth="yes"/>
      <point x="1407" y="428"/>
      <point x="1491" y="518"/>
      <point x="1491" y="653" type="curve" smooth="yes"/>
      <point x="1491" y="803"/>
      <point x="1384" y="895"/>
      <point x="1210" y="895" type="curve" smooth="yes"/>
      <point x="1094" y="895"/>
      <point x="1001" y="850"/>
      <point x="922" y="782" type="curve"/>
      <point x="993" y="688" type="line"/>
      <point x="1063" y="741"/>
      <point x="1126" y="776"/>
      <point x="1208" y="776" type="curve" smooth="yes"/>
      <point x="1290" y="776"/>
      <point x="1346" y="731"/>
      <point x="1346" y="645" type="curve" smooth="yes"/>
      <point x="1346" y="553"/>
      <point x="1313" y="500"/>
      <point x="1147" y="340" type="curve" smooth="yes"/>
      <point x="911" y="111" type="line"/>
    </contour>
  </outline>
</glyph>
<glyph name="AE" format="2">
  <advance width="1804"/>
  <unicode hex="00C6"/>
  <anchor x="903" y="0" name="bottom"/>
  <anchor x="1010" y="1462" name="top"/>
  <outline>
    <contour>
      <point x="1681" y="0" type="line"/>
      <point x="1681" y="162" type="line"/>
      <point x="1104" y="162" type="line"/>
      <point x="1104" y="684" type="line"/>
      <point x="1642" y="684" type="line"/>
      <point x="1642" y="844" type="line"/>
      <point x="1104" y="844" type="line"/>
      <point x="1104" y="1300" type="line"/>
      <point x="1681" y="1300" type="line"/>
      <point x="1681" y="1462" type="line"/>
      <point x="692" y="1462" type="line"/>
      <point x="-2" y="0" type="line"/>
      <point x="188" y="0" type="line"/>
      <point x="408" y="453" type="line"/>
      <point x="920" y="453" type="line"/>
      <point x="920" y="0" type="line"/>
    </contour>
    <contour>
      <point x="479" y="616" type="line"/>
      <point x="801" y="1298" type="line"/>
      <point x="920" y="1298" type="line"/>
      <point x="920" y="616" type="line"/>
    </contour>
  </outline>
</glyph>
<glyph name="Eth" format="2">
  <advance width="1495"/>
  <unicode hex="00D0"/>
  <anchor x="748" y="0" name="bottom"/>
  <anchor x="748" y="1462" name="top"/>
  <outline>
    <contour>
      <point x="649" y="1462" type="curve" smooth="yes"/>
      <point x="213" y="1462" type="line"/>
      <point x="213" y="803" type="line"/>
      <point x="61" y="803" type="line"/>
      <point x="61" y="643" type="line"/>
      <point x="213" y="643" type="line"/>
      <point x="213" y="0" type="line"/>
      <point x="604" y="0" type="line" smooth="yes"/>
      <point x="1087" y="0"/>
      <point x="1370" y="252"/>
      <point x="1370" y="745" type="curve" smooth="yes"/>
      <point x="1370" y="1214"/>
      <point x="1087" y="1462"/>
    </contour>
    <contour>
      <point x="623" y="1305" type="line" smooth="yes"/>
      <point x="973" y="1305"/>
      <point x="1176" y="1128"/>
      <point x="1176" y="739" type="curve" smooth="yes"/>
      <point x="1176" y="354"/>
      <point x="979" y="158"/>
      <point x="582" y="158" type="curve" smooth="yes"/>
      <point x="397" y="158" type="line"/>
      <point x="397" y="643" type="line"/>
      <point x="762" y="643" type="line"/>
      <point x="762" y="803" type="line"/>
      <point x="397" y="803" type="line"/>
      <point x="397" y="1305" type="line"/>
    </contour>
  </outline>
</glyph>
<glyph name="multiply" format="2">
  <advance width="1171"/>
  <unicode hex="00D7"/>
  <outline>
    <contour>
      <point x="934" y="1176" type="line"/>
      <point x="584" y="825" type="line"/>
      <point x="238" y="1176" type="line"/>
      <point x="131" y="1069" type="line"/>
      <point x="479" y="723" type="line"/>
      <point x="133" y="375" type="line"/>
      <point x="240" y="270" type="line"/>
      <point x="582" y="616" type="line"/>
      <point x="932" y="270" type="line"/>
      <point x="1034" y="375" type="line"/>
      <point x="688" y="723" type="line"/>
      <point x="1036" y="1071" type="line"/>
    </contour>
  </outline>
</glyph>
<glyph name="Oslash" format="2">
  <advance width="1599"/>
  <unicode hex="00D8"/>
  <anchor x="801" y="0" name="bottom"/>
  <anchor x="803" y="1462" name="top"/>
  <outline>
    <contour>
      <point x="1475" y="733" type="curve" smooth="yes"/>
      <point x="1475" y="973"/>
      <point x="1407" y="1167"/>
      <point x="1282" y="1298" type="curve"/>
      <point x="1386" y="1444" type="line"/>
      <point x="1262" y="1528" type="line"/>
      <point x="1167" y="1393" type="line"/>
      <point x="1067" y="1450"/>
      <point x="944" y="1485"/>
      <point x="803" y="1485" type="curve" smooth="yes"/>
      <point x="344" y="1485"/>
      <point x="125" y="1184"/>
      <point x="125" y="735" type="curve" smooth="yes"/>
      <point x="125" y="498"/>
      <point x="184" y="303"/>
      <point x="305" y="170" type="curve"/>
      <point x="199" y="18" type="line"/>
      <point x="324" y="-63" type="line"/>
      <point x="422" y="76" type="line"/>
      <point x="520" y="12"/>
      <point x="647" y="-20"/>
      <point x="801" y="-20" type="curve" smooth="yes"/>
      <point x="1241" y="-20"/>
      <point x="1475" y="281"/>
    </contour>
    <contour>
      <point x="1280" y="733" type="curve" smooth="yes"/>
      <point x="1280" y="365"/>
      <point x="1133" y="139"/>
      <point x="801" y="139" type="curve" smooth="yes"/>
      <point x="686" y="139"/>
      <point x="592" y="168"/>
      <point x="520" y="217" type="curve"/>
      <point x="1176" y="1147" type="line"/>
      <point x="1245" y="1047"/>
      <point x="1280" y="905"/>
    </contour>
    <contour>
      <point x="319" y="733" type="curve" smooth="yes"/>
      <point x="319" y="1102"/>
      <point x="471" y="1323"/>
      <point x="803" y="1323" type="curve" smooth="yes"/>
      <point x="911" y="1323"/>
      <point x="999" y="1298"/>
      <point x="1069" y="1251" type="curve"/>
      <point x="416" y="328" type="line"/>
      <point x="350" y="428"/>
      <point x="319" y="565"/>
    </contour>
  </outline>
</glyph>
<glyph name="Thorn" format="2">
  <advance width="1239"/>
  <unicode hex="00DE"/>
  <anchor x="621" y="0" name="bottom"/>
  <anchor x="621" y="1462" name="top"/>
  <outline>
    <contour>
      <point x="1135" y="782" type="curve" smooth="yes"/>
      <point x="1135" y="1051"/>
      <point x="975" y="1208"/>
      <point x="580" y="1208" type="curve" smooth="yes"/>
      <point x="383" y="1208" type="line"/>
      <point x="383" y="1462" type="line"/>
      <point x="199" y="1462" type="line"/>
      <point x="199" y="0" type="line"/>
      <point x="383" y="0" type="line"/>
      <point x="383" y="317" type="line"/>
      <point x="549" y="317" type="line" smooth="yes"/>
      <point x="995" y="317"/>
      <point x="1135" y="537"/>
    </contour>
    <contour>
      <point x="383" y="473" type="line"/>
      <point x="383" y="1051" type="line"/>
      <point x="565" y="1051" type="line" smooth="yes"/>
      <point x="831" y="1051"/>
      <point x="944" y="961"/>
      <point x="944" y="772" type="curve" smooth="yes"/>
      <point x="944" y="557"/>
      <point x="817" y="473"/>
      <point x="530" y="473" type="curve" smooth="yes"/>
    </contour>
  </outline>
</glyph>
<glyph name="germandbls" format="2">
  <advance width="1292"/>
  <unicode hex="00DF"/>
  <anchor x="647" y="0" name="bottom"/>
  <anchor x="647" y="1567" name="top"/>
  <outline>
    <contour>
      <point x="1069" y="1264" type="curve" smooth="yes"/>
      <point x="1069" y="1466"/>
      <point x="891" y="1567"/>
      <point x="627" y="1567" type="curve" smooth="yes"/>
      <point x="369" y="1567"/>
      <point x="174" y="1470"/>
      <point x="174" y="1196" type="curve" smooth="yes"/>
      <point x="174" y="0" type="line"/>
      <point x="354" y="0" type="line"/>
      <point x="354" y="1196" type="line" smooth="yes"/>
      <point x="354" y="1370"/>
      <point x="483" y="1417"/>
      <point x="627" y="1417" type="curve" smooth="yes"/>
      <point x="778" y="1417"/>
      <point x="887" y="1368"/>
      <point x="887" y="1253" type="curve" smooth="yes"/>
      <point x="887" y="1071"/>
      <point x="608" y="1047"/>
      <point x="608" y="834" type="curve" smooth="yes"/>
      <point x="608" y="725"/>
      <point x="659" y="657"/>
      <point x="831" y="547" type="curve" smooth="yes"/>
      <point x="977" y="453"/>
      <point x="1024" y="399"/>
      <point x="1024" y="301" type="curve" smooth="yes"/>
      <point x="1024" y="193"/>
      <point x="963" y="125"/>
      <point x="813" y="125" type="curve" smooth="yes"/>
      <point x="705" y="125"/>
      <point x="592" y="168"/>
      <point x="522" y="211" type="curve"/>
      <point x="522" y="49" type="line"/>
      <point x="594" y="4"/>
      <point x="690" y="-20"/>
      <point x="819" y="-20" type="curve" smooth="yes"/>
      <point x="1044" y="-20"/>
      <point x="1200" y="80"/>
      <point x="1200" y="313" type="curve" smooth="yes"/>
      <point x="1200" y="475"/>
      <point x="1110" y="563"/>
      <point x="963" y="662" type="curve" smooth="yes"/>
      <point x="811" y="762"/>
      <point x="782" y="788"/>
      <point x="782" y="844" type="curve" smooth="yes"/>
      <point x="782" y="967"/>
      <point x="1069" y="1030"/>
    </contour>
  </outline>
</glyph>
<glyph name="divide" format="2">
  <advance width="1171"/>
  <unicode hex="00F7"/>
  <outline>
    <contour>
      <point x="102" y="649" type="line"/>
      <point x="1067" y="649" type="line"/>
      <point x="1067" y="795" type="line"/>
      <point x="102" y="795" type="line"/>
    </contour>
    <contour>
      <point x="584" y="248" type="curve" smooth="yes"/>
      <point x="645" y="248"/>
      <point x="696" y="285"/>
      <point x="696" y="373" type="curve" smooth="yes"/>
      <point x="696" y="465"/>
      <point x="645" y="496"/>
      <point x="584" y="496" type="curve" smooth="yes"/>
      <point x="520" y="496"/>
      <point x="469" y="465"/>
      <point x="469" y="373" type="curve" smooth="yes"/>
      <point x="469" y="285"/>
      <point x="520" y="248"/>
    </contour>
    <contour>
      <point x="584" y="946" type="curve" smooth="yes"/>
      <point x="645" y="946"/>
      <point x="696" y="983"/>
      <point x="696" y="1071" type="curve" smooth="yes"/>
      <point x="696" y="1163"/>
      <point x="645" y="1194"/>
      <point x="584" y="1194" type="curve" smooth="yes"/>
      <point x="520" y="1194"/>
      <point x="469" y="1163"/>
      <point x="469" y="1071" type="curve" smooth="yes"/>
      <point x="469" y="983"/>
      <point x="520" y="946"/>
    </contour>
  </outline>
</glyph>
<glyph name="oslash" format="2">
  <advance width="1239"/>
  <unicode hex="00F8"/>
  <anchor x="621" y="0" name="bottom"/>
  <anchor x="621" y="1098" name="top"/>
  <outline>
    <contour>
      <point x="1128" y="551" type="curve" smooth="yes"/>
      <point x="1128" y="721"/>
      <point x="1079" y="856"/>
      <point x="999" y="952" type="curve"/>
      <point x="1092" y="1081" type="line"/>
      <point x="971" y="1159" type="line"/>
      <point x="891" y="1044" type="line"/>
      <point x="815" y="1092"/>
      <point x="723" y="1118"/>
      <point x="623" y="1118" type="curve" smooth="yes"/>
      <point x="307" y="1118"/>
      <point x="113" y="913"/>
      <point x="113" y="551" type="curve" smooth="yes"/>
      <point x="113" y="375"/>
      <point x="160" y="238"/>
      <point x="244" y="139" type="curve"/>
      <point x="152" y="12" type="line"/>
      <point x="270" y="-68" type="line"/>
      <point x="352" y="47" type="line"/>
      <point x="428" y="2"/>
      <point x="516" y="-20"/>
      <point x="616" y="-20" type="curve" smooth="yes"/>
      <point x="930" y="-20"/>
      <point x="1128" y="186"/>
    </contour>
    <contour>
      <point x="299" y="551" type="curve" smooth="yes"/>
      <point x="299" y="811"/>
      <point x="395" y="967"/>
      <point x="618" y="967" type="curve" smooth="yes"/>
      <point x="690" y="967"/>
      <point x="752" y="948"/>
      <point x="799" y="915" type="curve"/>
      <point x="348" y="289" type="line"/>
      <point x="313" y="356"/>
      <point x="299" y="446"/>
    </contour>
    <contour>
      <point x="942" y="551" type="curve" smooth="yes"/>
      <point x="942" y="291"/>
      <point x="842" y="129"/>
      <point x="621" y="129" type="curve" smooth="yes"/>
      <point x="551" y="129"/>
      <point x="489" y="145"/>
      <point x="444" y="176" type="curve"/>
      <point x="895" y="803" type="line"/>
      <point x="926" y="737"/>
      <point x="942" y="651"/>
    </contour>
  </outline>
</glyph>
<glyph name="dcroat" format="2">
  <advance width="1264"/>
  <unicode hex="0111"/>
  <anchor x="633" y="0" name="bottom"/>
  <anchor x="633" y="1556" name="top"/>
  <outline>
    <contour>
      <point x="563" y="-20" type="curve" smooth="yes"/>
      <point x="733" y="-20"/>
      <point x="838" y="53"/>
      <point x="903" y="147" type="curve"/>
      <point x="911" y="147" type="line"/>
      <point x="938" y="0" type="line"/>
      <point x="1085" y="0" type="line"/>
      <point x="1085" y="1239" type="line"/>
      <point x="1241" y="1239" type="line"/>
      <point x="1241" y="1374" type="line"/>
      <point x="1085" y="1374" type="line"/>
      <point x="1085" y="1556" type="line"/>
      <point x="905" y="1556" type="line"/>
      <point x="905" y="1374" type="line"/>
      <point x="469" y="1374" type="line"/>
      <point x="469" y="1239" type="line"/>
      <point x="905" y="1239" type="line"/>
      <point x="905" y="1114" type="line" smooth="yes"/>
      <point x="905" y="1071"/>
      <point x="911" y="985"/>
      <point x="918" y="950" type="curve"/>
      <point x="905" y="950" type="line"/>
      <point x="838" y="1040"/>
      <point x="735" y="1112"/>
      <point x="563" y="1112" type="curve" smooth="yes"/>
      <point x="293" y="1112"/>
      <point x="113" y="926"/>
      <point x="113" y="543" type="curve" smooth="yes"/>
      <point x="113" y="170"/>
      <point x="289" y="-20"/>
    </contour>
    <contour>
      <point x="594" y="129" type="curve" smooth="yes"/>
      <point x="395" y="129"/>
      <point x="301" y="279"/>
      <point x="301" y="541" type="curve" smooth="yes"/>
      <point x="301" y="803"/>
      <point x="395" y="963"/>
      <point x="590" y="963" type="curve" smooth="yes"/>
      <point x="834" y="963"/>
      <point x="907" y="817"/>
      <point x="907" y="543" type="curve" smooth="yes"/>
      <point x="907" y="508" type="line" smooth="yes"/>
      <point x="907" y="254"/>
      <point x="823" y="129"/>
    </contour>
  </outline>
</glyph>
<glyph name="eogonek" format="2">
  <advance width="1155"/>
  <unicode hex="0119"/>
  <anchor x="616" y="-451" name="bottom"/>
  <anchor x="584" y="1098" name="top"/>
  <outline>
    <contour>
      <point x="797" y="-238" type="curve" smooth="yes"/>
      <point x="797" y="-154"/>
      <point x="836" y="-80"/>
      <point x="1001" y="51" type="curve"/>
      <point x="838" y="31" type="line"/>
      <point x="756" y="-27"/>
      <point x="649" y="-141"/>
      <point x="649" y="-258" type="curve" smooth="yes"/>
      <point x="649" y="-379"/>
      <point x="715" y="-451"/>
      <point x="860" y="-451" type="curve" smooth="yes"/>
      <point x="913" y="-451"/>
      <point x="948" y="-442"/>
      <point x="987" y="-432" type="curve"/>
      <point x="987" y="-317" type="line"/>
      <point x="965" y="-322"/>
      <point x="934" y="-330"/>
      <point x="889" y="-330" type="curve" smooth="yes"/>
      <point x="831" y="-330"/>
      <point x="797" y="-299"/>
    </contour>
    <component base="e"/>
  </outline>
</glyph>
<glyph name="Hbar" format="2">
  <advance width="1518"/>
  <unicode hex="0126"/>
  <anchor x="760" y="0" name="bottom"/>
  <anchor x="760" y="1462" name="top"/>
  <outline>
    <contour>
      <point x="199" y="0" type="line"/>
      <point x="383" y="0" type="line"/>
      <point x="383" y="682" type="line"/>
      <point x="1133" y="682" type="line"/>
      <point x="1133" y="0" type="line"/>
      <point x="1317" y="0" type="line"/>
      <point x="1317" y="1071" type="line"/>
      <point x="1516" y="1071" type="line"/>
      <point x="1516" y="1219" type="line"/>
      <point x="1317" y="1219" type="line"/>
      <point x="1317" y="1462" type="line"/>
      <point x="1133" y="1462" type="line"/>
      <point x="1133" y="1219" type="line"/>
      <point x="383" y="1219" type="line"/>
      <point x="383" y="1462" type="line"/>
      <point x="199" y="1462" type="line"/>
      <point x="199" y="1219" type="line"/>
      <point x="0" y="1219" type="line"/>
      <point x="0" y="1071" type="line"/>
      <point x="199" y="1071" type="line"/>
    </contour>
    <contour>
      <point x="383" y="844" type="line"/>
      <point x="383" y="1071" type="line"/>
      <point x="1133" y="1071" type="line"/>
      <point x="1133" y="844" type="line"/>
    </contour>
  </outline>
</glyph>
<glyph name="hbar" format="2">
  <advance width="1266"/>
  <unicode hex="0127"/>
  <anchor x="633" y="0" name="bottom"/>
  <anchor x="266" y="1556" name="top"/>
  <outline>
    <contour>
      <point x="354" y="1556" type="line"/>
      <point x="174" y="1556" type="line"/>
      <point x="174" y="1372" type="line"/>
      <point x="18" y="1372" type="line"/>
      <point x="18" y="1237" type="line"/>
      <point x="174" y="1237" type="line"/>
      <point x="174" y="0" type="line"/>
      <point x="354" y="0" type="line"/>
      <point x="354" y="528" type="line" smooth="yes"/>
      <point x="354" y="784"/>
      <point x="430" y="926"/>
      <point x="676" y="926" type="curve" smooth="yes"/>
      <point x="844" y="926"/>
      <point x="922" y="838"/>
      <point x="922" y="662" type="curve" smooth="yes"/>
      <point x="922" y="0" type="line"/>
      <point x="1100" y="0" type="line"/>
      <point x="1100" y="674" type="line" smooth="yes"/>
      <point x="1100" y="954"/>
      <point x="965" y="1077"/>
      <point x="700" y="1077" type="curve" smooth="yes"/>
      <point x="557" y="1077"/>
      <point x="426" y="1020"/>
      <point x="356" y="907" type="curve"/>
      <point x="344" y="907" type="line"/>
      <point x="350" y="950"/>
      <point x="354" y="1006"/>
      <point x="354" y="1059" type="curve" smooth="yes"/>
      <point x="354" y="1237" type="line"/>
      <point x="788" y="1237" type="line"/>
      <point x="788" y="1372" type="line"/>
      <point x="354" y="1372" type="line"/>
    </contour>
  </outline>
</glyph>
<glyph name="idotless" format="2">
  <advance width="528"/>
  <unicode hex="0131"/>
  <anchor x="272" y="0" name="bottom"/>
  <anchor x="264" y="1098" name="top"/>
  <outline>
    <contour>
      <point x="354" y="0" type="line"/>
      <point x="354" y="1098" type="line"/>
      <point x="174" y="1098" type="line"/>
      <point x="174" y="0" type="line"/>
    </contour>
  </outline>
</glyph>
<glyph name="kgreenlandic" format="2">
  <advance width="1094"/>
  <unicode hex="0138"/>
  <anchor x="547" y="0" name="bottom"/>
  <anchor x="547" y="1098" name="top"/>
  <outline>
    <contour>
      <point x="1042" y="1098" type="line"/>
      <point x="825" y="1098" type="line"/>
      <point x="436" y="639" type="line"/>
      <point x="412" y="608"/>
      <point x="381" y="569"/>
      <point x="356" y="535" type="curve"/>
      <point x="352" y="535" type="line"/>
      <point x="358" y="590"/>
      <point x="365" y="705"/>
      <point x="365" y="813" type="curve" smooth="yes"/>
      <point x="365" y="1098" type="line"/>
      <point x="174" y="1098" type="line"/>
      <point x="174" y="0" type="line"/>
      <point x="365" y="0" type="line"/>
      <point x="365" y="385" type="line"/>
      <point x="500" y="496" type="line"/>
      <point x="860" y="0" type="line"/>
      <point x="1075" y="0" type="line"/>
      <point x="627" y="612" type="line"/>
    </contour>
  </outline>
</glyph>
<glyph name="Lslash" format="2">
  <advance width="1073"/>
  <unicode hex="0141"/>
  <anchor x="614" y="0" name="bottom"/>
  <anchor x="287" y="1462" name="top"/>
  <outline>
    <contour>
      <point x="199" y="0" type="line"/>
      <point x="1022" y="0" type="line"/>
      <point x="1022" y="164" type="line"/>
      <point x="383" y="164" type="line"/>
      <point x="383" y="614" type="line"/>
      <point x="737" y="819" type="line"/>
      <point x="664" y="948" type="line"/>
      <point x="383" y="782" type="line"/>
      <point x="383" y="1462" type="line"/>
      <point x="199" y="1462" type="line"/>
      <point x="199" y="674" type="line"/>
      <point x="27" y="571" type="line"/>
      <point x="98" y="449" type="line"/>
      <point x="199" y="506" type="line"/>
    </contour>
  </outline>
</glyph>
<glyph name="Eng" format="2">
  <advance width="1556"/>
  <unicode hex="014A"/>
  <anchor x="778" y="-389" name="bottom"/>
  <anchor x="778" y="1462" name="top"/>
  <outline>
    <contour>
      <point x="973" y="-389" type="curve" smooth="yes"/>
      <point x="1208" y="-389"/>
      <point x="1358" y="-262"/>
      <point x="1358" y="12" type="curve" smooth="yes"/>
      <point x="1358" y="1462" type="line"/>
      <point x="1186" y="1462" type="line"/>
      <point x="1186" y="700" type="line" smooth="yes"/>
      <point x="1186" y="549"/>
      <point x="1192" y="379"/>
      <point x="1200" y="291" type="curve"/>
      <point x="1192" y="291" type="line"/>
      <point x="412" y="1462" type="line"/>
      <point x="199" y="1462" type="line"/>
      <point x="199" y="0" type="line"/>
      <point x="369" y="0" type="line"/>
      <point x="369" y="793" type="line" smooth="yes"/>
      <point x="369" y="942"/>
      <point x="358" y="1135"/>
      <point x="352" y="1214" type="curve"/>
      <point x="360" y="1214" type="line"/>
      <point x="1186" y="0" type="line"/>
      <point x="1184" y="-178"/>
      <point x="1077" y="-227"/>
      <point x="973" y="-227" type="curve" smooth="yes"/>
      <point x="913" y="-227"/>
      <point x="860" y="-219"/>
      <point x="817" y="-207" type="curve"/>
      <point x="817" y="-362" type="line"/>
      <point x="854" y="-379"/>
      <point x="905" y="-389"/>
    </contour>
  </outline>
</glyph>
<glyph name="eng" format="2">
  <advance width="1266"/>
  <unicode hex="014B"/>
  <anchor x="633" y="-492" name="bottom"/>
  <anchor x="633" y="1098" name="top"/>
  <anchor x="1151" y="1098" name="topright"/>
  <outline>
    <contour>
      <point x="807" y="-492" type="curve" smooth="yes"/>
      <point x="1010" y="-492"/>
      <point x="1102" y="-369"/>
      <point x="1102" y="-164" type="curve" smooth="yes"/>
      <point x="1102" y="717" type="line" smooth="yes"/>
      <point x="1102" y="997"/>
      <point x="969" y="1118"/>
      <point x="700" y="1118" type="curve" smooth="yes"/>
      <point x="559" y="1118"/>
      <point x="430" y="1063"/>
      <point x="358" y="948" type="curve"/>
      <point x="348" y="948" type="line"/>
      <point x="319" y="1098" type="line"/>
      <point x="174" y="1098" type="line"/>
      <point x="174" y="0" type="line"/>
      <point x="354" y="0" type="line"/>
      <point x="354" y="571" type="line" smooth="yes"/>
      <point x="354" y="827"/>
      <point x="434" y="967"/>
      <point x="678" y="967" type="curve" smooth="yes"/>
      <point x="844" y="967"/>
      <point x="922" y="881"/>
      <point x="922" y="705" type="curve" smooth="yes"/>
      <point x="922" y="-170" type="line" smooth="yes"/>
      <point x="922" y="-303"/>
      <point x="862" y="-342"/>
      <point x="784" y="-342" type="curve" smooth="yes"/>
      <point x="735" y="-342"/>
      <point x="698" y="-334"/>
      <point x="662" y="-322" type="curve"/>
      <point x="662" y="-467" type="line"/>
      <point x="696" y="-481"/>
      <point x="741" y="-492"/>
    </contour>
  </outline>
</glyph>
<glyph name="OE" format="2">
  <advance width="1901"/>
  <unicode hex="0152"/>
  <anchor x="950" y="0" name="bottom"/>
  <anchor x="950" y="1462" name="top"/>
  <outline>
    <contour>
      <point x="791" y="1485" type="curve" smooth="yes"/>
      <point x="342" y="1485"/>
      <point x="125" y="1188"/>
      <point x="125" y="735" type="curve" smooth="yes"/>
      <point x="125" y="281"/>
      <point x="344" y="-20"/>
      <point x="801" y="-20" type="curve" smooth="yes"/>
      <point x="870" y="-20"/>
      <point x="938" y="-12"/>
      <point x="999" y="0" type="curve"/>
      <point x="1778" y="0" type="line"/>
      <point x="1778" y="162" type="line"/>
      <point x="1190" y="162" type="line"/>
      <point x="1190" y="684" type="line"/>
      <point x="1739" y="684" type="line"/>
      <point x="1739" y="844" type="line"/>
      <point x="1190" y="844" type="line"/>
      <point x="1190" y="1300" type="line"/>
      <point x="1778" y="1300" type="line"/>
      <point x="1778" y="1462" type="line"/>
      <point x="987" y="1462" type="line"/>
      <point x="928" y="1477"/>
      <point x="860" y="1485"/>
    </contour>
    <contour>
      <point x="807" y="1323" type="curve" smooth="yes"/>
      <point x="883" y="1323"/>
      <point x="950" y="1313"/>
      <point x="1008" y="1290" type="curve"/>
      <point x="1008" y="174" type="line"/>
      <point x="952" y="152"/>
      <point x="881" y="139"/>
      <point x="805" y="139" type="curve" smooth="yes"/>
      <point x="471" y="139"/>
      <point x="317" y="365"/>
      <point x="317" y="733" type="curve" smooth="yes"/>
      <point x="317" y="1102"/>
      <point x="471" y="1323"/>
    </contour>
  </outline>
</glyph>
<glyph name="oe" format="2">
  <advance width="1937"/>
  <unicode hex="0153"/>
  <anchor x="969" y="0" name="bottom"/>
  <anchor x="969" y="1098" name="top"/>
  <outline>
    <contour>
      <point x="1386" y="1116" type="curve" smooth="yes"/>
      <point x="1219" y="1116"/>
      <point x="1087" y="1036"/>
      <point x="1008" y="891" type="curve"/>
      <point x="926" y="1038"/>
      <point x="784" y="1116"/>
      <point x="612" y="1116" type="curve" smooth="yes"/>
      <point x="301" y="1116"/>
      <point x="111" y="911"/>
      <point x="111" y="551" type="curve" smooth="yes"/>
      <point x="111" y="184"/>
      <point x="319" y="-20"/>
      <point x="606" y="-20" type="curve" smooth="yes"/>
      <point x="786" y="-20"/>
      <point x="930" y="57"/>
      <point x="1014" y="207" type="curve"/>
      <point x="1100" y="55"/>
      <point x="1245" y="-20"/>
      <point x="1432" y="-20" type="curve" smooth="yes"/>
      <point x="1577" y="-20"/>
      <point x="1671" y="2"/>
      <point x="1782" y="51" type="curve"/>
      <point x="1782" y="209" type="line"/>
      <point x="1673" y="160"/>
      <point x="1577" y="133"/>
      <point x="1434" y="133" type="curve" smooth="yes"/>
      <point x="1223" y="133"/>
      <point x="1108" y="252"/>
      <point x="1102" y="514" type="curve"/>
      <point x="1831" y="514" type="line"/>
      <point x="1831" y="623" type="line" smooth="yes"/>
      <point x="1831" y="922"/>
      <point x="1663" y="1116"/>
    </contour>
    <contour>
      <point x="604" y="967" type="curve" smooth="yes"/>
      <point x="819" y="967"/>
      <point x="915" y="827"/>
      <point x="915" y="543" type="curve" smooth="yes"/>
      <point x="915" y="270"/>
      <point x="821" y="129"/>
      <point x="608" y="129" type="curve" smooth="yes"/>
      <point x="391" y="129"/>
      <point x="299" y="274"/>
      <point x="299" y="551" type="curve" smooth="yes"/>
      <point x="299" y="825"/>
      <point x="389" y="967"/>
    </contour>
    <contour>
      <point x="1384" y="969" type="curve" smooth="yes"/>
      <point x="1563" y="969"/>
      <point x="1640" y="846"/>
      <point x="1640" y="657" type="curve"/>
      <point x="1106" y="657" type="line"/>
      <point x="1122" y="860"/>
      <point x="1221" y="969"/>
    </contour>
  </outline>
</glyph>
<glyph name="Tbar" format="2">
  <advance width="1139"/>
  <unicode hex="0166"/>
  <anchor x="569" y="0" name="bottom"/>
  <anchor x="569" y="1462" name="top"/>
  <outline>
    <contour>
      <point x="475" y="0" type="line"/>
      <point x="659" y="0" type="line"/>
      <point x="659" y="666" type="line"/>
      <point x="963" y="666" type="line"/>
      <point x="963" y="817" type="line"/>
      <point x="659" y="817" type="line"/>
      <point x="659" y="1298" type="line"/>
      <point x="1116" y="1298" type="line"/>
      <point x="1116" y="1462" type="line"/>
      <point x="20" y="1462" type="line"/>
      <point x="20" y="1298" type="line"/>
      <point x="475" y="1298" type="line"/>
      <point x="475" y="817" type="line"/>
      <point x="170" y="817" type="line"/>
      <point x="170" y="666" type="line"/>
      <point x="475" y="666" type="line"/>
    </contour>
  </outline>
</glyph>
<glyph name="Uogonek" format="2">
  <advance width="1497"/>
  <unicode hex="0172"/>
  <anchor x="745" y="-451" name="bottom"/>
  <anchor x="750" y="1462" name="top"/>
  <outline>
    <contour>
      <point x="954" y="-219" type="curve" smooth="yes"/>
      <point x="954" y="-123"/>
      <point x="1012" y="-37"/>
      <point x="1137" y="104" type="curve"/>
      <point x="1008" y="82" type="line"/>
      <point x="926" y="25"/>
      <point x="807" y="-111"/>
      <point x="807" y="-240" type="curve" smooth="yes"/>
      <point x="807" y="-379"/>
      <point x="872" y="-451"/>
      <point x="1018" y="-451" type="curve" smooth="yes"/>
      <point x="1071" y="-451"/>
      <point x="1106" y="-442"/>
      <point x="1145" y="-432" type="curve"/>
      <point x="1145" y="-317" type="line"/>
      <point x="1122" y="-322"/>
      <point x="1092" y="-330"/>
      <point x="1047" y="-330" type="curve" smooth="yes"/>
      <point x="989" y="-330"/>
      <point x="954" y="-299"/>
    </contour>
    <component base="U"/>
  </outline>
</glyph>
<glyph name="uni0181" format="2">
  <advance width="1495"/>
  <unicode hex="0181"/>
  <anchor x="748" y="0" name="bottom"/>
  <anchor x="748" y="1462" name="top"/>
  <outline>
    <contour>
      <point x="362" y="0" type="line"/>
      <point x="877" y="0" type="line" smooth="yes"/>
      <point x="1190" y="0"/>
      <point x="1384" y="150"/>
      <point x="1384" y="416" type="curve" smooth="yes"/>
      <point x="1384" y="643"/>
      <point x="1241" y="735"/>
      <point x="1057" y="766" type="curve"/>
      <point x="1057" y="776" type="line"/>
      <point x="1237" y="809"/>
      <point x="1335" y="928"/>
      <point x="1335" y="1100" type="curve" smooth="yes"/>
      <point x="1335" y="1366"/>
      <point x="1145" y="1462"/>
      <point x="780" y="1462" type="curve" smooth="yes"/>
      <point x="309" y="1462" type="line" smooth="yes"/>
      <point x="113" y="1462"/>
      <point x="20" y="1380"/>
      <point x="20" y="1204" type="curve" smooth="yes"/>
      <point x="20" y="1171"/>
      <point x="31" y="1120"/>
      <point x="43" y="1092" type="curve"/>
      <point x="205" y="1092" type="line"/>
      <point x="197" y="1110"/>
      <point x="184" y="1157"/>
      <point x="184" y="1202" type="curve" smooth="yes"/>
      <point x="184" y="1264"/>
      <point x="223" y="1305"/>
      <point x="309" y="1305" type="curve" smooth="yes"/>
      <point x="362" y="1305" type="line"/>
    </contour>
    <contour>
      <point x="547" y="156" type="line"/>
      <point x="547" y="686" type="line"/>
      <point x="827" y="686" type="line"/>
      <point x="1098" y="686"/>
      <point x="1188" y="584"/>
      <point x="1188" y="430" type="curve" smooth="yes"/>
      <point x="1188" y="266"/>
      <point x="1100" y="156"/>
      <point x="842" y="156" type="curve" smooth="yes"/>
    </contour>
    <contour>
      <point x="547" y="840" type="line"/>
      <point x="547" y="1305" type="line"/>
      <point x="788" y="1305" type="line" smooth="yes"/>
      <point x="1036" y="1305"/>
      <point x="1145" y="1239"/>
      <point x="1145" y="1079" type="curve" smooth="yes"/>
      <point x="1145" y="922"/>
      <point x="1067" y="840"/>
      <point x="817" y="840" type="curve" smooth="yes"/>
    </contour>
  </outline>
</glyph>
<glyph name="uni0184" format="2">
  <advance width="1300"/>
  <unicode hex="0184"/>
  <anchor x="651" y="0" name="bottom"/>
  <anchor x="651" y="1462" name="top"/>
  <outline>
    <contour>
      <point x="698" y="-20" type="curve" smooth="yes"/>
      <point x="1034" y="-20"/>
      <point x="1196" y="162"/>
      <point x="1196" y="420" type="curve" smooth="yes"/>
      <point x="1196" y="651"/>
      <point x="1051" y="844"/>
      <point x="643" y="844" type="curve" smooth="yes"/>
      <point x="369" y="844" type="line"/>
      <point x="369" y="1462" type="line"/>
      <point x="184" y="1462" type="line"/>
      <point x="184" y="430" type="line"/>
      <point x="184" y="164"/>
      <point x="315" y="-20"/>
    </contour>
    <contour>
      <point x="696" y="137" type="curve" smooth="yes"/>
      <point x="465" y="137"/>
      <point x="369" y="217"/>
      <point x="369" y="430" type="curve" smooth="yes"/>
      <point x="369" y="684" type="line"/>
      <point x="621" y="684" type="line" smooth="yes"/>
      <point x="872" y="684"/>
      <point x="1006" y="608"/>
      <point x="1006" y="420" type="curve" smooth="yes"/>
      <point x="1006" y="238"/>
      <point x="913" y="137"/>
    </contour>
  </outline>
</glyph>
<glyph name="uni0185" format="2">
  <advance width="1253"/>
  <unicode hex="0185"/>
  <anchor x="627" y="0" name="bottom"/>
  <anchor x="627" y="1556" name="top"/>
  <outline>
    <contour>
      <point x="659" y="-20" type="curve" smooth="yes"/>
      <point x="956" y="-20"/>
      <point x="1141" y="172"/>
      <point x="1141" y="549" type="curve" smooth="yes"/>
      <point x="1141" y="926"/>
      <point x="961" y="1116"/>
      <point x="688" y="1116" type="curve" smooth="yes"/>
      <point x="516" y="1116"/>
      <point x="410" y="1044"/>
      <point x="348" y="952" type="curve"/>
      <point x="338" y="952" type="line"/>
      <point x="342" y="997"/>
      <point x="348" y="1085"/>
      <point x="348" y="1178" type="curve" smooth="yes"/>
      <point x="348" y="1556" type="line"/>
      <point x="168" y="1556" type="line"/>
      <point x="168" y="547" type="line" smooth="yes"/>
      <point x="168" y="170"/>
      <point x="360" y="-20"/>
    </contour>
    <contour>
      <point x="662" y="129" type="curve" smooth="yes"/>
      <point x="465" y="129"/>
      <point x="348" y="281"/>
      <point x="348" y="543" type="curve" smooth="yes"/>
      <point x="348" y="555" type="line"/>
      <point x="348" y="836"/>
      <point x="424" y="967"/>
      <point x="657" y="967" type="curve" smooth="yes"/>
      <point x="858" y="967"/>
      <point x="954" y="827"/>
      <point x="954" y="551" type="curve" smooth="yes"/>
      <point x="954" y="279"/>
      <point x="858" y="129"/>
    </contour>
  </outline>
</glyph>
<glyph name="uni0186" format="2">
  <advance width="1294"/>
  <unicode hex="0186"/>
  <anchor x="504" y="0" name="bottom"/>
  <anchor x="504" y="1462" name="top"/>
  <outline>
    <contour>
      <point x="498" y="-20" type="curve" smooth="yes"/>
      <point x="922" y="-20"/>
      <point x="1169" y="287"/>
      <point x="1169" y="729" type="curve" smooth="yes"/>
      <point x="1169" y="1190"/>
      <point x="946" y="1483"/>
      <point x="498" y="1483" type="curve" smooth="yes"/>
      <point x="319" y="1483"/>
      <point x="174" y="1452"/>
      <point x="63" y="1397" type="curve"/>
      <point x="137" y="1241" type="line"/>
      <point x="227" y="1282"/>
      <point x="338" y="1321"/>
      <point x="469" y="1321" type="curve" smooth="yes"/>
      <point x="805" y="1321"/>
      <point x="975" y="1094"/>
      <point x="975" y="731" type="curve" smooth="yes"/>
      <point x="975" y="365"/>
      <point x="782" y="141"/>
      <point x="469" y="141" type="curve" smooth="yes"/>
      <point x="342" y="141"/>
      <point x="231" y="166"/>
      <point x="121" y="199" type="curve"/>
      <point x="121" y="39" type="line"/>
      <point x="229" y="-2"/>
      <point x="336" y="-20"/>
    </contour>
  </outline>
</glyph>
<glyph name="uni0187" format="2">
  <advance width="1294"/>
  <unicode hex="0187"/>
  <anchor x="762" y="0" name="bottom"/>
  <anchor x="778" y="1729" name="top"/>
  <outline>
    <contour>
      <point x="1303" y="1757" type="curve" smooth="yes"/>
      <point x="1135" y="1757"/>
      <point x="1067" y="1659"/>
      <point x="1067" y="1483" type="curve" smooth="yes"/>
      <point x="1067" y="1454" type="line"/>
      <point x="991" y="1473"/>
      <point x="909" y="1483"/>
      <point x="827" y="1483" type="curve" smooth="yes"/>
      <point x="375" y="1483"/>
      <point x="125" y="1176"/>
      <point x="125" y="733" type="curve" smooth="yes"/>
      <point x="125" y="272"/>
      <point x="348" y="-20"/>
      <point x="797" y="-20" type="curve" smooth="yes"/>
      <point x="958" y="-20"/>
      <point x="1065" y="-2"/>
      <point x="1174" y="39" type="curve"/>
      <point x="1174" y="199" type="line"/>
      <point x="1063" y="166"/>
      <point x="950" y="141"/>
      <point x="823" y="141" type="curve" smooth="yes"/>
      <point x="487" y="141"/>
      <point x="319" y="369"/>
      <point x="319" y="731" type="curve" smooth="yes"/>
      <point x="319" y="1098"/>
      <point x="512" y="1321"/>
      <point x="825" y="1321" type="curve" smooth="yes"/>
      <point x="956" y="1321"/>
      <point x="1059" y="1282"/>
      <point x="1149" y="1241" type="curve"/>
      <point x="1223" y="1401" type="line"/>
      <point x="1223" y="1505" type="line" smooth="yes"/>
      <point x="1223" y="1571"/>
      <point x="1257" y="1604"/>
      <point x="1319" y="1604" type="curve" smooth="yes"/>
      <point x="1364" y="1604"/>
      <point x="1407" y="1591"/>
      <point x="1425" y="1583" type="curve"/>
      <point x="1425" y="1731" type="line"/>
      <point x="1397" y="1743"/>
      <point x="1354" y="1757"/>
    </contour>
  </outline>
</glyph>
<glyph name="uni0188" format="2">
  <advance width="1030"/>
  <unicode hex="0188"/>
  <anchor x="575" y="0" name="bottom"/>
  <anchor x="582" y="1567" name="top"/>
  <outline>
    <contour>
      <point x="614" y="-20" type="curve" smooth="yes"/>
      <point x="739" y="-20"/>
      <point x="823" y="0"/>
      <point x="897" y="39" type="curve"/>
      <point x="897" y="199" type="line"/>
      <point x="821" y="164"/>
      <point x="731" y="135"/>
      <point x="612" y="135" type="curve" smooth="yes"/>
      <point x="406" y="135"/>
      <point x="299" y="281"/>
      <point x="299" y="545" type="curve" smooth="yes"/>
      <point x="299" y="819"/>
      <point x="403" y="961"/>
      <point x="623" y="961" type="curve" smooth="yes"/>
      <point x="698" y="961"/>
      <point x="795" y="934"/>
      <point x="860" y="909" type="curve"/>
      <point x="915" y="1059" type="line"/>
      <point x="915" y="1313" type="line" smooth="yes"/>
      <point x="915" y="1378"/>
      <point x="950" y="1411"/>
      <point x="1012" y="1411" type="curve" smooth="yes"/>
      <point x="1057" y="1411"/>
      <point x="1100" y="1399"/>
      <point x="1118" y="1391" type="curve"/>
      <point x="1118" y="1540" type="line"/>
      <point x="1090" y="1552"/>
      <point x="1047" y="1567"/>
      <point x="995" y="1567" type="curve" smooth="yes"/>
      <point x="827" y="1567"/>
      <point x="760" y="1468"/>
      <point x="760" y="1292" type="curve" smooth="yes"/>
      <point x="760" y="1106" type="line"/>
      <point x="717" y="1112"/>
      <point x="672" y="1118"/>
      <point x="627" y="1118" type="curve" smooth="yes"/>
      <point x="332" y="1118"/>
      <point x="113" y="948"/>
      <point x="113" y="543" type="curve" smooth="yes"/>
      <point x="113" y="154"/>
      <point x="322" y="-20"/>
    </contour>
  </outline>
</glyph>
<glyph name="uni018A" format="2">
  <advance width="1659"/>
  <unicode hex="018A"/>
  <anchor x="829" y="0" name="bottom"/>
  <anchor x="829" y="1462" name="top"/>
  <outline>
    <contour>
      <point x="362" y="0" type="line"/>
      <point x="770" y="0" type="line" smooth="yes"/>
      <point x="1251" y="0"/>
      <point x="1534" y="252"/>
      <point x="1534" y="745" type="curve" smooth="yes"/>
      <point x="1534" y="1214"/>
      <point x="1253" y="1462"/>
      <point x="813" y="1462" type="curve" smooth="yes"/>
      <point x="309" y="1462" type="line"/>
      <point x="113" y="1462"/>
      <point x="20" y="1380"/>
      <point x="20" y="1204" type="curve" smooth="yes"/>
      <point x="20" y="1171"/>
      <point x="31" y="1120"/>
      <point x="43" y="1092" type="curve"/>
      <point x="205" y="1092" type="line"/>
      <point x="197" y="1110"/>
      <point x="184" y="1157"/>
      <point x="184" y="1202" type="curve" smooth="yes"/>
      <point x="184" y="1264"/>
      <point x="223" y="1305"/>
      <point x="309" y="1305" type="curve" smooth="yes"/>
      <point x="362" y="1305" type="line"/>
    </contour>
    <contour>
      <point x="547" y="158" type="line"/>
      <point x="547" y="1305" type="line"/>
      <point x="786" y="1305" type="line" smooth="yes"/>
      <point x="1139" y="1305"/>
      <point x="1339" y="1128"/>
      <point x="1339" y="739" type="curve" smooth="yes"/>
      <point x="1339" y="354"/>
      <point x="1141" y="158"/>
      <point x="745" y="158" type="curve" smooth="yes"/>
    </contour>
  </outline>
</glyph>
<glyph name="uni018B" format="2">
  <advance width="1260"/>
  <unicode hex="018B"/>
  <anchor x="631" y="0" name="bottom"/>
  <anchor x="631" y="1462" name="top"/>
  <outline>
    <contour>
      <point x="653" y="0" type="curve" smooth="yes"/>
      <point x="1061" y="0" type="line"/>
      <point x="1061" y="1462" type="line"/>
      <point x="193" y="1462" type="line"/>
      <point x="193" y="1300" type="line"/>
      <point x="877" y="1300" type="line"/>
      <point x="877" y="844" type="line"/>
      <point x="688" y="844" type="line" smooth="yes"/>
      <point x="250" y="844"/>
      <point x="104" y="635"/>
      <point x="104" y="406" type="curve" smooth="yes"/>
      <point x="104" y="150"/>
      <point x="270" y="0"/>
    </contour>
    <contour>
      <point x="670" y="158" type="line" smooth="yes"/>
      <point x="412" y="158"/>
      <point x="295" y="242"/>
      <point x="295" y="414" type="curve" smooth="yes"/>
      <point x="295" y="610"/>
      <point x="430" y="686"/>
      <point x="709" y="686" type="curve" smooth="yes"/>
      <point x="877" y="686" type="line"/>
      <point x="877" y="158" type="line"/>
    </contour>
  </outline>
</glyph>
<glyph name="uni018E" format="2">
  <advance width="1139"/>
  <unicode hex="018E"/>
  <anchor x="539" y="0" name="bottom"/>
  <anchor x="549" y="1462" name="top"/>
  <anchor x="1022" y="1462" name="topright"/>
  <outline>
    <contour>
      <point x="123" y="0" type="line"/>
      <point x="940" y="0" type="line"/>
      <point x="940" y="1462" type="line"/>
      <point x="123" y="1462" type="line"/>
      <point x="123" y="1300" type="line"/>
      <point x="756" y="1300" type="line"/>
      <point x="756" y="844" type="line"/>
      <point x="160" y="844" type="line"/>
      <point x="160" y="684" type="line"/>
      <point x="756" y="684" type="line"/>
      <point x="756" y="162" type="line"/>
      <point x="123" y="162" type="line"/>
    </contour>
  </outline>
</glyph>
<glyph name="uni0191" format="2">
  <advance width="1206"/>
  <unicode hex="0191"/>
  <anchor x="268" y="0" name="bottom"/>
  <anchor x="776" y="1462" name="top"/>
  <anchor x="1206" y="1462" name="topright"/>
  <outline>
    <contour>
      <point x="248" y="-31" type="curve" smooth="yes"/>
      <point x="430" y="-31"/>
      <point x="567" y="76"/>
      <point x="567" y="332" type="curve" smooth="yes"/>
      <point x="567" y="684" type="line"/>
      <point x="1120" y="684" type="line"/>
      <point x="1120" y="846" type="line"/>
      <point x="567" y="846" type="line"/>
      <point x="567" y="1300" type="line"/>
      <point x="1159" y="1300" type="line"/>
      <point x="1159" y="1462" type="line"/>
      <point x="383" y="1462" type="line"/>
      <point x="383" y="350" type="line" smooth="yes"/>
      <point x="383" y="186"/>
      <point x="322" y="131"/>
      <point x="248" y="131" type="curve" smooth="yes"/>
      <point x="182" y="131"/>
      <point x="141" y="178"/>
      <point x="141" y="256" type="curve" smooth="yes"/>
      <point x="141" y="279"/>
      <point x="143" y="297"/>
      <point x="147" y="315" type="curve"/>
      <point x="-14" y="365" type="line"/>
      <point x="-29" y="322"/>
      <point x="-35" y="281"/>
      <point x="-35" y="244" type="curve" smooth="yes"/>
      <point x="-35" y="76"/>
      <point x="66" y="-31"/>
    </contour>
  </outline>
</glyph>
<glyph name="florin" format="2">
  <advance width="1171"/>
  <unicode hex="0192"/>
  <anchor x="586" y="-492" name="bottom"/>
  <anchor x="750" y="1483" name="top"/>
  <outline>
    <contour>
      <point x="834" y="1483" type="curve" smooth="yes"/>
      <point x="612" y="1483"/>
      <point x="487" y="1393"/>
      <point x="487" y="1110" type="curve" smooth="yes"/>
      <point x="487" y="977" type="line"/>
      <point x="272" y="915" type="line"/>
      <point x="272" y="831" type="line"/>
      <point x="487" y="831" type="line"/>
      <point x="487" y="-131" type="line" smooth="yes"/>
      <point x="487" y="-293"/>
      <point x="434" y="-342"/>
      <point x="319" y="-342" type="curve" smooth="yes"/>
      <point x="274" y="-342"/>
      <point x="231" y="-334"/>
      <point x="190" y="-324" type="curve"/>
      <point x="190" y="-473" type="line"/>
      <point x="227" y="-483"/>
      <point x="279" y="-492"/>
      <point x="330" y="-492" type="curve" smooth="yes"/>
      <point x="549" y="-492"/>
      <point x="672" y="-397"/>
      <point x="672" y="-131" type="curve" smooth="yes"/>
      <point x="672" y="831" type="line"/>
      <point x="944" y="831" type="line"/>
      <point x="944" y="971" type="line"/>
      <point x="668" y="971" type="line"/>
      <point x="668" y="1112" type="line" smooth="yes"/>
      <point x="668" y="1280"/>
      <point x="721" y="1333"/>
      <point x="840" y="1333" type="curve" smooth="yes"/>
      <point x="897" y="1333"/>
      <point x="954" y="1315"/>
      <point x="999" y="1300" type="curve"/>
      <point x="1044" y="1440" type="line"/>
      <point x="993" y="1458"/>
      <point x="920" y="1483"/>
    </contour>
  </outline>
</glyph>
<glyph name="uni0196" format="2">
  <advance width="713"/>
  <unicode hex="0196"/>
  <anchor x="418" y="0" name="bottom"/>
  <anchor x="283" y="1462" name="top"/>
  <outline>
    <contour>
      <point x="498" y="-20" type="curve" smooth="yes"/>
      <point x="569" y="-20"/>
      <point x="653" y="-6"/>
      <point x="692" y="12" type="curve"/>
      <point x="692" y="164" type="line"/>
      <point x="657" y="154"/>
      <point x="584" y="141"/>
      <point x="524" y="141" type="curve" smooth="yes"/>
      <point x="414" y="141"/>
      <point x="367" y="207"/>
      <point x="367" y="338" type="curve" smooth="yes"/>
      <point x="367" y="1462" type="line"/>
      <point x="184" y="1462" type="line"/>
      <point x="184" y="322" type="line" smooth="yes"/>
      <point x="184" y="53"/>
      <point x="317" y="-20"/>
    </contour>
  </outline>
</glyph>
<glyph name="uni0197" format="2">
  <advance width="694"/>
  <unicode hex="0197"/>
  <anchor x="348" y="0" name="bottom"/>
  <anchor x="348" y="1462" name="top"/>
  <outline>
    <contour>
      <point x="610" y="1462" type="line"/>
      <point x="82" y="1462" type="line"/>
      <point x="82" y="1356" type="line"/>
      <point x="254" y="1315" type="line"/>
      <point x="254" y="829" type="line"/>
      <point x="70" y="829" type="line"/>
      <point x="70" y="670" type="line"/>
      <point x="254" y="670" type="line"/>
      <point x="254" y="145" type="line"/>
      <point x="82" y="106" type="line"/>
      <point x="82" y="0" type="line"/>
      <point x="610" y="0" type="line"/>
      <point x="610" y="106" type="line"/>
      <point x="438" y="145" type="line"/>
      <point x="438" y="670" type="line"/>
      <point x="623" y="670" type="line"/>
      <point x="623" y="829" type="line"/>
      <point x="438" y="829" type="line"/>
      <point x="438" y="1315" type="line"/>
      <point x="610" y="1356" type="line"/>
    </contour>
  </outline>
</glyph>
<glyph name="uni0198" format="2">
  <advance width="1268"/>
  <unicode hex="0198"/>
  <anchor x="635" y="0" name="bottom"/>
  <anchor x="635" y="1462" name="top"/>
  <outline>
    <contour>
      <point x="1133" y="1475" type="curve" smooth="yes"/>
      <point x="1042" y="1475"/>
      <point x="987" y="1458"/>
      <point x="885" y="1333" type="curve" smooth="yes"/>
      <point x="635" y="1026" type="line" smooth="yes"/>
      <point x="555" y="928"/>
      <point x="455" y="815"/>
      <point x="383" y="725" type="curve"/>
      <point x="383" y="1462" type="line"/>
      <point x="199" y="1462" type="line"/>
      <point x="199" y="0" type="line"/>
      <point x="383" y="0" type="line"/>
      <point x="383" y="543" type="line"/>
      <point x="545" y="700" type="line"/>
      <point x="1051" y="0" type="line"/>
      <point x="1268" y="0" type="line"/>
      <point x="670" y="829" type="line"/>
      <point x="1006" y="1227" type="line"/>
      <point x="1075" y="1311"/>
      <point x="1110" y="1321"/>
      <point x="1145" y="1321" type="curve" smooth="yes"/>
      <point x="1169" y="1321"/>
      <point x="1217" y="1319"/>
      <point x="1235" y="1315" type="curve"/>
      <point x="1235" y="1458" type="line"/>
      <point x="1210" y="1468"/>
      <point x="1180" y="1475"/>
    </contour>
  </outline>
</glyph>
<glyph name="uni019C" format="2">
  <advance width="2109"/>
  <unicode hex="019C"/>
  <anchor x="1055" y="0" name="bottom"/>
  <anchor x="1055" y="1462" name="top"/>
  <outline>
    <contour>
      <point x="588" y="-20" type="curve" smooth="yes"/>
      <point x="745" y="-20"/>
      <point x="901" y="45"/>
      <point x="983" y="184" type="curve"/>
      <point x="993" y="184" type="line"/>
      <point x="1053" y="45"/>
      <point x="1167" y="-20"/>
      <point x="1352" y="-20" type="curve" smooth="yes"/>
      <point x="1497" y="-20"/>
      <point x="1647" y="41"/>
      <point x="1722" y="168" type="curve"/>
      <point x="1733" y="168" type="line"/>
      <point x="1763" y="0" type="line"/>
      <point x="1909" y="0" type="line"/>
      <point x="1909" y="1462" type="line"/>
      <point x="1724" y="1462" type="line"/>
      <point x="1724" y="578" type="line" smooth="yes"/>
      <point x="1724" y="295"/>
      <point x="1642" y="139"/>
      <point x="1391" y="139" type="curve" smooth="yes"/>
      <point x="1214" y="139"/>
      <point x="1139" y="236"/>
      <point x="1139" y="426" type="curve" smooth="yes"/>
      <point x="1139" y="1462" type="line"/>
      <point x="954" y="1462" type="line"/>
      <point x="954" y="537" type="line" smooth="yes"/>
      <point x="954" y="279"/>
      <point x="860" y="139"/>
      <point x="616" y="139" type="curve" smooth="yes"/>
      <point x="444" y="139"/>
      <point x="369" y="236"/>
      <point x="369" y="426" type="curve" smooth="yes"/>
      <point x="369" y="1462" type="line"/>
      <point x="184" y="1462" type="line"/>
      <point x="184" y="426" type="line" smooth="yes"/>
      <point x="184" y="113"/>
      <point x="313" y="-20"/>
    </contour>
  </outline>
</glyph>
<glyph name="uni019D" format="2">
  <advance width="1556"/>
  <unicode hex="019D"/>
  <anchor x="778" y="-492" name="bottom"/>
  <anchor x="778" y="1462" name="top"/>
  <outline>
    <contour>
      <point x="92" y="-492" type="curve" smooth="yes"/>
      <point x="276" y="-492"/>
      <point x="369" y="-395"/>
      <point x="369" y="-170" type="curve" smooth="yes"/>
      <point x="369" y="817" type="line" smooth="yes"/>
      <point x="369" y="967"/>
      <point x="358" y="1118"/>
      <point x="352" y="1214" type="curve"/>
      <point x="360" y="1214" type="line"/>
      <point x="1143" y="0" type="line"/>
      <point x="1358" y="0" type="line"/>
      <point x="1358" y="1462" type="line"/>
      <point x="1186" y="1462" type="line"/>
      <point x="1186" y="637" type="line" smooth="yes"/>
      <point x="1186" y="504"/>
      <point x="1196" y="317"/>
      <point x="1200" y="252" type="curve"/>
      <point x="1192" y="252" type="line"/>
      <point x="412" y="1462" type="line"/>
      <point x="199" y="1462" type="line"/>
      <point x="199" y="-162" type="line"/>
      <point x="199" y="-291"/>
      <point x="154" y="-330"/>
      <point x="70" y="-330" type="curve" smooth="yes"/>
      <point x="35" y="-330"/>
      <point x="4" y="-322"/>
      <point x="-23" y="-309" type="curve"/>
      <point x="-23" y="-465" type="line"/>
      <point x="6" y="-481"/>
      <point x="43" y="-492"/>
    </contour>
  </outline>
</glyph>
<glyph name="Ohorn" format="2">
  <advance width="1606"/>
  <unicode hex="01A0"/>
  <anchor x="801" y="0" name="bottom"/>
  <anchor x="801" y="1462" name="top"/>
  <outline>
    <contour>
      <point x="1473" y="733" type="curve" smooth="yes"/>
      <point x="1473" y="899"/>
      <point x="1442" y="1044"/>
      <point x="1380" y="1161" type="curve"/>
      <point x="1552" y="1225"/>
      <point x="1618" y="1372"/>
      <point x="1649" y="1534" type="curve"/>
      <point x="1634" y="1556" type="line"/>
      <point x="1440" y="1556" type="line"/>
      <point x="1440" y="1415"/>
      <point x="1423" y="1303"/>
      <point x="1309" y="1272" type="curve"/>
      <point x="1196" y="1405"/>
      <point x="1026" y="1485"/>
      <point x="803" y="1485" type="curve" smooth="yes"/>
      <point x="342" y="1485"/>
      <point x="125" y="1184"/>
      <point x="125" y="735" type="curve" smooth="yes"/>
      <point x="125" y="283"/>
      <point x="342" y="-20"/>
      <point x="801" y="-20" type="curve" smooth="yes"/>
      <point x="1241" y="-20"/>
      <point x="1473" y="281"/>
    </contour>
    <contour>
      <point x="319" y="733" type="curve" smooth="yes"/>
      <point x="319" y="1100"/>
      <point x="467" y="1323"/>
      <point x="803" y="1323" type="curve" smooth="yes"/>
      <point x="1135" y="1323"/>
      <point x="1278" y="1100"/>
      <point x="1278" y="733" type="curve" smooth="yes"/>
      <point x="1278" y="365"/>
      <point x="1135" y="139"/>
      <point x="801" y="139" type="curve" smooth="yes"/>
      <point x="467" y="139"/>
      <point x="319" y="365"/>
    </contour>
  </outline>
</glyph>
<glyph name="ohorn" format="2">
  <advance width="1262"/>
  <unicode hex="01A1"/>
  <anchor x="616" y="0" name="bottom"/>
  <anchor x="621" y="1098" name="top"/>
  <outline>
    <contour>
      <point x="1128" y="551" type="curve" smooth="yes"/>
      <point x="1128" y="676"/>
      <point x="1102" y="782"/>
      <point x="1059" y="868" type="curve"/>
      <point x="1217" y="926"/>
      <point x="1286" y="1055"/>
      <point x="1323" y="1243" type="curve"/>
      <point x="1309" y="1266" type="line"/>
      <point x="1116" y="1266" type="line"/>
      <point x="1116" y="1128"/>
      <point x="1102" y="1014"/>
      <point x="979" y="977" type="curve"/>
      <point x="891" y="1067"/>
      <point x="766" y="1118"/>
      <point x="623" y="1118" type="curve" smooth="yes"/>
      <point x="307" y="1118"/>
      <point x="113" y="913"/>
      <point x="113" y="551" type="curve" smooth="yes"/>
      <point x="113" y="186"/>
      <point x="326" y="-20"/>
      <point x="616" y="-20" type="curve" smooth="yes"/>
      <point x="930" y="-20"/>
      <point x="1128" y="186"/>
    </contour>
    <contour>
      <point x="299" y="551" type="curve" smooth="yes"/>
      <point x="299" y="825"/>
      <point x="393" y="967"/>
      <point x="618" y="967" type="curve" smooth="yes"/>
      <point x="844" y="967"/>
      <point x="942" y="825"/>
      <point x="942" y="551" type="curve" smooth="yes"/>
      <point x="942" y="274"/>
      <point x="846" y="129"/>
      <point x="621" y="129" type="curve" smooth="yes"/>
      <point x="395" y="129"/>
      <point x="299" y="274"/>
    </contour>
  </outline>
</glyph>
<glyph name="uni01A2" format="2">
  <advance width="2202"/>
  <unicode hex="01A2"/>
  <anchor x="1102" y="0" name="bottom"/>
  <anchor x="1102" y="1462" name="top"/>
  <outline>
    <contour>
      <point x="1409" y="733" type="curve" smooth="yes"/>
      <point x="1409" y="918"/>
      <point x="1372" y="1075"/>
      <point x="1300" y="1200" type="curve"/>
      <point x="1352" y="1284"/>
      <point x="1442" y="1325"/>
      <point x="1585" y="1325" type="curve" smooth="yes"/>
      <point x="1757" y="1325"/>
      <point x="1833" y="1229"/>
      <point x="1833" y="1038" type="curve" smooth="yes"/>
      <point x="1833" y="0" type="line"/>
      <point x="2017" y="0" type="line"/>
      <point x="2017" y="1038" type="line" smooth="yes"/>
      <point x="2017" y="1352"/>
      <point x="1888" y="1485"/>
      <point x="1614" y="1485" type="curve" smooth="yes"/>
      <point x="1462" y="1485"/>
      <point x="1313" y="1425"/>
      <point x="1229" y="1298" type="curve"/>
      <point x="1122" y="1417"/>
      <point x="969" y="1485"/>
      <point x="770" y="1485" type="curve" smooth="yes"/>
      <point x="334" y="1485"/>
      <point x="125" y="1184"/>
      <point x="125" y="735" type="curve" smooth="yes"/>
      <point x="125" y="283"/>
      <point x="334" y="-20"/>
      <point x="768" y="-20" type="curve" smooth="yes"/>
      <point x="1188" y="-20"/>
      <point x="1409" y="281"/>
    </contour>
    <contour>
      <point x="319" y="733" type="curve" smooth="yes"/>
      <point x="319" y="1102"/>
      <point x="461" y="1323"/>
      <point x="770" y="1323" type="curve" smooth="yes"/>
      <point x="1077" y="1323"/>
      <point x="1214" y="1102"/>
      <point x="1214" y="733" type="curve" smooth="yes"/>
      <point x="1214" y="365"/>
      <point x="1077" y="139"/>
      <point x="768" y="139" type="curve" smooth="yes"/>
      <point x="461" y="139"/>
      <point x="319" y="365"/>
    </contour>
  </outline>
</glyph>
<glyph name="uni01A4" format="2">
  <advance width="1403"/>
  <unicode hex="01A4"/>
  <anchor x="702" y="0" name="bottom"/>
  <anchor x="702" y="1462" name="top"/>
  <outline>
    <contour>
      <point x="362" y="0" type="line"/>
      <point x="547" y="0" type="line"/>
      <point x="547" y="569" type="line"/>
      <point x="715" y="569" type="line" smooth="yes"/>
      <point x="1153" y="569"/>
      <point x="1298" y="791"/>
      <point x="1298" y="1032" type="curve" smooth="yes"/>
      <point x="1298" y="1305"/>
      <point x="1133" y="1462"/>
      <point x="750" y="1462" type="curve" smooth="yes"/>
      <point x="309" y="1462" type="line"/>
      <point x="113" y="1462"/>
      <point x="20" y="1380"/>
      <point x="20" y="1204" type="curve" smooth="yes"/>
      <point x="20" y="1171"/>
      <point x="31" y="1120"/>
      <point x="43" y="1092" type="curve"/>
      <point x="205" y="1092" type="line"/>
      <point x="197" y="1110"/>
      <point x="184" y="1157"/>
      <point x="184" y="1202" type="curve" smooth="yes"/>
      <point x="184" y="1264"/>
      <point x="223" y="1305"/>
      <point x="309" y="1305" type="curve" smooth="yes"/>
      <point x="362" y="1305" type="line"/>
    </contour>
    <contour>
      <point x="547" y="727" type="line"/>
      <point x="547" y="1305" type="line"/>
      <point x="733" y="1305" type="line" smooth="yes"/>
      <point x="991" y="1305"/>
      <point x="1108" y="1212"/>
      <point x="1108" y="1024" type="curve" smooth="yes"/>
      <point x="1108" y="809"/>
      <point x="973" y="727"/>
      <point x="694" y="727" type="curve" smooth="yes"/>
    </contour>
  </outline>
</glyph>
<glyph name="uni01A7" format="2">
  <advance width="1124"/>
  <unicode hex="01A7"/>
  <anchor x="563" y="0" name="bottom"/>
  <anchor x="563" y="1462" name="top"/>
  <outline>
    <contour>
      <point x="555" y="1483" type="curve" smooth="yes"/>
      <point x="412" y="1483"/>
      <point x="291" y="1450"/>
      <point x="186" y="1401" type="curve"/>
      <point x="244" y="1243" type="line"/>
      <point x="336" y="1286"/>
      <point x="444" y="1321"/>
      <point x="559" y="1321" type="curve" smooth="yes"/>
      <point x="741" y="1321"/>
      <point x="836" y="1235"/>
      <point x="836" y="1108" type="curve" smooth="yes"/>
      <point x="836" y="961"/>
      <point x="754" y="901"/>
      <point x="516" y="813" type="curve" smooth="yes"/>
      <point x="258" y="717"/>
      <point x="96" y="621"/>
      <point x="96" y="391" type="curve" smooth="yes"/>
      <point x="96" y="131"/>
      <point x="299" y="-20"/>
      <point x="618" y="-20" type="curve" smooth="yes"/>
      <point x="782" y="-20"/>
      <point x="928" y="14"/>
      <point x="1020" y="59" type="curve"/>
      <point x="1020" y="236" type="line"/>
      <point x="922" y="193"/>
      <point x="766" y="139"/>
      <point x="610" y="139" type="curve" smooth="yes"/>
      <point x="393" y="139"/>
      <point x="281" y="229"/>
      <point x="281" y="375" type="curve" smooth="yes"/>
      <point x="281" y="518"/>
      <point x="381" y="580"/>
      <point x="645" y="676" type="curve" smooth="yes"/>
      <point x="895" y="766"/>
      <point x="1022" y="883"/>
      <point x="1022" y="1110" type="curve" smooth="yes"/>
      <point x="1022" y="1341"/>
      <point x="831" y="1483"/>
    </contour>
  </outline>
</glyph>
<glyph name="uni01A8" format="2">
  <advance width="981"/>
  <unicode hex="01A8"/>
  <anchor x="492" y="0" name="bottom"/>
  <anchor x="492" y="1098" name="top"/>
  <outline>
    <contour>
      <point x="465" y="1118" type="curve" smooth="yes"/>
      <point x="352" y="1118"/>
      <point x="248" y="1090"/>
      <point x="145" y="1044" type="curve"/>
      <point x="207" y="901" type="line"/>
      <point x="299" y="940"/>
      <point x="391" y="971"/>
      <point x="477" y="971" type="curve" smooth="yes"/>
      <point x="625" y="971"/>
      <point x="705" y="920"/>
      <point x="705" y="838" type="curve" smooth="yes"/>
      <point x="705" y="745"/>
      <point x="633" y="709"/>
      <point x="422" y="629" type="curve" smooth="yes"/>
      <point x="213" y="551"/>
      <point x="92" y="479"/>
      <point x="92" y="303" type="curve" smooth="yes"/>
      <point x="92" y="90"/>
      <point x="242" y="-20"/>
      <point x="530" y="-20" type="curve" smooth="yes"/>
      <point x="684" y="-20"/>
      <point x="791" y="4"/>
      <point x="874" y="49" type="curve"/>
      <point x="874" y="213" type="line"/>
      <point x="788" y="170"/>
      <point x="655" y="125"/>
      <point x="526" y="125" type="curve" smooth="yes"/>
      <point x="344" y="125"/>
      <point x="266" y="188"/>
      <point x="266" y="287" type="curve" smooth="yes"/>
      <point x="266" y="369"/>
      <point x="322" y="418"/>
      <point x="537" y="500" type="curve" smooth="yes"/>
      <point x="750" y="582"/>
      <point x="877" y="647"/>
      <point x="877" y="827" type="curve" smooth="yes"/>
      <point x="877" y="1014"/>
      <point x="731" y="1118"/>
    </contour>
  </outline>
</glyph>
<glyph name="uni01AB" format="2">
  <advance width="739"/>
  <unicode hex="01AB"/>
  <anchor x="371" y="-492" name="bottom"/>
  <anchor x="371" y="1350" name="top"/>
  <outline>
    <contour>
      <point x="455" y="-492" type="curve" smooth="yes"/>
      <point x="618" y="-492"/>
      <point x="694" y="-395"/>
      <point x="694" y="-219" type="curve" smooth="yes"/>
      <point x="694" y="150" type="line"/>
      <point x="659" y="137"/>
      <point x="594" y="127"/>
      <point x="541" y="127" type="curve" smooth="yes"/>
      <point x="430" y="127"/>
      <point x="369" y="190"/>
      <point x="369" y="324" type="curve" smooth="yes"/>
      <point x="369" y="958" type="line"/>
      <point x="686" y="958" type="line"/>
      <point x="686" y="1098" type="line"/>
      <point x="369" y="1098" type="line"/>
      <point x="369" y="1350" type="line"/>
      <point x="262" y="1350" type="line"/>
      <point x="190" y="1116" type="line"/>
      <point x="33" y="1044" type="line"/>
      <point x="33" y="958" type="line"/>
      <point x="188" y="958" type="line"/>
      <point x="188" y="319" type="line" smooth="yes"/>
      <point x="188" y="53"/>
      <point x="338" y="-20"/>
      <point x="489" y="-20" type="curve" smooth="yes"/>
      <point x="504" y="-20"/>
      <point x="520" y="-20"/>
      <point x="532" y="-20" type="curve"/>
      <point x="532" y="-229" type="line" smooth="yes"/>
      <point x="532" y="-303"/>
      <point x="496" y="-336"/>
      <point x="434" y="-336" type="curve" smooth="yes"/>
      <point x="391" y="-336"/>
      <point x="354" y="-326"/>
      <point x="332" y="-317" type="curve"/>
      <point x="332" y="-467" type="line"/>
      <point x="358" y="-477"/>
      <point x="403" y="-492"/>
    </contour>
  </outline>
</glyph>
<glyph name="uni01AD" format="2">
  <advance width="739"/>
  <unicode hex="01AD"/>
  <anchor x="371" y="0" name="bottom"/>
  <anchor x="371" y="1567" name="top"/>
  <outline>
    <contour>
      <point x="492" y="1567" type="curve" smooth="yes"/>
      <point x="289" y="1567"/>
      <point x="190" y="1454"/>
      <point x="190" y="1251" type="curve" smooth="yes"/>
      <point x="190" y="1116" type="line"/>
      <point x="33" y="1044" type="line"/>
      <point x="33" y="958" type="line"/>
      <point x="188" y="958" type="line"/>
      <point x="188" y="319" type="line" smooth="yes"/>
      <point x="188" y="53"/>
      <point x="338" y="-20"/>
      <point x="510" y="-20" type="curve" smooth="yes"/>
      <point x="575" y="-20"/>
      <point x="655" y="-6"/>
      <point x="694" y="12" type="curve"/>
      <point x="694" y="150" type="line"/>
      <point x="659" y="137"/>
      <point x="594" y="127"/>
      <point x="541" y="127" type="curve" smooth="yes"/>
      <point x="440" y="127"/>
      <point x="369" y="190"/>
      <point x="369" y="324" type="curve" smooth="yes"/>
      <point x="369" y="958" type="line"/>
      <point x="686" y="958" type="line"/>
      <point x="686" y="1098" type="line"/>
      <point x="369" y="1098" type="line"/>
      <point x="369" y="1272" type="line"/>
      <point x="369" y="1364"/>
      <point x="406" y="1411"/>
      <point x="492" y="1411" type="curve" smooth="yes"/>
      <point x="553" y="1411"/>
      <point x="625" y="1399"/>
      <point x="649" y="1391" type="curve"/>
      <point x="649" y="1540" type="line"/>
      <point x="614" y="1552"/>
      <point x="553" y="1567"/>
    </contour>
  </outline>
</glyph>
<glyph name="uni01AE" format="2">
  <advance width="1139"/>
  <unicode hex="01AE"/>
  <anchor x="569" y="-492" name="bottom"/>
  <anchor x="569" y="1462" name="top"/>
  <outline>
    <contour>
      <point x="754" y="-492" type="curve" smooth="yes"/>
      <point x="803" y="-492"/>
      <point x="854" y="-481"/>
      <point x="883" y="-465" type="curve"/>
      <point x="883" y="-309" type="line"/>
      <point x="856" y="-322"/>
      <point x="825" y="-330"/>
      <point x="791" y="-330" type="curve" smooth="yes"/>
      <point x="707" y="-330"/>
      <point x="662" y="-291"/>
      <point x="662" y="-162" type="curve" smooth="yes"/>
      <point x="662" y="1300" type="line"/>
      <point x="1116" y="1300" type="line"/>
      <point x="1116" y="1462" type="line"/>
      <point x="20" y="1462" type="line"/>
      <point x="20" y="1300" type="line"/>
      <point x="477" y="1300" type="line"/>
      <point x="477" y="-170" type="line"/>
      <point x="477" y="-395"/>
      <point x="569" y="-492"/>
    </contour>
  </outline>
</glyph>
<glyph name="uni01B2" format="2">
  <advance width="1497"/>
  <unicode hex="01B2"/>
  <anchor x="737" y="0" name="bottom"/>
  <anchor x="737" y="1462" name="top"/>
  <anchor x="1456" y="1462" name="topright"/>
  <outline>
    <contour>
      <point x="741" y="-20" type="curve" smooth="yes"/>
      <point x="1128" y="-20"/>
      <point x="1311" y="213"/>
      <point x="1311" y="516" type="curve" smooth="yes"/>
      <point x="1311" y="1188" type="line" smooth="yes"/>
      <point x="1311" y="1386"/>
      <point x="1219" y="1483"/>
      <point x="1034" y="1483" type="curve" smooth="yes"/>
      <point x="963" y="1483"/>
      <point x="889" y="1464"/>
      <point x="848" y="1436" type="curve"/>
      <point x="848" y="1280" type="line"/>
      <point x="891" y="1305"/>
      <point x="944" y="1321"/>
      <point x="999" y="1321" type="curve" smooth="yes"/>
      <point x="1083" y="1321"/>
      <point x="1128" y="1282"/>
      <point x="1128" y="1176" type="curve" smooth="yes"/>
      <point x="1128" y="516" type="line" smooth="yes"/>
      <point x="1128" y="295"/>
      <point x="1016" y="139"/>
      <point x="752" y="139" type="curve" smooth="yes"/>
      <point x="496" y="139"/>
      <point x="369" y="276"/>
      <point x="369" y="514" type="curve" smooth="yes"/>
      <point x="369" y="1462" type="line"/>
      <point x="184" y="1462" type="line"/>
      <point x="184" y="520" type="line" smooth="yes"/>
      <point x="184" y="195"/>
      <point x="377" y="-20"/>
    </contour>
  </outline>
</glyph>
<glyph name="uni01B4" format="2">
  <advance width="1110"/>
  <unicode hex="01B4"/>
  <anchor x="555" y="-492" name="bottom"/>
  <anchor x="555" y="1098" name="top"/>
  <outline>
    <contour>
      <point x="993" y="1118" type="curve" smooth="yes"/>
      <point x="893" y="1118"/>
      <point x="840" y="1073"/>
      <point x="786" y="920" type="curve" smooth="yes"/>
      <point x="631" y="475" type="line" smooth="yes"/>
      <point x="592" y="362"/>
      <point x="549" y="242"/>
      <point x="532" y="174" type="curve"/>
      <point x="524" y="174" type="line"/>
      <point x="508" y="264"/>
      <point x="473" y="362"/>
      <point x="432" y="473" type="curve" smooth="yes"/>
      <point x="195" y="1098" type="line"/>
      <point x="2" y="1098" type="line"/>
      <point x="444" y="-4" type="line"/>
      <point x="391" y="-150" type="line" smooth="yes"/>
      <point x="346" y="-268"/>
      <point x="268" y="-344"/>
      <point x="143" y="-344" type="curve" smooth="yes"/>
      <point x="96" y="-344"/>
      <point x="51" y="-338"/>
      <point x="23" y="-332" type="curve"/>
      <point x="23" y="-475" type="line"/>
      <point x="57" y="-483"/>
      <point x="106" y="-492"/>
      <point x="172" y="-492" type="curve" smooth="yes"/>
      <point x="385" y="-492"/>
      <point x="496" y="-358"/>
      <point x="571" y="-152" type="curve" smooth="yes"/>
      <point x="946" y="860" type="line" smooth="yes"/>
      <point x="975" y="936"/>
      <point x="1001" y="971"/>
      <point x="1049" y="971" type="curve" smooth="yes"/>
      <point x="1069" y="971"/>
      <point x="1096" y="965"/>
      <point x="1110" y="961" type="curve"/>
      <point x="1110" y="1094" type="line"/>
      <point x="1079" y="1108"/>
      <point x="1040" y="1118"/>
    </contour>
  </outline>
</glyph>
<glyph name="uni01B6" format="2">
  <advance width="963"/>
  <unicode hex="01B6"/>
  <anchor x="481" y="0" name="bottom"/>
  <anchor x="481" y="1098" name="top"/>
  <outline>
    <contour>
      <point x="868" y="1098" type="line"/>
      <point x="115" y="1098" type="line"/>
      <point x="115" y="958" type="line"/>
      <point x="670" y="958" type="line"/>
      <point x="446" y="641" type="line"/>
      <point x="117" y="641" type="line"/>
      <point x="117" y="498" type="line"/>
      <point x="346" y="498" type="line"/>
      <point x="80" y="119" type="line"/>
      <point x="80" y="0" type="line"/>
      <point x="883" y="0" type="line"/>
      <point x="883" y="139" type="line"/>
      <point x="287" y="139" type="line"/>
      <point x="539" y="498" type="line"/>
      <point x="848" y="498" type="line"/>
      <point x="848" y="641" type="line"/>
      <point x="641" y="641" type="line"/>
      <point x="868" y="963" type="line"/>
    </contour>
  </outline>
</glyph>
<glyph name="uni01B8" format="2">
  <advance width="1196"/>
  <unicode hex="01B8"/>
  <anchor x="598" y="0" name="bottom"/>
  <anchor x="598" y="1462" name="top"/>
  <outline>
    <contour>
      <point x="678" y="-20" type="curve" smooth="yes"/>
      <point x="860" y="-20"/>
      <point x="1001" y="0"/>
      <point x="1124" y="59" type="curve"/>
      <point x="1124" y="227" type="line"/>
      <point x="997" y="166"/>
      <point x="838" y="131"/>
      <point x="700" y="131" type="curve" smooth="yes"/>
      <point x="436" y="131"/>
      <point x="305" y="248"/>
      <point x="305" y="436" type="curve" smooth="yes"/>
      <point x="305" y="659"/>
      <point x="465" y="752"/>
      <point x="668" y="752" type="curve" smooth="yes"/>
      <point x="827" y="752" type="line"/>
      <point x="827" y="885" type="line"/>
      <point x="408" y="1298" type="line"/>
      <point x="1083" y="1298" type="line"/>
      <point x="1083" y="1462" type="line"/>
      <point x="174" y="1462" type="line"/>
      <point x="174" y="1317" type="line"/>
      <point x="600" y="901" type="line"/>
      <point x="344" y="893"/>
      <point x="113" y="741"/>
      <point x="113" y="432" type="curve" smooth="yes"/>
      <point x="113" y="190"/>
      <point x="279" y="-20"/>
    </contour>
  </outline>
</glyph>
<glyph name="uni01B9" format="2">
  <advance width="1020"/>
  <unicode hex="01B9"/>
  <anchor x="510" y="-492" name="bottom"/>
  <anchor x="510" y="1098" name="top"/>
  <outline>
    <contour>
      <point x="590" y="-492" type="curve" smooth="yes"/>
      <point x="774" y="-492"/>
      <point x="903" y="-465"/>
      <point x="991" y="-420" type="curve"/>
      <point x="991" y="-256" type="line"/>
      <point x="901" y="-299"/>
      <point x="764" y="-342"/>
      <point x="604" y="-342" type="curve" smooth="yes"/>
      <point x="393" y="-342"/>
      <point x="250" y="-213"/>
      <point x="250" y="-18" type="curve" smooth="yes"/>
      <point x="250" y="227"/>
      <point x="416" y="324"/>
      <point x="664" y="324" type="curve" smooth="yes"/>
      <point x="784" y="324" type="line"/>
      <point x="784" y="449" type="line"/>
      <point x="336" y="946" type="line"/>
      <point x="963" y="946" type="line"/>
      <point x="963" y="1098" type="line"/>
      <point x="125" y="1098" type="line"/>
      <point x="125" y="967" type="line"/>
      <point x="573" y="467" type="line"/>
      <point x="295" y="449"/>
      <point x="70" y="299"/>
      <point x="70" y="-23" type="curve" smooth="yes"/>
      <point x="70" y="-289"/>
      <point x="266" y="-492"/>
    </contour>
  </outline>
</glyph>
<glyph name="uni01BA" format="2">
  <advance width="1020"/>
  <unicode hex="01BA"/>
  <anchor x="510" y="-492" name="bottom"/>
  <anchor x="510" y="1098" name="top"/>
  <outline>
    <contour>
      <point x="440" y="-492" type="curve" smooth="yes"/>
      <point x="582" y="-492"/>
      <point x="694" y="-469"/>
      <point x="770" y="-432" type="curve"/>
      <point x="770" y="-268" type="line"/>
      <point x="692" y="-305"/>
      <point x="582" y="-342"/>
      <point x="442" y="-342" type="curve" smooth="yes"/>
      <point x="301" y="-342"/>
      <point x="227" y="-305"/>
      <point x="227" y="-248" type="curve" smooth="yes"/>
      <point x="227" y="-188"/>
      <point x="262" y="-150"/>
      <point x="438" y="-150" type="curve" smooth="yes"/>
      <point x="786" y="-150"/>
      <point x="920" y="20"/>
      <point x="920" y="252" type="curve" smooth="yes"/>
      <point x="920" y="489"/>
      <point x="764" y="618"/>
      <point x="481" y="631" type="curve"/>
      <point x="864" y="967" type="line"/>
      <point x="864" y="1098" type="line"/>
      <point x="57" y="1098" type="line"/>
      <point x="57" y="946" type="line"/>
      <point x="610" y="946" type="line"/>
      <point x="236" y="612" type="line"/>
      <point x="236" y="487" type="line"/>
      <point x="356" y="487" type="line" smooth="yes"/>
      <point x="604" y="487"/>
      <point x="739" y="424"/>
      <point x="739" y="250" type="curve" smooth="yes"/>
      <point x="739" y="76"/>
      <point x="662" y="0"/>
      <point x="434" y="0" type="curve" smooth="yes"/>
      <point x="133" y="0"/>
      <point x="57" y="-115"/>
      <point x="57" y="-248" type="curve" smooth="yes"/>
      <point x="57" y="-418"/>
      <point x="219" y="-492"/>
    </contour>
  </outline>
</glyph>
<glyph name="uni01BB" format="2">
  <advance width="1167"/>
  <unicode hex="01BB"/>
  <anchor x="584" y="0" name="bottom"/>
  <anchor x="584" y="1567" name="top"/>
  <outline>
    <contour>
      <point x="532" y="1567" type="curve" smooth="yes"/>
      <point x="358" y="1567"/>
      <point x="221" y="1491"/>
      <point x="115" y="1395" type="curve"/>
      <point x="211" y="1274" type="line"/>
      <point x="311" y="1362"/>
      <point x="399" y="1409"/>
      <point x="528" y="1409" type="curve" smooth="yes"/>
      <point x="666" y="1409"/>
      <point x="758" y="1335"/>
      <point x="758" y="1192" type="curve" smooth="yes"/>
      <point x="758" y="1077"/>
      <point x="731" y="983"/>
      <point x="653" y="858" type="curve"/>
      <point x="160" y="858" type="line"/>
      <point x="160" y="715" type="line"/>
      <point x="553" y="715" type="line"/>
      <point x="98" y="150" type="line"/>
      <point x="98" y="0" type="line"/>
      <point x="1065" y="0" type="line"/>
      <point x="1065" y="143" type="line"/>
      <point x="299" y="143" type="line"/>
      <point x="299" y="152" type="line"/>
      <point x="760" y="715" type="line"/>
      <point x="1055" y="715" type="line"/>
      <point x="1055" y="858" type="line"/>
      <point x="850" y="858" type="line"/>
      <point x="918" y="979"/>
      <point x="944" y="1081"/>
      <point x="944" y="1196" type="curve" smooth="yes"/>
      <point x="944" y="1427"/>
      <point x="786" y="1567"/>
    </contour>
  </outline>
</glyph>
<glyph name="uni01BD" format="2">
  <advance width="1004"/>
  <unicode hex="01BD"/>
  <anchor x="502" y="0" name="bottom"/>
  <anchor x="502" y="1098" name="top"/>
  <outline>
    <contour>
      <point x="442" y="-20" type="curve" smooth="yes"/>
      <point x="764" y="-20"/>
      <point x="911" y="162"/>
      <point x="911" y="362" type="curve" smooth="yes"/>
      <point x="911" y="563"/>
      <point x="801" y="707"/>
      <point x="459" y="707" type="curve" smooth="yes"/>
      <point x="397" y="707" type="line"/>
      <point x="397" y="946" type="line"/>
      <point x="844" y="946" type="line"/>
      <point x="844" y="1098" type="line"/>
      <point x="88" y="1098" type="line"/>
      <point x="88" y="946" type="line"/>
      <point x="236" y="946" type="line"/>
      <point x="236" y="559" type="line"/>
      <point x="420" y="559" type="line" smooth="yes"/>
      <point x="631" y="559"/>
      <point x="733" y="496"/>
      <point x="733" y="350" type="curve" smooth="yes"/>
      <point x="733" y="190"/>
      <point x="604" y="127"/>
      <point x="440" y="127" type="curve" smooth="yes"/>
      <point x="291" y="127"/>
      <point x="160" y="170"/>
      <point x="68" y="213" type="curve"/>
      <point x="68" y="51" type="line"/>
      <point x="152" y="6"/>
      <point x="285" y="-20"/>
    </contour>
  </outline>
</glyph>
<glyph name="uni01BE" format="2">
  <advance width="948"/>
  <unicode hex="01BE"/>
  <anchor x="475" y="0" name="bottom"/>
  <anchor x="475" y="1350" name="top"/>
  <outline>
    <contour>
      <point x="418" y="-20" type="curve" smooth="yes"/>
      <point x="686" y="-20"/>
      <point x="856" y="90"/>
      <point x="856" y="303" type="curve" smooth="yes"/>
      <point x="856" y="469"/>
      <point x="743" y="549"/>
      <point x="555" y="618" type="curve" smooth="yes"/>
      <point x="483" y="643"/>
      <point x="459" y="676"/>
      <point x="459" y="770" type="curve" smooth="yes"/>
      <point x="459" y="958" type="line"/>
      <point x="776" y="958" type="line"/>
      <point x="776" y="1098" type="line"/>
      <point x="459" y="1098" type="line"/>
      <point x="459" y="1350" type="line"/>
      <point x="352" y="1350" type="line"/>
      <point x="281" y="1116" type="line"/>
      <point x="92" y="1044" type="line"/>
      <point x="92" y="958" type="line"/>
      <point x="279" y="958" type="line"/>
      <point x="279" y="774" type="line" smooth="yes"/>
      <point x="279" y="606"/>
      <point x="330" y="535"/>
      <point x="449" y="485" type="curve" smooth="yes"/>
      <point x="633" y="410"/>
      <point x="682" y="365"/>
      <point x="682" y="287" type="curve" smooth="yes"/>
      <point x="682" y="188"/>
      <point x="604" y="125"/>
      <point x="422" y="125" type="curve" smooth="yes"/>
      <point x="293" y="125"/>
      <point x="160" y="170"/>
      <point x="74" y="213" type="curve"/>
      <point x="74" y="49" type="line"/>
      <point x="158" y="4"/>
      <point x="264" y="-20"/>
    </contour>
  </outline>
</glyph>
<glyph name="uni01BF" format="2">
  <advance width="1202"/>
  <unicode hex="01BF"/>
  <anchor x="602" y="-492" name="bottom"/>
  <anchor x="602" y="1098" name="top"/>
  <outline>
    <contour>
      <point x="678" y="1118" type="curve" smooth="yes"/>
      <point x="510" y="1118"/>
      <point x="416" y="1042"/>
      <point x="354" y="948" type="curve"/>
      <point x="346" y="948" type="line"/>
      <point x="322" y="1098" type="line"/>
      <point x="174" y="1098" type="line"/>
      <point x="174" y="-492" type="line"/>
      <point x="354" y="-492" type="line"/>
      <point x="354" y="-20" type="line"/>
      <point x="793" y="8"/>
      <point x="1104" y="272"/>
      <point x="1104" y="662" type="curve" smooth="yes"/>
      <point x="1104" y="963"/>
      <point x="924" y="1118"/>
    </contour>
    <contour>
      <point x="641" y="967" type="curve" smooth="yes"/>
      <point x="815" y="967"/>
      <point x="918" y="844"/>
      <point x="918" y="657" type="curve" smooth="yes"/>
      <point x="918" y="367"/>
      <point x="707" y="172"/>
      <point x="354" y="127" type="curve" smooth="yes"/>
      <point x="354" y="586" type="line"/>
      <point x="354" y="842"/>
      <point x="434" y="967"/>
    </contour>
  </outline>
</glyph>
<glyph name="uni01C0" format="2">
  <advance width="688"/>
  <unicode hex="01C0"/>
  <anchor x="344" y="0" name="bottom"/>
  <anchor x="344" y="1556" name="top"/>
  <outline>
    <contour>
      <point x="264" y="0" type="line"/>
      <point x="424" y="0" type="line"/>
      <point x="424" y="1556" type="line"/>
      <point x="264" y="1556" type="line"/>
    </contour>
  </outline>
</glyph>
<glyph name="uni021D" format="2">
  <advance width="1016"/>
  <unicode hex="021D"/>
  <anchor x="492" y="-354" name="bottom"/>
  <anchor x="477" y="1098" name="top"/>
  <outline>
    <contour>
      <point x="61" y="-492" type="line"/>
      <point x="578" y="-387"/>
      <point x="915" y="-219"/>
      <point x="915" y="137" type="curve" smooth="yes"/>
      <point x="915" y="324"/>
      <point x="817" y="420"/>
      <point x="696" y="477" type="curve"/>
      <point x="813" y="551"/>
      <point x="881" y="649"/>
      <point x="881" y="778" type="curve" smooth="yes"/>
      <point x="881" y="1022"/>
      <point x="702" y="1118"/>
      <point x="479" y="1118" type="curve" smooth="yes"/>
      <point x="346" y="1118"/>
      <point x="217" y="1092"/>
      <point x="92" y="1022" type="curve"/>
      <point x="154" y="891" type="line"/>
      <point x="254" y="944"/>
      <point x="356" y="973"/>
      <point x="477" y="973" type="curve" smooth="yes"/>
      <point x="614" y="973"/>
      <point x="696" y="903"/>
      <point x="696" y="778" type="curve" smooth="yes"/>
      <point x="696" y="639"/>
      <point x="608" y="549"/>
      <point x="248" y="455" type="curve"/>
      <point x="283" y="319" type="line"/>
      <point x="383" y="344"/>
      <point x="475" y="371"/>
      <point x="555" y="403" type="curve"/>
      <point x="664" y="348"/>
      <point x="729" y="276"/>
      <point x="729" y="137" type="curve" smooth="yes"/>
      <point x="729" y="-96"/>
      <point x="500" y="-238"/>
      <point x="61" y="-330" type="curve"/>
    </contour>
  </outline>
</glyph>
<glyph name="uni0220" format="2">
  <advance width="1518"/>
  <unicode hex="0220"/>
  <anchor x="760" y="-492" name="bottom"/>
  <anchor x="760" y="1462" name="top"/>
  <outline>
    <contour>
      <point x="825" y="1485" type="curve" smooth="yes"/>
      <point x="659" y="1485"/>
      <point x="477" y="1403"/>
      <point x="385" y="1276" type="curve"/>
      <point x="375" y="1276" type="line"/>
      <point x="344" y="1464" type="line"/>
      <point x="199" y="1464" type="line"/>
      <point x="199" y="0" type="line"/>
      <point x="383" y="0" type="line"/>
      <point x="383" y="866" type="line" smooth="yes"/>
      <point x="383" y="1149"/>
      <point x="502" y="1325"/>
      <point x="803" y="1325" type="curve" smooth="yes"/>
      <point x="1049" y="1325"/>
      <point x="1147" y="1198"/>
      <point x="1147" y="944" type="curve" smooth="yes"/>
      <point x="1147" y="-492" type="line"/>
      <point x="1331" y="-492" type="line"/>
      <point x="1331" y="944" type="line" smooth="yes"/>
      <point x="1331" y="1323"/>
      <point x="1141" y="1485"/>
    </contour>
  </outline>
</glyph>
<glyph name="uni0222" format="2">
  <advance width="1374"/>
  <unicode hex="0222"/>
  <anchor x="688" y="0" name="bottom"/>
  <anchor x="688" y="1462" name="top"/>
  <outline>
    <contour>
      <point x="682" y="-20" type="curve" smooth="yes"/>
      <point x="1028" y="-20"/>
      <point x="1255" y="160"/>
      <point x="1255" y="475" type="curve" smooth="yes"/>
      <point x="1255" y="696"/>
      <point x="1133" y="829"/>
      <point x="946" y="887" type="curve"/>
      <point x="1108" y="954"/>
      <point x="1182" y="1092"/>
      <point x="1182" y="1282" type="curve" smooth="yes"/>
      <point x="1182" y="1462" type="line"/>
      <point x="997" y="1462" type="line"/>
      <point x="997" y="1282" type="line" smooth="yes"/>
      <point x="997" y="1096"/>
      <point x="901" y="963"/>
      <point x="686" y="963" type="curve" smooth="yes"/>
      <point x="473" y="963"/>
      <point x="377" y="1096"/>
      <point x="377" y="1282" type="curve" smooth="yes"/>
      <point x="377" y="1462" type="line"/>
      <point x="193" y="1462" type="line"/>
      <point x="193" y="1282" type="line" smooth="yes"/>
      <point x="193" y="1094"/>
      <point x="266" y="954"/>
      <point x="424" y="889" type="curve"/>
      <point x="231" y="831"/>
      <point x="119" y="698"/>
      <point x="119" y="475" type="curve" smooth="yes"/>
      <point x="119" y="160"/>
      <point x="362" y="-20"/>
    </contour>
    <contour>
      <point x="686" y="139" type="curve" smooth="yes"/>
      <point x="428" y="139"/>
      <point x="313" y="264"/>
      <point x="313" y="475" type="curve" smooth="yes"/>
      <point x="313" y="686"/>
      <point x="426" y="805"/>
      <point x="684" y="805" type="curve" smooth="yes"/>
      <point x="944" y="805"/>
      <point x="1061" y="686"/>
      <point x="1061" y="475" type="curve" smooth="yes"/>
      <point x="1061" y="264"/>
      <point x="944" y="139"/>
    </contour>
  </outline>
</glyph>
<glyph name="uni0235" format="2">
  <advance width="1526"/>
  <unicode hex="0235"/>
  <anchor x="764" y="0" name="bottom"/>
  <anchor x="764" y="1098" name="top"/>
  <outline>
    <contour>
      <point x="899" y="-61" type="line"/>
      <point x="922" y="4"/>
      <point x="944" y="63"/>
      <point x="969" y="111" type="curve"/>
      <point x="1020" y="31"/>
      <point x="1108" y="-20"/>
      <point x="1233" y="-20" type="curve" smooth="yes"/>
      <point x="1409" y="-20"/>
      <point x="1505" y="74"/>
      <point x="1505" y="225" type="curve" smooth="yes"/>
      <point x="1505" y="360"/>
      <point x="1415" y="471"/>
      <point x="1239" y="471" type="curve" smooth="yes"/>
      <point x="1188" y="471"/>
      <point x="1143" y="463"/>
      <point x="1100" y="446" type="curve"/>
      <point x="1100" y="715" type="line"/>
      <point x="1100" y="997"/>
      <point x="965" y="1118"/>
      <point x="702" y="1118" type="curve" smooth="yes"/>
      <point x="563" y="1118"/>
      <point x="428" y="1063"/>
      <point x="356" y="948" type="curve"/>
      <point x="346" y="948" type="line"/>
      <point x="319" y="1098" type="line"/>
      <point x="174" y="1098" type="line"/>
      <point x="174" y="0" type="line"/>
      <point x="354" y="0" type="line"/>
      <point x="354" y="569" type="line" smooth="yes"/>
      <point x="354" y="825"/>
      <point x="432" y="967"/>
      <point x="676" y="967" type="curve" smooth="yes"/>
      <point x="844" y="967"/>
      <point x="922" y="879"/>
      <point x="922" y="702" type="curve" smooth="yes"/>
      <point x="922" y="420" type="line" smooth="yes"/>
      <point x="922" y="383"/>
      <point x="922" y="346"/>
      <point x="922" y="309" type="curve"/>
      <point x="862" y="233"/>
      <point x="811" y="133"/>
      <point x="762" y="0" type="curve"/>
    </contour>
    <contour>
      <point x="1231" y="119" type="curve" smooth="yes"/>
      <point x="1139" y="119"/>
      <point x="1104" y="184"/>
      <point x="1100" y="283" type="curve"/>
      <point x="1141" y="315"/>
      <point x="1182" y="332"/>
      <point x="1225" y="332" type="curve" smooth="yes"/>
      <point x="1296" y="332"/>
      <point x="1341" y="295"/>
      <point x="1341" y="225" type="curve" smooth="yes"/>
      <point x="1341" y="166"/>
      <point x="1311" y="119"/>
    </contour>
  </outline>
</glyph>
<glyph name="jdotless" format="2">
  <advance width="528"/>
  <unicode hex="0237"/>
  <anchor x="45" y="-492" name="bottom"/>
  <anchor x="264" y="1098" name="top"/>
  <outline>
    <contour>
      <point x="45" y="-492" type="curve" smooth="yes"/>
      <point x="260" y="-492"/>
      <point x="354" y="-369"/>
      <point x="354" y="-164" type="curve" smooth="yes"/>
      <point x="354" y="1098" type="line"/>
      <point x="174" y="1098" type="line"/>
      <point x="174" y="-170" type="line" smooth="yes"/>
      <point x="174" y="-303"/>
      <point x="111" y="-342"/>
      <point x="23" y="-342" type="curve" smooth="yes"/>
      <point x="-31" y="-342"/>
      <point x="-72" y="-334"/>
      <point x="-113" y="-322" type="curve"/>
      <point x="-113" y="-467" type="line"/>
      <point x="-76" y="-481"/>
      <point x="-25" y="-492"/>
    </contour>
  </outline>
</glyph>
<glyph name="uni0238" format="2">
  <advance width="1991"/>
  <unicode hex="0238"/>
  <anchor x="995" y="0" name="bottom"/>
  <anchor x="995" y="1556" name="top"/>
  <outline>
    <contour>
      <point x="598" y="-20" type="curve" smooth="yes"/>
      <point x="774" y="-20"/>
      <point x="915" y="59"/>
      <point x="993" y="236" type="curve"/>
      <point x="1069" y="66"/>
      <point x="1204" y="-20"/>
      <point x="1389" y="-20" type="curve" smooth="yes"/>
      <point x="1694" y="-20"/>
      <point x="1878" y="172"/>
      <point x="1878" y="549" type="curve" smooth="yes"/>
      <point x="1878" y="926"/>
      <point x="1698" y="1116"/>
      <point x="1425" y="1116" type="curve" smooth="yes"/>
      <point x="1253" y="1116"/>
      <point x="1147" y="1044"/>
      <point x="1085" y="952" type="curve"/>
      <point x="1075" y="952" type="line"/>
      <point x="1079" y="997"/>
      <point x="1085" y="1085"/>
      <point x="1085" y="1178" type="curve" smooth="yes"/>
      <point x="1085" y="1556" type="line"/>
      <point x="905" y="1556" type="line"/>
      <point x="905" y="1171" type="line" smooth="yes"/>
      <point x="905" y="1077"/>
      <point x="913" y="991"/>
      <point x="918" y="956" type="curve"/>
      <point x="905" y="956" type="line"/>
      <point x="838" y="1047"/>
      <point x="735" y="1118"/>
      <point x="565" y="1118" type="curve" smooth="yes"/>
      <point x="293" y="1118"/>
      <point x="113" y="924"/>
      <point x="113" y="547" type="curve" smooth="yes"/>
      <point x="113" y="170"/>
      <point x="291" y="-20"/>
    </contour>
    <contour>
      <point x="604" y="129" type="curve" smooth="yes"/>
      <point x="395" y="129"/>
      <point x="299" y="281"/>
      <point x="299" y="543" type="curve" smooth="yes"/>
      <point x="299" y="803"/>
      <point x="395" y="969"/>
      <point x="590" y="969" type="curve" smooth="yes"/>
      <point x="834" y="969"/>
      <point x="907" y="827"/>
      <point x="907" y="555" type="curve" smooth="yes"/>
      <point x="907" y="295"/>
      <point x="803" y="129"/>
    </contour>
    <contour>
      <point x="1391" y="129" type="curve" smooth="yes"/>
      <point x="1182" y="129"/>
      <point x="1085" y="279"/>
      <point x="1085" y="555" type="curve" smooth="yes"/>
      <point x="1085" y="836"/>
      <point x="1161" y="967"/>
      <point x="1395" y="967" type="curve" smooth="yes"/>
      <point x="1595" y="967"/>
      <point x="1692" y="827"/>
      <point x="1692" y="551" type="curve" smooth="yes"/>
      <point x="1692" y="279"/>
      <point x="1597" y="129"/>
    </contour>
  </outline>
</glyph>
<glyph name="uni023C" format="2">
  <advance width="983"/>
  <unicode hex="023C"/>
  <anchor x="575" y="-426" name="bottom"/>
  <anchor x="582" y="1556" name="top"/>
  <outline>
    <contour>
      <point x="981" y="1556" type="line"/>
      <point x="844" y="1556" type="line"/>
      <point x="137" y="-426" type="line"/>
      <point x="274" y="-426" type="line"/>
    </contour>
    <component base="c"/>
  </outline>
</glyph>
<glyph name="uni023F" format="2">
  <advance width="981"/>
  <unicode hex="023F"/>
  <anchor x="492" y="-492" name="bottom"/>
  <anchor x="492" y="1098" name="top"/>
  <outline>
    <contour>
      <point x="737" y="-492" type="curve" smooth="yes"/>
      <point x="801" y="-492"/>
      <point x="872" y="-477"/>
      <point x="903" y="-463" type="curve"/>
      <point x="903" y="-315" type="line"/>
      <point x="868" y="-330"/>
      <point x="803" y="-342"/>
      <point x="756" y="-342" type="curve" smooth="yes"/>
      <point x="643" y="-342"/>
      <point x="575" y="-291"/>
      <point x="541" y="-170" type="curve" smooth="yes"/>
      <point x="524" y="-113"/>
      <point x="504" y="-61"/>
      <point x="475" y="-18" type="curve"/>
      <point x="735" y="-14"/>
      <point x="889" y="98"/>
      <point x="889" y="303" type="curve" smooth="yes"/>
      <point x="889" y="479"/>
      <point x="768" y="551"/>
      <point x="559" y="629" type="curve" smooth="yes"/>
      <point x="348" y="709"/>
      <point x="276" y="745"/>
      <point x="276" y="838" type="curve" smooth="yes"/>
      <point x="276" y="920"/>
      <point x="356" y="971"/>
      <point x="504" y="971" type="curve" smooth="yes"/>
      <point x="610" y="971"/>
      <point x="713" y="940"/>
      <point x="805" y="901" type="curve"/>
      <point x="866" y="1044" type="line"/>
      <point x="764" y="1090"/>
      <point x="649" y="1118"/>
      <point x="516" y="1118" type="curve" smooth="yes"/>
      <point x="270" y="1118"/>
      <point x="104" y="1014"/>
      <point x="104" y="827" type="curve" smooth="yes"/>
      <point x="104" y="647"/>
      <point x="231" y="582"/>
      <point x="444" y="500" type="curve" smooth="yes"/>
      <point x="659" y="418"/>
      <point x="715" y="369"/>
      <point x="715" y="287" type="curve" smooth="yes"/>
      <point x="715" y="188"/>
      <point x="637" y="125"/>
      <point x="455" y="125" type="curve" smooth="yes"/>
      <point x="326" y="125"/>
      <point x="193" y="170"/>
      <point x="106" y="213" type="curve"/>
      <point x="106" y="49" type="line"/>
      <point x="139" y="31"/>
      <point x="166" y="18"/>
      <point x="211" y="6" type="curve" smooth="yes"/>
      <point x="295" y="-16"/>
      <point x="342" y="-72"/>
      <point x="367" y="-170" type="curve" smooth="yes"/>
      <point x="422" y="-391"/>
      <point x="514" y="-492"/>
    </contour>
  </outline>
</glyph>
<glyph name="uni0240" format="2">
  <advance width="963"/>
  <unicode hex="0240"/>
  <anchor x="481" y="-492" name="bottom"/>
  <anchor x="481" y="1098" name="top"/>
  <outline>
    <contour>
      <point x="793" y="-492" type="curve" smooth="yes"/>
      <point x="862" y="-492"/>
      <point x="905" y="-481"/>
      <point x="940" y="-467" type="curve"/>
      <point x="940" y="-319" type="line"/>
      <point x="899" y="-334"/>
      <point x="860" y="-342"/>
      <point x="805" y="-342" type="curve" smooth="yes"/>
      <point x="672" y="-342"/>
      <point x="598" y="-291"/>
      <point x="567" y="-170" type="curve" smooth="yes"/>
      <point x="522" y="6"/>
      <point x="446" y="111"/>
      <point x="287" y="139" type="curve"/>
      <point x="868" y="963" type="line"/>
      <point x="868" y="1098" type="line"/>
      <point x="115" y="1098" type="line"/>
      <point x="115" y="958" type="line"/>
      <point x="670" y="958" type="line"/>
      <point x="80" y="119" type="line"/>
      <point x="80" y="0" type="line"/>
      <point x="152" y="0" type="line" smooth="yes"/>
      <point x="307" y="0"/>
      <point x="360" y="-51"/>
      <point x="393" y="-170" type="curve" smooth="yes"/>
      <point x="451" y="-383"/>
      <point x="547" y="-492"/>
    </contour>
  </outline>
</glyph>
<glyph name="uni0242" format="2">
  <advance width="893"/>
  <unicode hex="0242"/>
  <anchor x="446" y="0" name="bottom"/>
  <anchor x="446" y="1098" name="top"/>
  <outline>
    <contour>
      <point x="391" y="1118" type="curve" smooth="yes"/>
      <point x="248" y="1118"/>
      <point x="121" y="1073"/>
      <point x="25" y="1004" type="curve"/>
      <point x="92" y="868" type="line"/>
      <point x="174" y="930"/>
      <point x="289" y="969"/>
      <point x="383" y="969" type="curve" smooth="yes"/>
      <point x="555" y="969"/>
      <point x="635" y="883"/>
      <point x="635" y="721" type="curve" smooth="yes"/>
      <point x="635" y="528"/>
      <point x="496" y="371"/>
      <point x="254" y="295" type="curve"/>
      <point x="254" y="0" type="line"/>
      <point x="434" y="0" type="line"/>
      <point x="434" y="201" type="line"/>
      <point x="719" y="334"/>
      <point x="819" y="543"/>
      <point x="819" y="727" type="curve" smooth="yes"/>
      <point x="819" y="971"/>
      <point x="672" y="1118"/>
    </contour>
  </outline>
</glyph>
<glyph name="uni0244" format="2">
  <advance width="1497"/>
  <unicode hex="0244"/>
  <anchor x="745" y="0" name="bottom"/>
  <anchor x="750" y="1462" name="top"/>
  <outline>
    <contour>
      <point x="20" y="725" type="line"/>
      <point x="1477" y="725" type="line"/>
      <point x="1477" y="885" type="line"/>
      <point x="20" y="885" type="line"/>
    </contour>
    <component base="U"/>
  </outline>
</glyph>
<glyph name="uni0247" format="2">
  <advance width="1155"/>
  <unicode hex="0247"/>
  <anchor x="616" y="-426" name="bottom"/>
  <anchor x="584" y="1556" name="top"/>
  <outline>
    <contour>
      <point x="981" y="1556" type="line"/>
      <point x="844" y="1556" type="line"/>
      <point x="158" y="-426" type="line"/>
      <point x="295" y="-426" type="line"/>
    </contour>
    <component base="e"/>
  </outline>
</glyph>
<glyph name="uni0249" format="2">
  <advance width="528"/>
  <unicode hex="0249"/>
  <anchor x="264" y="-492" name="bottom"/>
  <anchor x="264" y="1509" name="top"/>
  <outline>
    <contour>
      <point x="45" y="-492" type="curve" smooth="yes"/>
      <point x="260" y="-492"/>
      <point x="354" y="-369"/>
      <point x="354" y="-164" type="curve" smooth="yes"/>
      <point x="354" y="508" type="line"/>
      <point x="508" y="508" type="line"/>
      <point x="508" y="653" type="line"/>
      <point x="354" y="653" type="line"/>
      <point x="354" y="1098" type="line"/>
      <point x="174" y="1098" type="line"/>
      <point x="174" y="653" type="line"/>
      <point x="20" y="653" type="line"/>
      <point x="20" y="508" type="line"/>
      <point x="174" y="508" type="line"/>
      <point x="174" y="-170" type="line" smooth="yes"/>
      <point x="174" y="-303"/>
      <point x="111" y="-342"/>
      <point x="23" y="-342" type="curve" smooth="yes"/>
      <point x="-31" y="-342"/>
      <point x="-72" y="-334"/>
      <point x="-113" y="-322" type="curve"/>
      <point x="-113" y="-467" type="line"/>
      <point x="-76" y="-481"/>
      <point x="-25" y="-492"/>
    </contour>
    <contour>
      <point x="160" y="1395" type="curve" smooth="yes"/>
      <point x="160" y="1317"/>
      <point x="207" y="1280"/>
      <point x="266" y="1280" type="curve" smooth="yes"/>
      <point x="322" y="1280"/>
      <point x="371" y="1317"/>
      <point x="371" y="1395" type="curve" smooth="yes"/>
      <point x="371" y="1475"/>
      <point x="322" y="1509"/>
      <point x="266" y="1509" type="curve" smooth="yes"/>
      <point x="207" y="1509"/>
      <point x="160" y="1475"/>
    </contour>
  </outline>
</glyph>
<glyph name="uni024A" format="2">
  <advance width="1571"/>
  <unicode hex="024A"/>
  <anchor x="786" y="-492" name="bottom"/>
  <anchor x="786" y="1462" name="top"/>
  <outline>
    <contour>
      <point x="743" y="1483" type="curve" smooth="yes"/>
      <point x="342" y="1483"/>
      <point x="125" y="1186"/>
      <point x="125" y="733" type="curve" smooth="yes"/>
      <point x="125" y="279"/>
      <point x="344" y="-20"/>
      <point x="733" y="-20" type="curve" smooth="yes"/>
      <point x="952" y="-20"/>
      <point x="1108" y="61"/>
      <point x="1184" y="188" type="curve"/>
      <point x="1194" y="188" type="line"/>
      <point x="1190" y="141"/>
      <point x="1186" y="92"/>
      <point x="1186" y="41" type="curve" smooth="yes"/>
      <point x="1186" y="-170" type="line"/>
      <point x="1186" y="-395"/>
      <point x="1292" y="-492"/>
      <point x="1477" y="-492" type="curve" smooth="yes"/>
      <point x="1526" y="-492"/>
      <point x="1563" y="-481"/>
      <point x="1591" y="-465" type="curve"/>
      <point x="1591" y="-309" type="line"/>
      <point x="1565" y="-322"/>
      <point x="1534" y="-330"/>
      <point x="1499" y="-330" type="curve" smooth="yes"/>
      <point x="1415" y="-330"/>
      <point x="1370" y="-291"/>
      <point x="1370" y="-162" type="curve" smooth="yes"/>
      <point x="1370" y="1462" type="line"/>
      <point x="1225" y="1462" type="line"/>
      <point x="1194" y="1274" type="line"/>
      <point x="1184" y="1274" type="line"/>
      <point x="1108" y="1401"/>
      <point x="942" y="1483"/>
    </contour>
    <contour>
      <point x="739" y="1323" type="curve" smooth="yes"/>
      <point x="1100" y="1323"/>
      <point x="1186" y="1147"/>
      <point x="1186" y="889" type="curve" smooth="yes"/>
      <point x="1186" y="573" type="line" smooth="yes"/>
      <point x="1186" y="315"/>
      <point x="1100" y="139"/>
      <point x="741" y="139" type="curve" smooth="yes"/>
      <point x="471" y="139"/>
      <point x="317" y="362"/>
      <point x="317" y="731" type="curve" smooth="yes"/>
      <point x="317" y="1100"/>
      <point x="471" y="1323"/>
    </contour>
  </outline>
</glyph>
<glyph name="uni024B" format="2">
  <advance width="1260"/>
  <unicode hex="024B"/>
  <anchor x="631" y="-492" name="bottom"/>
  <anchor x="631" y="1098" name="top"/>
  <outline>
    <contour>
      <point x="565" y="1118" type="curve" smooth="yes"/>
      <point x="297" y="1118"/>
      <point x="113" y="924"/>
      <point x="113" y="547" type="curve" smooth="yes"/>
      <point x="113" y="170"/>
      <point x="293" y="-20"/>
      <point x="559" y="-20" type="curve" smooth="yes"/>
      <point x="733" y="-20"/>
      <point x="840" y="53"/>
      <point x="903" y="147" type="curve"/>
      <point x="915" y="147" type="line"/>
      <point x="907" y="100"/>
      <point x="905" y="27"/>
      <point x="905" y="-23" type="curve" smooth="yes"/>
      <point x="905" y="-150" type="line"/>
      <point x="905" y="-418"/>
      <point x="1016" y="-492"/>
      <point x="1145" y="-492" type="curve" smooth="yes"/>
      <point x="1212" y="-492"/>
      <point x="1264" y="-477"/>
      <point x="1288" y="-459" type="curve"/>
      <point x="1288" y="-322" type="line"/>
      <point x="1270" y="-332"/>
      <point x="1231" y="-344"/>
      <point x="1186" y="-344" type="curve" smooth="yes"/>
      <point x="1118" y="-344"/>
      <point x="1085" y="-309"/>
      <point x="1085" y="-147" type="curve" smooth="yes"/>
      <point x="1085" y="1098" type="line"/>
      <point x="942" y="1098" type="line"/>
      <point x="915" y="948" type="line"/>
      <point x="907" y="948" type="line"/>
      <point x="842" y="1042"/>
      <point x="737" y="1118"/>
    </contour>
    <contour>
      <point x="590" y="969" type="curve" smooth="yes"/>
      <point x="827" y="969"/>
      <point x="907" y="823"/>
      <point x="907" y="545" type="curve" smooth="yes"/>
      <point x="907" y="508" type="line" smooth="yes"/>
      <point x="903" y="252"/>
      <point x="819" y="129"/>
      <point x="594" y="129" type="curve" smooth="yes"/>
      <point x="393" y="129"/>
      <point x="299" y="283"/>
      <point x="299" y="543" type="curve" smooth="yes"/>
      <point x="299" y="803"/>
      <point x="393" y="969"/>
    </contour>
  </outline>
</glyph>
<glyph name="uni024E" format="2">
  <advance width="1159"/>
  <unicode hex="024E"/>
  <anchor x="580" y="0" name="bottom"/>
  <anchor x="580" y="1462" name="top"/>
  <outline>
    <contour>
      <point x="1139" y="1200" type="line"/>
      <point x="20" y="1200" type="line"/>
      <point x="20" y="1040" type="line"/>
      <point x="1139" y="1040" type="line"/>
    </contour>
    <component base="Y"/>
  </outline>
</glyph>
<glyph name="uni0254" format="2">
  <advance width="983"/>
  <unicode hex="0254"/>
  <anchor x="389" y="0" name="bottom"/>
  <anchor x="389" y="1098" name="top"/>
  <outline>
    <contour>
      <point x="385" y="1118" type="curve" smooth="yes"/>
      <point x="260" y="1118"/>
      <point x="133" y="1092"/>
      <point x="68" y="1059" type="curve"/>
      <point x="123" y="909" type="line"/>
      <point x="188" y="942"/>
      <point x="291" y="963"/>
      <point x="367" y="963" type="curve" smooth="yes"/>
      <point x="584" y="963"/>
      <point x="684" y="834"/>
      <point x="684" y="561" type="curve" smooth="yes"/>
      <point x="684" y="287"/>
      <point x="578" y="135"/>
      <point x="358" y="135" type="curve" smooth="yes"/>
      <point x="244" y="135"/>
      <point x="156" y="164"/>
      <point x="80" y="199" type="curve"/>
      <point x="80" y="39" type="line"/>
      <point x="154" y="0"/>
      <point x="238" y="-20"/>
      <point x="356" y="-20" type="curve" smooth="yes"/>
      <point x="645" y="-20"/>
      <point x="870" y="164"/>
      <point x="870" y="569" type="curve" smooth="yes"/>
      <point x="870" y="958"/>
      <point x="674" y="1118"/>
    </contour>
  </outline>
</glyph>
<glyph name="uni0255" format="2">
  <advance width="1087"/>
  <unicode hex="0255"/>
  <anchor x="545" y="0" name="bottom"/>
  <anchor x="545" y="1098" name="top"/>
  <outline>
    <contour>
      <point x="641" y="1118" type="curve" smooth="yes"/>
      <point x="346" y="1118"/>
      <point x="127" y="948"/>
      <point x="127" y="543" type="curve" smooth="yes"/>
      <point x="127" y="399"/>
      <point x="154" y="285"/>
      <point x="205" y="199" type="curve"/>
      <point x="164" y="129"/>
      <point x="127" y="49"/>
      <point x="98" y="-37" type="curve"/>
      <point x="236" y="-100" type="line"/>
      <point x="258" y="-33"/>
      <point x="285" y="27"/>
      <point x="311" y="78" type="curve"/>
      <point x="397" y="10"/>
      <point x="510" y="-20"/>
      <point x="641" y="-20" type="curve" smooth="yes"/>
      <point x="813" y="-20"/>
      <point x="1001" y="63"/>
      <point x="1001" y="270" type="curve" smooth="yes"/>
      <point x="1001" y="418"/>
      <point x="885" y="520"/>
      <point x="688" y="520" type="curve" smooth="yes"/>
      <point x="559" y="520"/>
      <point x="436" y="463"/>
      <point x="334" y="362" type="curve"/>
      <point x="319" y="416"/>
      <point x="313" y="475"/>
      <point x="313" y="545" type="curve" smooth="yes"/>
      <point x="313" y="819"/>
      <point x="418" y="961"/>
      <point x="637" y="961" type="curve" smooth="yes"/>
      <point x="713" y="961"/>
      <point x="809" y="934"/>
      <point x="874" y="909" type="curve"/>
      <point x="930" y="1059" type="line"/>
      <point x="864" y="1092"/>
      <point x="752" y="1118"/>
    </contour>
    <contour>
      <point x="676" y="371" type="curve" smooth="yes"/>
      <point x="791" y="371"/>
      <point x="831" y="317"/>
      <point x="831" y="266" type="curve" smooth="yes"/>
      <point x="831" y="182"/>
      <point x="750" y="129"/>
      <point x="639" y="129" type="curve" smooth="yes"/>
      <point x="537" y="129"/>
      <point x="459" y="162"/>
      <point x="406" y="223" type="curve"/>
      <point x="492" y="330"/>
      <point x="586" y="371"/>
    </contour>
  </outline>
</glyph>
<glyph name="uni0256" format="2">
  <advance width="1260"/>
  <unicode hex="0256"/>
  <anchor x="631" y="-492" name="bottom"/>
  <anchor x="631" y="1556" name="top"/>
  <anchor x="1133" y="1556" name="topright"/>
  <outline>
    <contour>
      <point x="1163" y="-492" type="curve" smooth="yes"/>
      <point x="1237" y="-492"/>
      <point x="1292" y="-477"/>
      <point x="1319" y="-459" type="curve"/>
      <point x="1319" y="-322" type="line"/>
      <point x="1298" y="-332"/>
      <point x="1253" y="-344"/>
      <point x="1202" y="-344" type="curve" smooth="yes"/>
      <point x="1124" y="-344"/>
      <point x="1085" y="-309"/>
      <point x="1085" y="-147" type="curve" smooth="yes"/>
      <point x="1085" y="1556" type="line"/>
      <point x="905" y="1556" type="line"/>
      <point x="905" y="1118" type="line" smooth="yes"/>
      <point x="905" y="1077"/>
      <point x="913" y="991"/>
      <point x="918" y="956" type="curve"/>
      <point x="905" y="956" type="line"/>
      <point x="838" y="1047"/>
      <point x="735" y="1118"/>
      <point x="565" y="1118" type="curve" smooth="yes"/>
      <point x="293" y="1118"/>
      <point x="113" y="924"/>
      <point x="113" y="547" type="curve" smooth="yes"/>
      <point x="113" y="170"/>
      <point x="293" y="-20"/>
      <point x="565" y="-20" type="curve" smooth="yes"/>
      <point x="735" y="-20"/>
      <point x="838" y="51"/>
      <point x="905" y="141" type="curve"/>
      <point x="918" y="141" type="line"/>
      <point x="913" y="106"/>
      <point x="905" y="20"/>
      <point x="905" y="-20" type="curve" smooth="yes"/>
      <point x="905" y="-150" type="line" smooth="yes"/>
      <point x="905" y="-418"/>
      <point x="1024" y="-492"/>
    </contour>
    <contour>
      <point x="592" y="129" type="curve" smooth="yes"/>
      <point x="395" y="129"/>
      <point x="299" y="281"/>
      <point x="299" y="543" type="curve" smooth="yes"/>
      <point x="299" y="803"/>
      <point x="395" y="969"/>
      <point x="590" y="969" type="curve" smooth="yes"/>
      <point x="834" y="969"/>
      <point x="907" y="817"/>
      <point x="907" y="545" type="curve" smooth="yes"/>
      <point x="907" y="512" type="line" smooth="yes"/>
      <point x="907" y="256"/>
      <point x="823" y="129"/>
    </contour>
  </outline>
</glyph>
<glyph name="uni0259" format="2">
  <advance width="1155"/>
  <unicode hex="0259"/>
  <anchor x="578" y="0" name="bottom"/>
  <anchor x="561" y="1098" name="top"/>
  <outline>
    <contour>
      <point x="514" y="1118" type="curve" smooth="yes"/>
      <point x="365" y="1118"/>
      <point x="266" y="1096"/>
      <point x="154" y="1047" type="curve"/>
      <point x="154" y="889" type="line"/>
      <point x="268" y="938"/>
      <point x="367" y="965"/>
      <point x="506" y="965" type="curve" smooth="yes"/>
      <point x="725" y="965"/>
      <point x="850" y="831"/>
      <point x="856" y="584" type="curve"/>
      <point x="104" y="584" type="line"/>
      <point x="104" y="475" type="line" smooth="yes"/>
      <point x="104" y="176"/>
      <point x="276" y="-20"/>
      <point x="557" y="-20" type="curve" smooth="yes"/>
      <point x="848" y="-20"/>
      <point x="1042" y="197"/>
      <point x="1042" y="557" type="curve" smooth="yes"/>
      <point x="1042" y="924"/>
      <point x="827" y="1118"/>
    </contour>
    <contour>
      <point x="852" y="440" type="line"/>
      <point x="834" y="244"/>
      <point x="731" y="127"/>
      <point x="559" y="127" type="curve" smooth="yes"/>
      <point x="377" y="127"/>
      <point x="295" y="254"/>
      <point x="293" y="440" type="curve"/>
    </contour>
  </outline>
</glyph>
<glyph name="schwahook" format="2">
  <advance width="1606"/>
  <unicode hex="025A"/>
  <anchor x="537" y="0" name="bottom"/>
  <anchor x="537" y="1098" name="top"/>
  <outline>
    <contour>
      <point x="557" y="-20" type="curve" smooth="yes"/>
      <point x="889" y="-20"/>
      <point x="1040" y="221"/>
      <point x="1040" y="600" type="curve"/>
      <point x="1110" y="616" type="line"/>
      <point x="1167" y="424"/>
      <point x="1257" y="358"/>
      <point x="1368" y="358" type="curve" smooth="yes"/>
      <point x="1454" y="358"/>
      <point x="1540" y="391"/>
      <point x="1606" y="436" type="curve"/>
      <point x="1569" y="571" type="line"/>
      <point x="1518" y="539"/>
      <point x="1458" y="516"/>
      <point x="1403" y="516" type="curve" smooth="yes"/>
      <point x="1346" y="516"/>
      <point x="1307" y="555"/>
      <point x="1272" y="676" type="curve" smooth="yes"/>
      <point x="1237" y="799" type="line"/>
      <point x="1020" y="741" type="line"/>
      <point x="958" y="987"/>
      <point x="770" y="1118"/>
      <point x="514" y="1118" type="curve" smooth="yes"/>
      <point x="365" y="1118"/>
      <point x="266" y="1096"/>
      <point x="154" y="1047" type="curve"/>
      <point x="154" y="889" type="line"/>
      <point x="268" y="938"/>
      <point x="367" y="965"/>
      <point x="506" y="965" type="curve" smooth="yes"/>
      <point x="690" y="965"/>
      <point x="807" y="868"/>
      <point x="844" y="692" type="curve"/>
      <point x="104" y="492" type="line"/>
      <point x="104" y="172"/>
      <point x="272" y="-20"/>
    </contour>
    <contour>
      <point x="559" y="127" type="curve" smooth="yes"/>
      <point x="391" y="127"/>
      <point x="309" y="236"/>
      <point x="295" y="397" type="curve"/>
      <point x="856" y="549" type="line"/>
      <point x="856" y="360"/>
      <point x="817" y="127"/>
    </contour>
  </outline>
</glyph>
<glyph name="uni0260" format="2">
  <advance width="1260"/>
  <unicode hex="0260"/>
  <anchor x="631" y="-492" name="bottom"/>
  <anchor x="631" y="1567" name="top"/>
  <outline>
    <contour>
      <point x="1155" y="1567" type="curve" smooth="yes"/>
      <point x="987" y="1567"/>
      <point x="905" y="1468"/>
      <point x="905" y="1280" type="curve" smooth="yes"/>
      <point x="905" y="1133" type="line" smooth="yes"/>
      <point x="905" y="1081"/>
      <point x="913" y="999"/>
      <point x="918" y="952" type="curve"/>
      <point x="905" y="952" type="line"/>
      <point x="823" y="1065"/>
      <point x="705" y="1118"/>
      <point x="561" y="1118" type="curve" smooth="yes"/>
      <point x="279" y="1118"/>
      <point x="111" y="897"/>
      <point x="111" y="547" type="curve" smooth="yes"/>
      <point x="111" y="188"/>
      <point x="279" y="-20"/>
      <point x="563" y="-20" type="curve" smooth="yes"/>
      <point x="713" y="-20"/>
      <point x="827" y="33"/>
      <point x="903" y="145" type="curve"/>
      <point x="911" y="145" type="line"/>
      <point x="911" y="141"/>
      <point x="905" y="43"/>
      <point x="905" y="10" type="curve" smooth="yes"/>
      <point x="905" y="-33" type="line" smooth="yes"/>
      <point x="905" y="-225"/>
      <point x="791" y="-342"/>
      <point x="602" y="-342" type="curve" smooth="yes"/>
      <point x="444" y="-342"/>
      <point x="301" y="-311"/>
      <point x="197" y="-256" type="curve"/>
      <point x="197" y="-422" type="line"/>
      <point x="301" y="-469"/>
      <point x="432" y="-492"/>
      <point x="592" y="-492" type="curve" smooth="yes"/>
      <point x="928" y="-492"/>
      <point x="1083" y="-332"/>
      <point x="1083" y="-18" type="curve" smooth="yes"/>
      <point x="1083" y="1292" type="line" smooth="yes"/>
      <point x="1083" y="1378"/>
      <point x="1120" y="1411"/>
      <point x="1182" y="1411" type="curve" smooth="yes"/>
      <point x="1227" y="1411"/>
      <point x="1270" y="1399"/>
      <point x="1288" y="1391" type="curve"/>
      <point x="1288" y="1540" type="line"/>
      <point x="1260" y="1552"/>
      <point x="1206" y="1567"/>
    </contour>
    <contour>
      <point x="586" y="967" type="curve" smooth="yes"/>
      <point x="807" y="967"/>
      <point x="907" y="846"/>
      <point x="907" y="547" type="curve" smooth="yes"/>
      <point x="907" y="504" type="line" smooth="yes"/>
      <point x="907" y="240"/>
      <point x="811" y="127"/>
      <point x="590" y="127" type="curve" smooth="yes"/>
      <point x="397" y="127"/>
      <point x="297" y="274"/>
      <point x="297" y="545" type="curve" smooth="yes"/>
      <point x="297" y="815"/>
      <point x="401" y="967"/>
    </contour>
  </outline>
</glyph>
<glyph name="uni0262" format="2">
  <advance width="1176"/>
  <unicode hex="0262"/>
  <anchor x="588" y="0" name="bottom"/>
  <anchor x="588" y="1098" name="top"/>
  <anchor x="1063" y="1098" name="topright"/>
  <outline>
    <contour>
      <point x="662" y="1118" type="curve" smooth="yes"/>
      <point x="356" y="1118"/>
      <point x="113" y="948"/>
      <point x="113" y="543" type="curve" smooth="yes"/>
      <point x="113" y="154"/>
      <point x="322" y="-20"/>
      <point x="614" y="-20" type="curve" smooth="yes"/>
      <point x="774" y="-20"/>
      <point x="895" y="8"/>
      <point x="1028" y="57" type="curve"/>
      <point x="1028" y="610" type="line"/>
      <point x="612" y="610" type="line"/>
      <point x="612" y="465" type="line"/>
      <point x="848" y="465" type="line"/>
      <point x="848" y="164" type="line"/>
      <point x="772" y="143"/>
      <point x="711" y="135"/>
      <point x="612" y="135" type="curve" smooth="yes"/>
      <point x="406" y="135"/>
      <point x="299" y="281"/>
      <point x="299" y="545" type="curve" smooth="yes"/>
      <point x="299" y="819"/>
      <point x="420" y="961"/>
      <point x="672" y="961" type="curve" smooth="yes"/>
      <point x="760" y="961"/>
      <point x="860" y="932"/>
      <point x="946" y="889" type="curve"/>
      <point x="1012" y="1044" type="line"/>
      <point x="928" y="1094"/>
      <point x="809" y="1118"/>
    </contour>
  </outline>
</glyph>
<glyph name="uni0264" format="2">
  <advance width="1040"/>
  <unicode hex="0264"/>
  <anchor x="520" y="0" name="bottom"/>
  <anchor x="520" y="1098" name="top"/>
  <outline>
    <contour>
      <point x="958" y="1118" type="curve" smooth="yes"/>
      <point x="864" y="1118"/>
      <point x="813" y="1071"/>
      <point x="752" y="983" type="curve" smooth="yes"/>
      <point x="627" y="807" type="line" smooth="yes"/>
      <point x="592" y="758"/>
      <point x="549" y="692"/>
      <point x="522" y="647" type="curve"/>
      <point x="514" y="647" type="line"/>
      <point x="489" y="696"/>
      <point x="451" y="756"/>
      <point x="414" y="807" type="curve" smooth="yes"/>
      <point x="289" y="979" type="line" smooth="yes"/>
      <point x="213" y="1083"/>
      <point x="166" y="1118"/>
      <point x="84" y="1118" type="curve" smooth="yes"/>
      <point x="45" y="1118"/>
      <point x="18" y="1108"/>
      <point x="-6" y="1098" type="curve"/>
      <point x="-6" y="961" type="line"/>
      <point x="8" y="965"/>
      <point x="25" y="973"/>
      <point x="49" y="971" type="curve" smooth="yes"/>
      <point x="88" y="967"/>
      <point x="117" y="946"/>
      <point x="162" y="887" type="curve" smooth="yes"/>
      <point x="422" y="535" type="line"/>
      <point x="328" y="410"/>
      <point x="283" y="330"/>
      <point x="283" y="213" type="curve" smooth="yes"/>
      <point x="283" y="70"/>
      <point x="377" y="-18"/>
      <point x="518" y="-18" type="curve" smooth="yes"/>
      <point x="659" y="-18"/>
      <point x="754" y="72"/>
      <point x="754" y="211" type="curve" smooth="yes"/>
      <point x="754" y="328"/>
      <point x="713" y="401"/>
      <point x="614" y="535" type="curve"/>
      <point x="862" y="874" type="line" smooth="yes"/>
      <point x="922" y="956"/>
      <point x="950" y="971"/>
      <point x="983" y="971" type="curve" smooth="yes"/>
      <point x="1004" y="971"/>
      <point x="1030" y="965"/>
      <point x="1044" y="961" type="curve"/>
      <point x="1044" y="1102" type="line"/>
      <point x="1020" y="1112"/>
      <point x="993" y="1118"/>
    </contour>
    <contour>
      <point x="518" y="412" type="curve"/>
      <point x="555" y="362"/>
      <point x="594" y="301"/>
      <point x="594" y="229" type="curve" smooth="yes"/>
      <point x="594" y="164"/>
      <point x="559" y="131"/>
      <point x="518" y="131" type="curve" smooth="yes"/>
      <point x="477" y="131"/>
      <point x="442" y="162"/>
      <point x="442" y="227" type="curve" smooth="yes"/>
      <point x="442" y="293"/>
      <point x="473" y="348"/>
    </contour>
  </outline>
</glyph>
<glyph name="uni026A" format="2">
  <advance width="655"/>
  <unicode hex="026A"/>
  <anchor x="328" y="0" name="bottom"/>
  <anchor x="328" y="1098" name="top"/>
  <outline>
    <contour>
      <point x="582" y="1098" type="line"/>
      <point x="74" y="1098" type="line"/>
      <point x="74" y="991" type="line"/>
      <point x="238" y="954" type="line"/>
      <point x="238" y="141" type="line"/>
      <point x="74" y="106" type="line"/>
      <point x="74" y="0" type="line"/>
      <point x="582" y="0" type="line"/>
      <point x="582" y="106" type="line"/>
      <point x="418" y="141" type="line"/>
      <point x="418" y="954" type="line"/>
      <point x="582" y="991" type="line"/>
    </contour>
  </outline>
</glyph>
<glyph name="uni026C" format="2">
  <advance width="717"/>
  <unicode hex="026C"/>
  <anchor x="358" y="0" name="bottom"/>
  <anchor x="358" y="1556" name="top"/>
  <outline>
    <contour>
      <point x="303" y="0" type="line"/>
      <point x="483" y="0" type="line"/>
      <point x="483" y="608" type="line"/>
      <point x="696" y="608" type="line"/>
      <point x="696" y="756" type="line"/>
      <point x="483" y="756" type="line"/>
      <point x="483" y="1556" type="line"/>
      <point x="303" y="1556" type="line"/>
      <point x="303" y="999" type="line"/>
      <point x="276" y="1024"/>
      <point x="236" y="1036"/>
      <point x="199" y="1036" type="curve" smooth="yes"/>
      <point x="37" y="1036"/>
      <point x="-20" y="930"/>
      <point x="-20" y="823" type="curve" smooth="yes"/>
      <point x="-20" y="698"/>
      <point x="49" y="608"/>
      <point x="217" y="608" type="curve" smooth="yes"/>
      <point x="303" y="608" type="line"/>
    </contour>
    <contour>
      <point x="231" y="756" type="line" smooth="yes"/>
      <point x="182" y="756"/>
      <point x="143" y="774"/>
      <point x="143" y="823" type="curve" smooth="yes"/>
      <point x="143" y="856"/>
      <point x="162" y="889"/>
      <point x="215" y="889" type="curve" smooth="yes"/>
      <point x="283" y="889"/>
      <point x="303" y="842"/>
      <point x="303" y="778" type="curve" smooth="yes"/>
      <point x="303" y="756" type="line"/>
    </contour>
  </outline>
</glyph>
<glyph name="uni0270" format="2">
  <advance width="1915"/>
  <unicode hex="0270"/>
  <anchor x="958" y="-492" name="bottom"/>
  <anchor x="958" y="1098" name="top"/>
  <outline>
    <contour>
      <point x="1561" y="-492" type="line"/>
      <point x="1741" y="-492" type="line"/>
      <point x="1741" y="1098" type="line"/>
      <point x="1561" y="1098" type="line"/>
      <point x="1561" y="528" type="line" smooth="yes"/>
      <point x="1561" y="272"/>
      <point x="1489" y="131"/>
      <point x="1268" y="131" type="curve" smooth="yes"/>
      <point x="1114" y="131"/>
      <point x="1042" y="219"/>
      <point x="1042" y="391" type="curve" smooth="yes"/>
      <point x="1042" y="1098" type="line"/>
      <point x="864" y="1098" type="line"/>
      <point x="864" y="492" type="line" smooth="yes"/>
      <point x="864" y="258"/>
      <point x="780" y="131"/>
      <point x="567" y="131" type="curve" smooth="yes"/>
      <point x="416" y="131"/>
      <point x="344" y="219"/>
      <point x="344" y="391" type="curve" smooth="yes"/>
      <point x="344" y="1098" type="line"/>
      <point x="166" y="1098" type="line"/>
      <point x="166" y="383" type="line" smooth="yes"/>
      <point x="166" y="100"/>
      <point x="289" y="-20"/>
      <point x="537" y="-20" type="curve" smooth="yes"/>
      <point x="680" y="-20"/>
      <point x="815" y="39"/>
      <point x="889" y="164" type="curve"/>
      <point x="899" y="164" type="line"/>
      <point x="952" y="39"/>
      <point x="1067" y="-20"/>
      <point x="1235" y="-20" type="curve" smooth="yes"/>
      <point x="1366" y="-20"/>
      <point x="1491" y="35"/>
      <point x="1559" y="150" type="curve"/>
      <point x="1573" y="150" type="line"/>
      <point x="1569" y="115"/>
      <point x="1561" y="29"/>
      <point x="1561" y="-12" type="curve" smooth="yes"/>
    </contour>
  </outline>
</glyph>
<glyph name="uni0272" format="2">
  <advance width="1266"/>
  <unicode hex="0272"/>
  <anchor x="633" y="-492" name="bottom"/>
  <anchor x="633" y="1098" name="top"/>
  <anchor x="1151" y="1098" name="topright"/>
  <outline>
    <contour>
      <point x="702" y="1118" type="curve" smooth="yes"/>
      <point x="563" y="1118"/>
      <point x="428" y="1063"/>
      <point x="356" y="948" type="curve"/>
      <point x="346" y="948" type="line"/>
      <point x="319" y="1098" type="line"/>
      <point x="174" y="1098" type="line"/>
      <point x="174" y="-147" type="line" smooth="yes"/>
      <point x="174" y="-309"/>
      <point x="131" y="-344"/>
      <point x="47" y="-344" type="curve" smooth="yes"/>
      <point x="10" y="-344"/>
      <point x="-37" y="-332"/>
      <point x="-59" y="-322" type="curve"/>
      <point x="-59" y="-459" type="line"/>
      <point x="-31" y="-477"/>
      <point x="25" y="-492"/>
      <point x="84" y="-492" type="curve" smooth="yes"/>
      <point x="229" y="-492"/>
      <point x="354" y="-418"/>
      <point x="354" y="-150" type="curve" smooth="yes"/>
      <point x="354" y="569" type="line"/>
      <point x="354" y="825"/>
      <point x="432" y="967"/>
      <point x="676" y="967" type="curve" smooth="yes"/>
      <point x="844" y="967"/>
      <point x="922" y="879"/>
      <point x="922" y="702" type="curve" smooth="yes"/>
      <point x="922" y="0" type="line"/>
      <point x="1100" y="0" type="line"/>
      <point x="1100" y="715" type="line" smooth="yes"/>
      <point x="1100" y="997"/>
      <point x="965" y="1118"/>
    </contour>
  </outline>
</glyph>
<glyph name="uni0274" format="2">
  <advance width="1294"/>
  <unicode hex="0274"/>
  <anchor x="647" y="0" name="bottom"/>
  <anchor x="647" y="1098" name="top"/>
  <anchor x="1184" y="1098" name="topright"/>
  <outline>
    <contour>
      <point x="174" y="0" type="line"/>
      <point x="344" y="0" type="line"/>
      <point x="344" y="612" type="line" smooth="yes"/>
      <point x="344" y="676"/>
      <point x="340" y="829"/>
      <point x="336" y="883" type="curve"/>
      <point x="897" y="0" type="line"/>
      <point x="1120" y="0" type="line"/>
      <point x="1120" y="1098" type="line"/>
      <point x="950" y="1098" type="line"/>
      <point x="950" y="463" type="line" smooth="yes"/>
      <point x="950" y="412"/>
      <point x="958" y="268"/>
      <point x="963" y="213" type="curve"/>
      <point x="395" y="1098" type="line"/>
      <point x="174" y="1098" type="line"/>
    </contour>
  </outline>
</glyph>
<glyph name="uni0276" format="2">
  <advance width="1769"/>
  <unicode hex="0276"/>
  <anchor x="885" y="0" name="bottom"/>
  <anchor x="885" y="1098" name="top"/>
  <outline>
    <contour>
      <point x="623" y="1118" type="curve" smooth="yes"/>
      <point x="307" y="1118"/>
      <point x="113" y="913"/>
      <point x="113" y="551" type="curve" smooth="yes"/>
      <point x="113" y="186"/>
      <point x="326" y="-20"/>
      <point x="616" y="-20" type="curve" smooth="yes"/>
      <point x="750" y="-20"/>
      <point x="860" y="27"/>
      <point x="942" y="111" type="curve"/>
      <point x="942" y="0" type="line"/>
      <point x="1663" y="0" type="line"/>
      <point x="1663" y="150" type="line"/>
      <point x="1112" y="150" type="line"/>
      <point x="1112" y="498" type="line"/>
      <point x="1630" y="498" type="line"/>
      <point x="1630" y="647" type="line"/>
      <point x="1112" y="647" type="line"/>
      <point x="1112" y="948" type="line"/>
      <point x="1663" y="948" type="line"/>
      <point x="1663" y="1098" type="line"/>
      <point x="942" y="1098" type="line"/>
      <point x="942" y="985" type="line"/>
      <point x="860" y="1071"/>
      <point x="752" y="1118"/>
    </contour>
    <contour>
      <point x="618" y="967" type="curve" smooth="yes"/>
      <point x="842" y="967"/>
      <point x="942" y="811"/>
      <point x="942" y="551" type="curve" smooth="yes"/>
      <point x="942" y="291"/>
      <point x="842" y="129"/>
      <point x="621" y="129" type="curve" smooth="yes"/>
      <point x="397" y="129"/>
      <point x="299" y="291"/>
      <point x="299" y="551" type="curve" smooth="yes"/>
      <point x="299" y="811"/>
      <point x="430" y="967"/>
    </contour>
  </outline>
</glyph>
<glyph name="omegaclosed" format="2">
  <advance width="1602"/>
  <unicode hex="0277"/>
  <anchor x="801" y="0" name="bottom"/>
  <anchor x="801" y="1098" name="top"/>
  <outline>
    <contour>
      <point x="805" y="1118" type="curve" smooth="yes"/>
      <point x="346" y="1118"/>
      <point x="115" y="860"/>
      <point x="115" y="465" type="curve" smooth="yes"/>
      <point x="115" y="174"/>
      <point x="252" y="-20"/>
      <point x="506" y="-20" type="curve" smooth="yes"/>
      <point x="657" y="-20"/>
      <point x="752" y="43"/>
      <point x="795" y="164" type="curve"/>
      <point x="805" y="164" type="line"/>
      <point x="850" y="43"/>
      <point x="944" y="-20"/>
      <point x="1096" y="-20" type="curve" smooth="yes"/>
      <point x="1350" y="-20"/>
      <point x="1487" y="174"/>
      <point x="1487" y="465" type="curve" smooth="yes"/>
      <point x="1487" y="866"/>
      <point x="1243" y="1118"/>
    </contour>
    <contour>
      <point x="805" y="969" type="curve" smooth="yes"/>
      <point x="1135" y="969"/>
      <point x="1307" y="780"/>
      <point x="1307" y="469" type="curve" smooth="yes"/>
      <point x="1307" y="246"/>
      <point x="1219" y="129"/>
      <point x="1081" y="129" type="curve" smooth="yes"/>
      <point x="958" y="129"/>
      <point x="887" y="225"/>
      <point x="887" y="395" type="curve" smooth="yes"/>
      <point x="887" y="664" type="line"/>
      <point x="715" y="664" type="line"/>
      <point x="715" y="395" type="line" smooth="yes"/>
      <point x="715" y="242"/>
      <point x="653" y="129"/>
      <point x="518" y="129" type="curve" smooth="yes"/>
      <point x="383" y="129"/>
      <point x="295" y="246"/>
      <point x="295" y="469" type="curve" smooth="yes"/>
      <point x="295" y="780"/>
      <point x="473" y="969"/>
    </contour>
  </outline>
</glyph>
<glyph name="uni027A" format="2">
  <advance width="846"/>
  <unicode hex="027A"/>
  <anchor x="424" y="0" name="bottom"/>
  <anchor x="424" y="1556" name="top"/>
  <outline>
    <contour>
      <point x="160" y="-20" type="curve" smooth="yes"/>
      <point x="313" y="-20"/>
      <point x="426" y="80"/>
      <point x="496" y="201" type="curve"/>
      <point x="504" y="201" type="line"/>
      <point x="524" y="0" type="line"/>
      <point x="672" y="0" type="line"/>
      <point x="672" y="1556" type="line"/>
      <point x="492" y="1556" type="line"/>
      <point x="492" y="512" type="line" smooth="yes"/>
      <point x="492" y="291"/>
      <point x="342" y="143"/>
      <point x="172" y="143" type="curve" smooth="yes"/>
      <point x="135" y="143"/>
      <point x="88" y="150"/>
      <point x="53" y="158" type="curve"/>
      <point x="31" y="-8" type="line"/>
      <point x="68" y="-16"/>
      <point x="119" y="-20"/>
    </contour>
  </outline>
</glyph>
<glyph name="rfishhookreversed" format="2">
  <advance width="709"/>
  <unicode hex="027F"/>
  <anchor x="354" y="-492" name="bottom"/>
  <anchor x="354" y="1098" name="top"/>
  <outline>
    <contour>
      <point x="213" y="1118" type="curve" smooth="yes"/>
      <point x="158" y="1118"/>
      <point x="86" y="1102"/>
      <point x="37" y="1085" type="curve"/>
      <point x="59" y="932" type="line"/>
      <point x="94" y="942"/>
      <point x="145" y="963"/>
      <point x="219" y="963" type="curve" smooth="yes"/>
      <point x="315" y="963"/>
      <point x="362" y="905"/>
      <point x="362" y="774" type="curve" smooth="yes"/>
      <point x="362" y="-492" type="line"/>
      <point x="541" y="-492" type="line"/>
      <point x="541" y="776" type="line" smooth="yes"/>
      <point x="541" y="1044"/>
      <point x="410" y="1118"/>
    </contour>
  </outline>
</glyph>
<glyph name="eshsquatreversed" format="2">
  <advance width="528"/>
  <unicode hex="0285"/>
  <anchor x="264" y="-492" name="bottom"/>
  <anchor x="264" y="1098" name="top"/>
  <outline>
    <contour>
      <point x="444" y="-492" type="curve" smooth="yes"/>
      <point x="504" y="-492"/>
      <point x="559" y="-477"/>
      <point x="588" y="-459" type="curve"/>
      <point x="588" y="-322" type="line"/>
      <point x="565" y="-332"/>
      <point x="518" y="-344"/>
      <point x="481" y="-344" type="curve" smooth="yes"/>
      <point x="397" y="-344"/>
      <point x="354" y="-309"/>
      <point x="354" y="-147" type="curve" smooth="yes"/>
      <point x="354" y="797" type="line" smooth="yes"/>
      <point x="354" y="1044"/>
      <point x="240" y="1118"/>
      <point x="104" y="1118" type="curve" smooth="yes"/>
      <point x="49" y="1118"/>
      <point x="-2" y="1104"/>
      <point x="-29" y="1085" type="curve"/>
      <point x="-29" y="948" type="line"/>
      <point x="-8" y="958"/>
      <point x="33" y="971"/>
      <point x="63" y="971" type="curve" smooth="yes"/>
      <point x="137" y="971"/>
      <point x="174" y="922"/>
      <point x="174" y="788" type="curve" smooth="yes"/>
      <point x="174" y="-150" type="line"/>
      <point x="174" y="-418"/>
      <point x="299" y="-492"/>
    </contour>
  </outline>
</glyph>
<glyph name="eshcurl" format="2">
  <advance width="528"/>
  <unicode hex="0286"/>
  <anchor x="264" y="-492" name="bottom"/>
  <anchor x="264" y="1567" name="top"/>
  <outline>
    <contour>
      <point x="68" y="-492" type="curve" smooth="yes"/>
      <point x="223" y="-492"/>
      <point x="348" y="-418"/>
      <point x="354" y="-147" type="curve"/>
      <point x="508" y="-147" type="line"/>
      <point x="508" y="0" type="line"/>
      <point x="354" y="0" type="line"/>
      <point x="354" y="1223" type="line" smooth="yes"/>
      <point x="354" y="1384"/>
      <point x="397" y="1419"/>
      <point x="481" y="1419" type="curve" smooth="yes"/>
      <point x="518" y="1419"/>
      <point x="565" y="1407"/>
      <point x="588" y="1397" type="curve"/>
      <point x="588" y="1534" type="line"/>
      <point x="559" y="1552"/>
      <point x="504" y="1567"/>
      <point x="444" y="1567" type="curve" smooth="yes"/>
      <point x="299" y="1567"/>
      <point x="174" y="1493"/>
      <point x="174" y="1225" type="curve" smooth="yes"/>
      <point x="174" y="0" type="line"/>
      <point x="72" y="0" type="line"/>
      <point x="-139" y="0"/>
      <point x="-225" y="-100"/>
      <point x="-225" y="-250" type="curve" smooth="yes"/>
      <point x="-225" y="-393"/>
      <point x="-106" y="-492"/>
    </contour>
    <contour>
      <point x="53" y="-344" type="curve" smooth="yes"/>
      <point x="-31" y="-344"/>
      <point x="-55" y="-299"/>
      <point x="-55" y="-246" type="curve" smooth="yes"/>
      <point x="-55" y="-170"/>
      <point x="8" y="-147"/>
      <point x="84" y="-147" type="curve" smooth="yes"/>
      <point x="174" y="-147" type="line"/>
      <point x="174" y="-178" type="line" smooth="yes"/>
      <point x="174" y="-299"/>
      <point x="127" y="-344"/>
    </contour>
  </outline>
</glyph>
<glyph name="uni0288" format="2">
  <advance width="739"/>
  <unicode hex="0288"/>
  <anchor x="422" y="-492" name="bottom"/>
  <anchor x="322" y="1350" name="top"/>
  <anchor x="686" y="1350" name="topright"/>
  <outline>
    <contour>
      <point x="541" y="-344" type="curve" smooth="yes"/>
      <point x="440" y="-344"/>
      <point x="369" y="-281"/>
      <point x="369" y="-147" type="curve" smooth="yes"/>
      <point x="369" y="958" type="line"/>
      <point x="686" y="958" type="line"/>
      <point x="686" y="1098" type="line"/>
      <point x="369" y="1098" type="line"/>
      <point x="369" y="1350" type="line"/>
      <point x="262" y="1350" type="line"/>
      <point x="190" y="1116" type="line"/>
      <point x="33" y="1044" type="line"/>
      <point x="33" y="958" type="line"/>
      <point x="188" y="958" type="line"/>
      <point x="188" y="-152" type="line" smooth="yes"/>
      <point x="188" y="-418"/>
      <point x="338" y="-492"/>
      <point x="510" y="-492" type="curve" smooth="yes"/>
      <point x="575" y="-492"/>
      <point x="655" y="-477"/>
      <point x="694" y="-459" type="curve"/>
      <point x="694" y="-322" type="line"/>
      <point x="659" y="-334"/>
      <point x="594" y="-344"/>
    </contour>
  </outline>
</glyph>
<glyph name="uni028A" format="2">
  <advance width="1239"/>
  <unicode hex="028A"/>
  <anchor x="621" y="0" name="bottom"/>
  <anchor x="621" y="1098" name="top"/>
  <outline>
    <contour>
      <point x="616" y="-20" type="curve" smooth="yes"/>
      <point x="930" y="-20"/>
      <point x="1128" y="174"/>
      <point x="1128" y="498" type="curve" smooth="yes"/>
      <point x="1128" y="682"/>
      <point x="1055" y="834"/>
      <point x="911" y="948" type="curve"/>
      <point x="1178" y="948" type="line"/>
      <point x="1178" y="1098" type="line"/>
      <point x="694" y="1098" type="line"/>
      <point x="694" y="956" type="line"/>
      <point x="823" y="901"/>
      <point x="942" y="707"/>
      <point x="942" y="498" type="curve" smooth="yes"/>
      <point x="942" y="279"/>
      <point x="842" y="129"/>
      <point x="621" y="129" type="curve" smooth="yes"/>
      <point x="397" y="129"/>
      <point x="299" y="279"/>
      <point x="299" y="496" type="curve" smooth="yes"/>
      <point x="299" y="731"/>
      <point x="414" y="897"/>
      <point x="545" y="956" type="curve"/>
      <point x="545" y="1098" type="line"/>
      <point x="61" y="1098" type="line"/>
      <point x="61" y="948" type="line"/>
      <point x="328" y="948" type="line"/>
      <point x="188" y="842"/>
      <point x="113" y="698"/>
      <point x="113" y="496" type="curve" smooth="yes"/>
      <point x="113" y="174"/>
      <point x="326" y="-20"/>
    </contour>
  </outline>
</glyph>
<glyph name="uni028B" format="2">
  <advance width="1255"/>
  <unicode hex="028B"/>
  <anchor x="629" y="0" name="bottom"/>
  <anchor x="629" y="1098" name="top"/>
  <outline>
    <contour>
      <point x="786" y="1118" type="curve" smooth="yes"/>
      <point x="754" y="1118"/>
      <point x="694" y="1110"/>
      <point x="657" y="1098" type="curve"/>
      <point x="657" y="944" type="line"/>
      <point x="694" y="956"/>
      <point x="737" y="963"/>
      <point x="774" y="963" type="curve" smooth="yes"/>
      <point x="877" y="963"/>
      <point x="915" y="924"/>
      <point x="915" y="774" type="curve" smooth="yes"/>
      <point x="915" y="481" type="line"/>
      <point x="915" y="221"/>
      <point x="827" y="129"/>
      <point x="631" y="129" type="curve" smooth="yes"/>
      <point x="434" y="129"/>
      <point x="346" y="217"/>
      <point x="346" y="481" type="curve" smooth="yes"/>
      <point x="346" y="1098" type="line"/>
      <point x="166" y="1098" type="line"/>
      <point x="166" y="475" type="line" smooth="yes"/>
      <point x="166" y="133"/>
      <point x="309" y="-20"/>
      <point x="631" y="-20" type="curve" smooth="yes"/>
      <point x="946" y="-20"/>
      <point x="1096" y="145"/>
      <point x="1096" y="475" type="curve" smooth="yes"/>
      <point x="1096" y="780" type="line" smooth="yes"/>
      <point x="1096" y="1049"/>
      <point x="977" y="1118"/>
    </contour>
  </outline>
</glyph>
<glyph name="ezhcurl" format="2">
  <advance width="1020"/>
  <unicode hex="0293"/>
  <anchor x="510" y="-492" name="bottom"/>
  <anchor x="510" y="1098" name="top"/>
  <outline>
    <contour>
      <point x="354" y="-492" type="curve" smooth="yes"/>
      <point x="541" y="-492"/>
      <point x="692" y="-436"/>
      <point x="797" y="-344" type="curve"/>
      <point x="842" y="-387"/>
      <point x="889" y="-436"/>
      <point x="938" y="-492" type="curve"/>
      <point x="1055" y="-381" type="line"/>
      <point x="1004" y="-319"/>
      <point x="950" y="-264"/>
      <point x="899" y="-215" type="curve"/>
      <point x="932" y="-150"/>
      <point x="950" y="-78"/>
      <point x="950" y="2" type="curve" smooth="yes"/>
      <point x="950" y="299"/>
      <point x="725" y="449"/>
      <point x="446" y="467" type="curve"/>
      <point x="895" y="967" type="line"/>
      <point x="895" y="1098" type="line"/>
      <point x="57" y="1098" type="line"/>
      <point x="57" y="946" type="line"/>
      <point x="684" y="946" type="line"/>
      <point x="236" y="449" type="line"/>
      <point x="236" y="324" type="line"/>
      <point x="356" y="324" type="line" smooth="yes"/>
      <point x="604" y="324"/>
      <point x="770" y="227"/>
      <point x="770" y="-2" type="curve" smooth="yes"/>
      <point x="770" y="-37"/>
      <point x="764" y="-70"/>
      <point x="756" y="-100" type="curve"/>
      <point x="610" y="-2"/>
      <point x="461" y="49"/>
      <point x="299" y="49" type="curve" smooth="yes"/>
      <point x="86" y="49"/>
      <point x="-41" y="-53"/>
      <point x="-41" y="-201" type="curve" smooth="yes"/>
      <point x="-41" y="-408"/>
      <point x="166" y="-492"/>
    </contour>
    <contour>
      <point x="354" y="-342" type="curve" smooth="yes"/>
      <point x="223" y="-342"/>
      <point x="129" y="-289"/>
      <point x="129" y="-205" type="curve" smooth="yes"/>
      <point x="129" y="-154"/>
      <point x="174" y="-100"/>
      <point x="303" y="-100" type="curve" smooth="yes"/>
      <point x="426" y="-100"/>
      <point x="543" y="-141"/>
      <point x="670" y="-236" type="curve"/>
      <point x="596" y="-303"/>
      <point x="485" y="-342"/>
    </contour>
  </outline>
</glyph>
